  0
SECTION
  2
HEADER
  9
$ACADVER
  1
AC1014
  9
$ACADMAINTVER
 70
     9
  9
$DWGCODEPAGE
  3
ANSI_1252
  9
$INSBASE
 10
0.0
 20
0.0
 30
0.0
  9
$EXTMIN
 10
-42.39861953494829
 20
-46.12438686571839
 30
0.0
  9
$EXTMAX
 10
74.55184378688705
 20
64.95041743121732
 30
0.0
  9
$LIMMIN
 10
0.0
 20
0.0
  9
$LIMMAX
 10
12.0
 20
9.0
  9
$ORTHOMODE
 70
     0
  9
$REGENMODE
 70
     1
  9
$FILLMODE
 70
     1
  9
$QTEXTMODE
 70
     0
  9
$MIRRTEXT
 70
     1
  9
$DRAGMODE
 70
     2
  9
$LTSCALE
 40
1.0
  9
$OSMODE
 70
    37
  9
$ATTMODE
 70
     1
  9
$TEXTSIZE
 40
0.2
  9
$TRACEWID
 40
0.05
  9
$TEXTSTYLE
  7
STANDARD
  9
$CLAYER
  8
DEFAULT
  9
$CELTYPE
  6
BYLAYER
  9
$CECOLOR
 62
   256
  9
$CELTSCALE
 40
1.0
  9
$DELOBJ
 70
     1
  9
$DISPSILH
 70
     0
  9
$DIMSCALE
 40
1.0
  9
$DIMASZ
 40
0.18
  9
$DIMEXO
 40
0.0625
  9
$DIMDLI
 40
0.38
  9
$DIMRND
 40
0.0
  9
$DIMDLE
 40
0.0
  9
$DIMEXE
 40
0.18
  9
$DIMTP
 40
0.0
  9
$DIMTM
 40
0.0
  9
$DIMTXT
 40
0.18
  9
$DIMCEN
 40
0.09
  9
$DIMTSZ
 40
0.0
  9
$DIMTOL
 70
     0
  9
$DIMLIM
 70
     0
  9
$DIMTIH
 70
     1
  9
$DIMTOH
 70
     1
  9
$DIMSE1
 70
     0
  9
$DIMSE2
 70
     0
  9
$DIMTAD
 70
     0
  9
$DIMZIN
 70
     0
  9
$DIMBLK
  1

  9
$DIMASO
 70
     1
  9
$DIMSHO
 70
     1
  9
$DIMPOST
  1

  9
$DIMAPOST
  1

  9
$DIMALT
 70
     0
  9
$DIMALTD
 70
     2
  9
$DIMALTF
 40
25.4
  9
$DIMLFAC
 40
1.0
  9
$DIMTOFL
 70
     0
  9
$DIMTVP
 40
0.0
  9
$DIMTIX
 70
     0
  9
$DIMSOXD
 70
     0
  9
$DIMSAH
 70
     0
  9
$DIMBLK1
  1

  9
$DIMBLK2
  1

  9
$DIMSTYLE
  2
STANDARD_ACAD
  9
$DIMCLRD
 70
     0
  9
$DIMCLRE
 70
     0
  9
$DIMCLRT
 70
     0
  9
$DIMTFAC
 40
1.0
  9
$DIMGAP
 40
0.09
  9
$DIMJUST
 70
     0
  9
$DIMSD1
 70
     0
  9
$DIMSD2
 70
     0
  9
$DIMTOLJ
 70
     1
  9
$DIMTZIN
 70
     0
  9
$DIMALTZ
 70
     0
  9
$DIMALTTZ
 70
     0
  9
$DIMFIT
 70
     5
  9
$DIMUPT
 70
     0
  9
$DIMUNIT
 70
     2
  9
$DIMDEC
 70
     4
  9
$DIMTDEC
 70
     4
  9
$DIMALTU
 70
     2
  9
$DIMALTTD
 70
     2
  9
$DIMTXSTY
  7
STANDARD
  9
$DIMAUNIT
 70
     0
  9
$LUNITS
 70
     2
  9
$LUPREC
 70
     3
  9
$SKETCHINC
 40
0.1
  9
$FILLETRAD
 40
0.0
  9
$AUNITS
 70
     0
  9
$AUPREC
 70
     0
  9
$MENU
  1
.
  9
$ELEVATION
 40
0.0
  9
$PELEVATION
 40
0.0
  9
$THICKNESS
 40
0.0
  9
$LIMCHECK
 70
     0
  9
$CHAMFERA
 40
0.0
  9
$CHAMFERB
 40
0.0
  9
$CHAMFERC
 40
0.0
  9
$CHAMFERD
 40
0.0
  9
$SKPOLY
 70
     0
  9
$TDCREATE
 40
2460076.440694421
  9
$TDUPDATE
 40
2460076.440723935
  9
$TDINDWG
 40
0.0000000116
  9
$TDUSRTIMER
 40
0.0000000116
  9
$USRTIMER
 70
     1
  9
$ANGBASE
 50
0.0
  9
$ANGDIR
 70
     0
  9
$PDMODE
 70
     0
  9
$PDSIZE
 40
0.0
  9
$PLINEWID
 40
0.0
  9
$COORDS
 70
     1
  9
$SPLFRAME
 70
     0
  9
$SPLINETYPE
 70
     6
  9
$SPLINESEGS
 70
     8
  9
$ATTDIA
 70
     0
  9
$ATTREQ
 70
     1
  9
$HANDLING
 70
     1
  9
$HANDSEED
  5
259
  9
$SURFTAB1
 70
     6
  9
$SURFTAB2
 70
     6
  9
$SURFTYPE
 70
     6
  9
$SURFU
 70
     6
  9
$SURFV
 70
     6
  9
$UCSNAME
  2

  9
$UCSORG
 10
0.0
 20
0.0
 30
0.0
  9
$UCSXDIR
 10
1.0
 20
0.0
 30
0.0
  9
$UCSYDIR
 10
0.0
 20
1.0
 30
0.0
  9
$PUCSNAME
  2

  9
$PUCSORG
 10
0.0
 20
0.0
 30
0.0
  9
$PUCSXDIR
 10
1.0
 20
0.0
 30
0.0
  9
$PUCSYDIR
 10
0.0
 20
1.0
 30
0.0
  9
$USERI1
 70
     0
  9
$USERI2
 70
     0
  9
$USERI3
 70
     0
  9
$USERI4
 70
     0
  9
$USERI5
 70
     0
  9
$USERR1
 40
0.0
  9
$USERR2
 40
0.0
  9
$USERR3
 40
0.0
  9
$USERR4
 40
0.0
  9
$USERR5
 40
0.0
  9
$WORLDVIEW
 70
     1
  9
$SHADEDGE
 70
     3
  9
$SHADEDIF
 70
    70
  9
$TILEMODE
 70
     1
  9
$MAXACTVP
 70
    64
  9
$PINSBASE
 10
0.0
 20
0.0
 30
0.0
  9
$PLIMCHECK
 70
     0
  9
$PEXTMIN
 10
1.000000000000000E+20
 20
1.000000000000000E+20
 30
1.000000000000000E+20
  9
$PEXTMAX
 10
-1.000000000000000E+20
 20
-1.000000000000000E+20
 30
-1.000000000000000E+20
  9
$PLIMMIN
 10
0.0
 20
0.0
  9
$PLIMMAX
 10
12.0
 20
9.0
  9
$UNITMODE
 70
     0
  9
$VISRETAIN
 70
     1
  9
$PLINEGEN
 70
     0
  9
$PSLTSCALE
 70
     1
  9
$TREEDEPTH
 70
  3020
  9
$PICKSTYLE
 70
     1
  9
$CMLSTYLE
  2
STANDARD
  9
$CMLJUST
 70
     0
  9
$CMLSCALE
 40
1.0
  9
$PROXYGRAPHICS
 70
     1
  9
$MEASUREMENT
 70
     1
  0
ENDSEC
  0
SECTION
  2
CLASSES
  0
CLASS
  1
ACDBDICTIONARYWDFLT
  2
AcDbDictionaryWithDefault
  3
ObjectDBX Classes
 90
        0
280
     0
281
     0
  0
CLASS
  1
VISUALSTYLE
  2
AcDbVisualStyle
  3
ObjectDBX Classes
 90
     4095
280
     0
281
     0
  0
CLASS
  1
MATERIAL
  2
AcDbMaterial
  3
ObjectDBX Classes
 90
     1153
280
     0
281
     0
  0
CLASS
  1
SCALE
  2
AcDbScale
  3
ObjectDBX Classes
 90
     1153
280
     0
281
     0
  0
CLASS
  1
TABLESTYLE
  2
AcDbTableStyle
  3
ObjectDBX Classes
 90
     4095
280
     0
281
     0
  0
CLASS
  1
MLEADERSTYLE
  2
AcDbMLeaderStyle
  3
ACDB_MLEADERSTYLE_CLASS
 90
     4095
280
     0
281
     0
  0
CLASS
  1
SUN
  2
AcDbSun
  3
SCENEOE
 90
     1153
280
     0
281
     0
  0
CLASS
  1
DICTIONARYVAR
  2
AcDbDictionaryVar
  3
ObjectDBX Classes
 90
        0
280
     0
281
     0
  0
CLASS
  1
XRECORD
  2
AcDbXrecord
  3
ObjectDBX Classes
 90
        0
280
     0
281
     0
  0
CLASS
  1
LWPOLYLINE
  2
AcDbPolyline
  3
ObjectDBX Classes
 90
        0
280
     0
281
     1
  0
CLASS
  1
HATCH
  2
AcDbHatch
  3
ObjectDBX Classes
 90
        0
280
     0
281
     1
  0
CLASS
  1
ACDBPLACEHOLDER
  2
AcDbPlaceHolder
  3
ObjectDBX Classes
 90
        0
280
     0
281
     0
  0
CLASS
  1
LAYOUT
  2
AcDbLayout
  3
ObjectDBX Classes
 90
        0
280
     0
281
     0
  0
ENDSEC
  0
SECTION
  2
TABLES
  0
TABLE
  2
VPORT
  5
8
102
{ACAD_XDICTIONARY
360
24E
102
}
330
0
100
AcDbSymbolTable
 70
     1
  0
VPORT
  5
29
330
8
100
AcDbSymbolTableRecord
100
AcDbViewportTableRecord
  2
*ACTIVE
 70
     0
 10
0.0
 20
0.0
 11
1.0
 21
1.0
 12
10.42990654205607
 22
4.5
 13
0.0
 23
0.0
 14
0.5
 24
0.5
 15
0.5
 25
0.5
 16
0.0
 26
0.0
 36
1.0
 17
0.0
 27
0.0
 37
0.0
 40
9.0
 41
1.972972972850329
 42
50.0
 43
0.0
 44
0.0
 50
0.0
 51
0.0
 71
     0
 72
   100
 73
     1
 74
     3
 75
     0
 76
     0
 77
     0
 78
     0
  0
ENDTAB
  0
TABLE
  2
LTYPE
  5
5
330
0
100
AcDbSymbolTable
 70
     1
  0
LTYPE
  5
14
330
5
100
AcDbSymbolTableRecord
100
AcDbLinetypeTableRecord
  2
BYBLOCK
 70
     0
  3

 72
    65
 73
     0
 40
0.0
  0
LTYPE
  5
15
330
5
100
AcDbSymbolTableRecord
100
AcDbLinetypeTableRecord
  2
BYLAYER
 70
     0
  3

 72
    65
 73
     0
 40
0.0
  0
LTYPE
  5
16
330
5
100
AcDbSymbolTableRecord
100
AcDbLinetypeTableRecord
  2
CONTINUOUS
 70
     0
  3
Solid line
 72
    65
 73
     0
 40
0.0
  0
ENDTAB
  0
TABLE
  2
LAYER
  5
2
330
0
100
AcDbSymbolTable
 70
     2
  0
LAYER
  5
10
330
2
100
AcDbSymbolTableRecord
100
AcDbLayerTableRecord
  2
0
 70
     0
 62
     7
  6
CONTINUOUS
  0
LAYER
  5
5F
330
2
100
AcDbSymbolTableRecord
100
AcDbLayerTableRecord
  2
DEFAULT
 70
     0
 62
    18
  6
CONTINUOUS
  0
ENDTAB
  0
TABLE
  2
STYLE
  5
3
330
0
100
AcDbSymbolTable
 70
     1
  0
STYLE
  5
11
330
3
100
AcDbSymbolTableRecord
100
AcDbTextStyleTableRecord
  2
STANDARD
 70
     0
 40
0.0
 41
1.0
 50
0.0
 71
     0
 42
0.2
  3
txt
  4

  0
ENDTAB
  0
TABLE
  2
VIEW
  5
6
330
0
100
AcDbSymbolTable
 70
     0
  0
ENDTAB
  0
TABLE
  2
UCS
  5
7
330
0
100
AcDbSymbolTable
 70
     0
  0
ENDTAB
  0
TABLE
  2
APPID
  5
9
330
0
100
AcDbSymbolTable
 70
     3
  0
APPID
  5
12
330
9
100
AcDbSymbolTableRecord
100
AcDbRegAppTableRecord
  2
ACAD
 70
     0
  0
APPID
  5
5E
330
9
100
AcDbSymbolTableRecord
100
AcDbRegAppTableRecord
  2
RHINO
 70
     0
  0
APPID
  5
258
330
9
100
AcDbSymbolTableRecord
100
AcDbRegAppTableRecord
  2
ACAD_MLEADERVER
 70
     0
  0
ENDTAB
  0
TABLE
  2
DIMSTYLE
  5
A
330
0
100
AcDbSymbolTable
 70
     1
  0
DIMSTYLE
105
27
330
A
100
AcDbSymbolTableRecord
100
AcDbDimStyleTableRecord
  2
STANDARD_ACAD
 70
     0
  3

  4

  5

  6

  7

 40
1.0
 41
0.18
 42
0.0625
 43
0.38
 44
0.18
 45
0.0
 46
0.0
 47
0.0
 48
0.0
140
0.18
141
0.09
142
0.0
143
25.4
144
1.0
145
0.0
146
1.0
147
0.09
 71
     0
 72
     0
 73
     1
 74
     1
 75
     0
 76
     0
 77
     0
 78
     0
170
     0
171
     2
172
     0
173
     0
174
     0
175
     0
176
     0
177
     0
178
     0
270
     2
271
     4
272
     4
273
     2
274
     2
340
11
275
     0
280
     0
281
     0
282
     0
283
     1
284
     0
285
     0
286
     0
287
     3
288
     0
  0
ENDTAB
  0
TABLE
  2
BLOCK_RECORD
  5
1
330
0
100
AcDbSymbolTable
 70
     0
  0
BLOCK_RECORD
  5
1F
330
1
100
AcDbSymbolTableRecord
100
AcDbBlockTableRecord
  2
*MODEL_SPACE
  0
BLOCK_RECORD
  5
1B
330
1
100
AcDbSymbolTableRecord
100
AcDbBlockTableRecord
  2
*PAPER_SPACE
  0
ENDTAB
  0
ENDSEC
  0
SECTION
  2
BLOCKS
  0
BLOCK
  5
20
330
1F
100
AcDbEntity
  8
0
100
AcDbBlockBegin
  2
*MODEL_SPACE
 70
     0
 10
0.0
 20
0.0
 30
0.0
  3
*MODEL_SPACE
  1

  0
ENDBLK
  5
21
330
1F
100
AcDbEntity
  8
0
100
AcDbBlockEnd
  0
BLOCK
  5
1C
330
1B
100
AcDbEntity
 67
     1
  8
0
100
AcDbBlockBegin
  2
*PAPER_SPACE
 70
     0
 10
0.0
 20
0.0
 30
0.0
  3
*PAPER_SPACE
  1

  0
ENDBLK
  5
1D
330
1B
100
AcDbEntity
 67
     1
  8
0
100
AcDbBlockEnd
  0
ENDSEC
  0
SECTION
  2
ENTITIES
  0
POLYLINE
  5
60
330
1F
100
AcDbEntity
  8
DEFAULT
100
AcDb2dPolyline
 66
     1
 10
0.0
 20
0.0
 30
0.0
 70
     1
  0
VERTEX
  5
61
330
60
100
AcDbEntity
  8
DEFAULT
100
AcDbVertex
100
AcDb2dVertex
 10
38.79020906014586
 20
1.113727453698196
 30
0.0
  0
VERTEX
  5
62
330
60
100
AcDbEntity
  8
DEFAULT
100
AcDbVertex
100
AcDb2dVertex
 10
58.43772127594277
 20
1.113727453698196
 30
0.0
  0
VERTEX
  5
63
330
60
100
AcDbEntity
  8
DEFAULT
100
AcDbVertex
100
AcDb2dVertex
 10
58.43772127594277
 20
11.09678771469771
 30
0.0
  0
VERTEX
  5
64
330
60
100
AcDbEntity
  8
DEFAULT
100
AcDbVertex
100
AcDb2dVertex
 10
38.79020906014586
 20
11.09678771469771
 30
0.0
  0
SEQEND
  5
65
330
60
100
AcDbEntity
  8
DEFAULT
  0
POLYLINE
  5
66
330
1F
100
AcDbEntity
  8
DEFAULT
100
AcDb2dPolyline
 66
     1
 10
0.0
 20
0.0
 30
0.0
 70
     1
  0
VERTEX
  5
67
330
66
100
AcDbEntity
  8
DEFAULT
100
AcDbVertex
100
AcDb2dVertex
 10
0.0
 20
0.0
 30
0.0
  0
VERTEX
  5
68
330
66
100
AcDbEntity
  8
DEFAULT
100
AcDbVertex
100
AcDb2dVertex
 10
10.0
 20
0.0
 30
0.0
  0
VERTEX
  5
69
330
66
100
AcDbEntity
  8
DEFAULT
100
AcDbVertex
100
AcDb2dVertex
 10
10.0
 20
5.0
 30
0.0
  0
VERTEX
  5
6A
330
66
100
AcDbEntity
  8
DEFAULT
100
AcDbVertex
100
AcDb2dVertex
 10
0.0
 20
5.0
 30
0.0
  0
SEQEND
  5
6B
330
66
100
AcDbEntity
  8
DEFAULT
  0
POLYLINE
  5
6C
330
1F
100
AcDbEntity
  8
DEFAULT
100
AcDb2dPolyline
 66
     1
 10
0.0
 20
0.0
 30
0.0
 70
     1
  0
VERTEX
  5
6D
330
6C
100
AcDbEntity
  8
DEFAULT
100
AcDbVertex
100
AcDb2dVertex
 10
-36.5424773317171
 20
-27.91225595961824
 30
0.0
  0
VERTEX
  5
6E
330
6C
100
AcDbEntity
  8
DEFAULT
100
AcDbVertex
100
AcDb2dVertex
 10
-16.89496511592019
 20
-27.91225595961824
 30
0.0
  0
VERTEX
  5
6F
330
6C
100
AcDbEntity
  8
DEFAULT
100
AcDbVertex
100
AcDb2dVertex
 10
-16.89496511592019
 20
-17.92919569861872
 30
0.0
  0
VERTEX
  5
70
330
6C
100
AcDbEntity
  8
DEFAULT
100
AcDbVertex
100
AcDb2dVertex
 10
-36.5424773317171
 20
-17.92919569861872
 30
0.0
  0
SEQEND
  5
71
330
6C
100
AcDbEntity
  8
DEFAULT
  0
POLYLINE
  5
72
330
1F
100
AcDbEntity
  8
DEFAULT
100
AcDb2dPolyline
 66
     1
 10
0.0
 20
0.0
 30
0.0
 70
     1
  0
VERTEX
  5
73
330
72
100
AcDbEntity
  8
DEFAULT
100
AcDbVertex
100
AcDb2dVertex
 10
40.66170542428269
 20
-41.83061367950609
 30
0.0
  0
VERTEX
  5
74
330
72
100
AcDbEntity
  8
DEFAULT
100
AcDbVertex
100
AcDb2dVertex
 10
40.66170542428269
 20
-20.66844583317397
 30
0.0
  0
VERTEX
  5
75
330
72
100
AcDbEntity
  8
DEFAULT
100
AcDbVertex
100
AcDb2dVertex
 10
66.27099549919186
 20
-20.66844583317397
 30
0.0
  0
VERTEX
  5
76
330
72
100
AcDbEntity
  8
DEFAULT
100
AcDbVertex
100
AcDb2dVertex
 10
74.55184378688705
 20
-39.37702900167048
 30
0.0
  0
VERTEX
  5
77
330
72
100
AcDbEntity
  8
DEFAULT
100
AcDbVertex
100
AcDb2dVertex
 10
67.95783496520384
 20
-46.12438686571839
 30
0.0
  0
VERTEX
  5
78
330
72
100
AcDbEntity
  8
DEFAULT
100
AcDbVertex
100
AcDb2dVertex
 10
48.63585562724841
 20
-36.00335006964652
 30
0.0
  0
SEQEND
  5
79
330
72
100
AcDbEntity
  8
DEFAULT
  0
POLYLINE
  5
7A
330
1F
100
AcDbEntity
  8
DEFAULT
100
AcDb2dPolyline
 66
     1
 10
0.0
 20
0.0
 30
0.0
  0
VERTEX
  5
7B
330
7A
100
AcDbEntity
  8
DEFAULT
100
AcDbVertex
100
AcDb2dVertex
 10
-3.196120692028835
 20
-24.34882284992738
 30
0.0
  0
VERTEX
  5
7C
330
7A
100
AcDbEntity
  8
DEFAULT
100
AcDbVertex
100
AcDb2dVertex
 10
10.60529312079647
 20
-13.92108796912604
 30
0.0
  0
VERTEX
  5
7D
330
7A
100
AcDbEntity
  8
DEFAULT
100
AcDbVertex
100
AcDb2dVertex
 10
15.97250960356186
 20
-20.66844583317397
 30
0.0
  0
VERTEX
  5
7E
330
7A
100
AcDbEntity
  8
DEFAULT
100
AcDbVertex
100
AcDb2dVertex
 10
23.79331076416287
 20
-29.8693883750575
 30
0.0
  0
VERTEX
  5
7F
330
7A
100
AcDbEntity
  8
DEFAULT
100
AcDbVertex
100
AcDb2dVertex
 10
30.08062150111661
 20
-15.30122935040857
 30
0.0
  0
VERTEX
  5
80
330
7A
100
AcDbEntity
  8
DEFAULT
100
AcDbVertex
100
AcDb2dVertex
 10
43.42198818684774
 20
-17.9081630706089
 30
0.0
  0
SEQEND
  5
81
330
7A
100
AcDbEntity
  8
DEFAULT
  0
LINE
  5
82
330
1F
100
AcDbEntity
  8
DEFAULT
100
AcDbLine
 10
-39.82760983214081
 20
24.28171849589916
 30
0.0
 11
-25.10273607969803
 21
38.53913593874059
 31
0.0
  0
POLYLINE
  5
83
330
1F
100
AcDbEntity
  8
DEFAULT
100
AcDb2dPolyline
 66
     1
 10
0.0
 20
0.0
 30
0.0
 70
     1
  0
VERTEX
  5
84
330
83
100
AcDbEntity
  8
DEFAULT
100
AcDbVertex
100
AcDb2dVertex
 10
42.44470065769821
 20
57.47111647759559
 30
0.0
  0
VERTEX
  5
85
330
83
100
AcDbEntity
  8
DEFAULT
100
AcDbVertex
100
AcDb2dVertex
 10
42.44428958375113
 20
57.42975177680233
 30
0.0
  0
VERTEX
  5
86
330
83
100
AcDbEntity
  8
DEFAULT
100
AcDbVertex
100
AcDb2dVertex
 10
42.44305262651656
 20
57.38829411284696
 30
0.0
  0
VERTEX
  5
87
330
83
100
AcDbEntity
  8
DEFAULT
100
AcDbVertex
100
AcDb2dVertex
 10
42.44098421152457
 20
57.34674508931325
 30
0.0
  0
VERTEX
  5
88
330
83
100
AcDbEntity
  8
DEFAULT
100
AcDbVertex
100
AcDb2dVertex
 10
42.43807880361672
 20
57.30510633425288
 30
0.0
  0
VERTEX
  5
89
330
83
100
AcDbEntity
  8
DEFAULT
100
AcDbVertex
100
AcDb2dVertex
 10
42.43433090839286
 20
57.26337950016861
 30
0.0
  0
VERTEX
  5
8A
330
83
100
AcDbEntity
  8
DEFAULT
100
AcDbVertex
100
AcDb2dVertex
 10
42.42973507366637
 20
57.22156626399073
 30
0.0
  0
VERTEX
  5
8B
330
83
100
AcDbEntity
  8
DEFAULT
100
AcDbVertex
100
AcDb2dVertex
 10
42.42428589092765
 20
57.17966832704635
 30
0.0
  0
VERTEX
  5
8C
330
83
100
AcDbEntity
  8
DEFAULT
100
AcDbVertex
100
AcDb2dVertex
 10
42.41797799681531
 20
57.13768741502183
 30
0.0
  0
VERTEX
  5
8D
330
83
100
AcDbEntity
  8
DEFAULT
100
AcDbVertex
100
AcDb2dVertex
 10
42.41080607459468
 20
57.09562527791787
 30
0.0
  0
VERTEX
  5
8E
330
83
100
AcDbEntity
  8
DEFAULT
100
AcDbVertex
100
AcDb2dVertex
 10
42.40276485564313
 20
57.05348368999742
 30
0.0
  0
VERTEX
  5
8F
330
83
100
AcDbEntity
  8
DEFAULT
100
AcDbVertex
100
AcDb2dVertex
 10
42.39384912094172
 20
57.01126444972623
 30
0.0
  0
VERTEX
  5
90
330
83
100
AcDbEntity
  8
DEFAULT
100
AcDbVertex
100
AcDb2dVertex
 10
42.38405370257288
 20
56.96896937970593
 30
0.0
  0
VERTEX
  5
91
330
83
100
AcDbEntity
  8
DEFAULT
100
AcDbVertex
100
AcDb2dVertex
 10
42.37337348522331
 20
56.92660032659959
 30
0.0
  0
VERTEX
  5
92
330
83
100
AcDbEntity
  8
DEFAULT
100
AcDbVertex
100
AcDb2dVertex
 10
42.36180340769197
 20
56.88415916104972
 30
0.0
  0
VERTEX
  5
93
330
83
100
AcDbEntity
  8
DEFAULT
100
AcDbVertex
100
AcDb2dVertex
 10
42.34933846440228
 20
56.8416477775885
 30
0.0
  0
VERTEX
  5
94
330
83
100
AcDbEntity
  8
DEFAULT
100
AcDbVertex
100
AcDb2dVertex
 10
42.33597370691832
 20
56.79906809454013
 30
0.0
  0
VERTEX
  5
95
330
83
100
AcDbEntity
  8
DEFAULT
100
AcDbVertex
100
AcDb2dVertex
 10
42.3217042454644
 20
56.75642205391566
 30
0.0
  0
VERTEX
  5
96
330
83
100
AcDbEntity
  8
DEFAULT
100
AcDbVertex
100
AcDb2dVertex
 10
42.30652525044724
 20
56.71371162129951
 30
0.0
  0
VERTEX
  5
97
330
83
100
AcDbEntity
  8
DEFAULT
100
AcDbVertex
100
AcDb2dVertex
 10
42.29043195398056
 20
56.67093878572813
 30
0.0
  0
VERTEX
  5
98
330
83
100
AcDbEntity
  8
DEFAULT
100
AcDbVertex
100
AcDb2dVertex
 10
42.27341965141129
 20
56.62810555956072
 30
0.0
  0
VERTEX
  5
99
330
83
100
AcDbEntity
  8
DEFAULT
100
AcDbVertex
100
AcDb2dVertex
 10
42.25548370284688
 20
56.58521397834161
 30
0.0
  0
VERTEX
  5
9A
330
83
100
AcDbEntity
  8
DEFAULT
100
AcDbVertex
100
AcDb2dVertex
 10
42.23661953468311
 20
56.54226610065452
 30
0.0
  0
VERTEX
  5
9B
330
83
100
AcDbEntity
  8
DEFAULT
100
AcDbVertex
100
AcDb2dVertex
 10
42.19608858574816
 20
56.4562098044759
 30
0.0
  0
VERTEX
  5
9C
330
83
100
AcDbEntity
  8
DEFAULT
100
AcDbVertex
100
AcDb2dVertex
 10
42.15179159957165
 20
56.36995359442204
 30
0.0
  0
VERTEX
  5
9D
330
83
100
AcDbEntity
  8
DEFAULT
100
AcDbVertex
100
AcDb2dVertex
 10
42.1036945293821
 20
56.28351475179458
 30
0.0
  0
VERTEX
  5
9E
330
83
100
AcDbEntity
  8
DEFAULT
100
AcDbVertex
100
AcDb2dVertex
 10
42.05176453529081
 20
56.19691090966039
 30
0.0
  0
VERTEX
  5
9F
330
83
100
AcDbEntity
  8
DEFAULT
100
AcDbVertex
100
AcDb2dVertex
 10
41.99597003266502
 20
56.11016004616551
 30
0.0
  0
VERTEX
  5
A0
330
83
100
AcDbEntity
  8
DEFAULT
100
AcDbVertex
100
AcDb2dVertex
 10
41.93628074016984
 20
56.02328047729856
 30
0.0
  0
VERTEX
  5
A1
330
83
100
AcDbEntity
  8
DEFAULT
100
AcDbVertex
100
AcDb2dVertex
 10
41.87266772739292
 20
55.93629084910028
 30
0.0
  0
VERTEX
  5
A2
330
83
100
AcDbEntity
  8
DEFAULT
100
AcDbVertex
100
AcDb2dVertex
 10
41.8051034619633
 20
55.84921012931768
 30
0.0
  0
VERTEX
  5
A3
330
83
100
AcDbEntity
  8
DEFAULT
100
AcDbVertex
100
AcDb2dVertex
 10
41.73356185607496
 20
55.76205759850157
 30
0.0
  0
VERTEX
  5
A4
330
83
100
AcDbEntity
  8
DEFAULT
100
AcDbVertex
100
AcDb2dVertex
 10
41.65801831232393
 20
55.67485284054856
 30
0.0
  0
VERTEX
  5
A5
330
83
100
AcDbEntity
  8
DEFAULT
100
AcDbVertex
100
AcDb2dVertex
 10
41.57844976876682
 20
55.58761573268858
 30
0.0
  0
VERTEX
  5
A6
330
83
100
AcDbEntity
  8
DEFAULT
100
AcDbVertex
100
AcDb2dVertex
 10
41.49483474310782
 20
55.50036643492135
 30
0.0
  0
VERTEX
  5
A7
330
83
100
AcDbEntity
  8
DEFAULT
100
AcDbVertex
100
AcDb2dVertex
 10
41.40715337592037
 20
55.41312537890576
 30
0.0
  0
VERTEX
  5
A8
330
83
100
AcDbEntity
  8
DEFAULT
100
AcDbVertex
100
AcDb2dVertex
 10
41.31538747280948
 20
55.32591325630788
 30
0.0
  0
VERTEX
  5
A9
330
83
100
AcDbEntity
  8
DEFAULT
100
AcDbVertex
100
AcDb2dVertex
 10
41.21952054542028
 20
55.23875100661427
 30
0.0
  0
VERTEX
  5
AA
330
83
100
AcDbEntity
  8
DEFAULT
100
AcDbVertex
100
AcDb2dVertex
 10
41.11953785119902
 20
55.1516598044193
 30
0.0
  0
VERTEX
  5
AB
330
83
100
AcDbEntity
  8
DEFAULT
100
AcDbVertex
100
AcDb2dVertex
 10
41.01542643181224
 20
55.06466104619554
 30
0.0
  0
VERTEX
  5
AC
330
83
100
AcDbEntity
  8
DEFAULT
100
AcDbVertex
100
AcDb2dVertex
 10
40.90717515013154
 20
54.97777633655883
 30
0.0
  0
VERTEX
  5
AD
330
83
100
AcDbEntity
  8
DEFAULT
100
AcDbVertex
100
AcDb2dVertex
 10
40.79477472569121
 20
54.89102747404002
 30
0.0
  0
VERTEX
  5
AE
330
83
100
AcDbEntity
  8
DEFAULT
100
AcDbVertex
100
AcDb2dVertex
 10
40.67821776852858
 20
54.80443643637765
 30
0.0
  0
VERTEX
  5
AF
330
83
100
AcDbEntity
  8
DEFAULT
100
AcDbVertex
100
AcDb2dVertex
 10
40.55749881131683
 20
54.71802536534637
 30
0.0
  0
VERTEX
  5
B0
330
83
100
AcDbEntity
  8
DEFAULT
100
AcDbVertex
100
AcDb2dVertex
 10
40.3035628207682
 20
54.54583241631352
 30
0.0
  0
VERTEX
  5
B1
330
83
100
AcDbEntity
  8
DEFAULT
100
AcDbVertex
100
AcDb2dVertex
 10
40.03296257334326
 20
54.3746284377646
 30
0.0
  0
VERTEX
  5
B2
330
83
100
AcDbEntity
  8
DEFAULT
100
AcDbVertex
100
AcDb2dVertex
 10
39.74572638945502
 20
54.20459482259265
 30
0.0
  0
VERTEX
  5
B3
330
83
100
AcDbEntity
  8
DEFAULT
100
AcDbVertex
100
AcDb2dVertex
 10
39.44191576897639
 20
54.03591398975853
 30
0.0
  0
VERTEX
  5
B4
330
83
100
AcDbEntity
  8
DEFAULT
100
AcDbVertex
100
AcDb2dVertex
 10
39.12162592483595
 20
53.86876880789372
 30
0.0
  0
VERTEX
  5
B5
330
83
100
AcDbEntity
  8
DEFAULT
100
AcDbVertex
100
AcDb2dVertex
 10
38.78498616366318
 20
53.70334200186264
 30
0.0
  0
VERTEX
  5
B6
330
83
100
AcDbEntity
  8
DEFAULT
100
AcDbVertex
100
AcDb2dVertex
 10
38.43216010641589
 20
53.53981554591155
 30
0.0
  0
VERTEX
  5
B7
330
83
100
AcDbEntity
  8
DEFAULT
100
AcDbVertex
100
AcDb2dVertex
 10
38.06334574318255
 20
53.37837004727097
 30
0.0
  0
VERTEX
  5
B8
330
83
100
AcDbEntity
  8
DEFAULT
100
AcDbVertex
100
AcDb2dVertex
 10
37.67877531772648
 20
53.21918412428139
 30
0.0
  0
VERTEX
  5
B9
330
83
100
AcDbEntity
  8
DEFAULT
100
AcDbVertex
100
AcDb2dVertex
 10
37.27871503880749
 20
53.06243378327025
 30
0.0
  0
VERTEX
  5
BA
330
83
100
AcDbEntity
  8
DEFAULT
100
AcDbVertex
100
AcDb2dVertex
 10
36.43335662625188
 20
52.75692709975183
 30
0.0
  0
VERTEX
  5
BB
330
83
100
AcDbEntity
  8
DEFAULT
100
AcDbVertex
100
AcDb2dVertex
 10
35.53005752446653
 20
52.4631824687517
 30
0.0
  0
VERTEX
  5
BC
330
83
100
AcDbEntity
  8
DEFAULT
100
AcDbVertex
100
AcDb2dVertex
 10
34.57210062520473
 20
52.18245205475465
 30
0.0
  0
VERTEX
  5
BD
330
83
100
AcDbEntity
  8
DEFAULT
100
AcDbVertex
100
AcDb2dVertex
 10
33.56322569990286
 20
51.91589013496007
 30
0.0
  0
VERTEX
  5
BE
330
83
100
AcDbEntity
  8
DEFAULT
100
AcDbVertex
100
AcDb2dVertex
 10
32.50758093224611
 20
51.6645373414198
 30
0.0
  0
VERTEX
  5
BF
330
83
100
AcDbEntity
  8
DEFAULT
100
AcDbVertex
100
AcDb2dVertex
 10
31.40966628835178
 20
51.42930717444779
 30
0.0
  0
VERTEX
  5
C0
330
83
100
AcDbEntity
  8
DEFAULT
100
AcDbVertex
100
AcDb2dVertex
 10
30.27427033959917
 20
51.21097515236082
 30
0.0
  0
VERTEX
  5
C1
330
83
100
AcDbEntity
  8
DEFAULT
100
AcDbVertex
100
AcDb2dVertex
 10
29.10640237778539
 20
51.01017086144449
 30
0.0
  0
VERTEX
  5
C2
330
83
100
AcDbEntity
  8
DEFAULT
100
AcDbVertex
100
AcDb2dVertex
 10
27.91122179628459
 20
50.8273730582269
 30
0.0
  0
VERTEX
  5
C3
330
83
100
AcDbEntity
  8
DEFAULT
100
AcDbVertex
100
AcDb2dVertex
 10
26.69396674876277
 20
50.66290786049003
 30
0.0
  0
VERTEX
  5
C4
330
83
100
AcDbEntity
  8
DEFAULT
100
AcDbVertex
100
AcDb2dVertex
 10
25.45988404026579
 20
50.51694995079303
 30
0.0
  0
VERTEX
  5
C5
330
83
100
AcDbEntity
  8
DEFAULT
100
AcDbVertex
100
AcDb2dVertex
 10
22.96186836653667
 20
50.28052433281639
 30
0.0
  0
VERTEX
  5
C6
330
83
100
AcDbEntity
  8
DEFAULT
100
AcDbVertex
100
AcDb2dVertex
 10
20.45690003107195
 20
50.11667969789614
 30
0.0
  0
VERTEX
  5
C7
330
83
100
AcDbEntity
  8
DEFAULT
100
AcDbVertex
100
AcDb2dVertex
 10
17.98113673222563
 20
50.02206997984303
 30
0.0
  0
VERTEX
  5
C8
330
83
100
AcDbEntity
  8
DEFAULT
100
AcDbVertex
100
AcDb2dVertex
 10
15.56596285562012
 20
49.99181552397386
 30
0.0
  0
VERTEX
  5
C9
330
83
100
AcDbEntity
  8
DEFAULT
100
AcDbVertex
100
AcDb2dVertex
 10
13.15078897901461
 20
50.02206997984303
 30
0.0
  0
VERTEX
  5
CA
330
83
100
AcDbEntity
  8
DEFAULT
100
AcDbVertex
100
AcDb2dVertex
 10
10.67502568016829
 20
50.11667969789614
 30
0.0
  0
VERTEX
  5
CB
330
83
100
AcDbEntity
  8
DEFAULT
100
AcDbVertex
100
AcDb2dVertex
 10
8.170057344703569
 20
50.28052433281639
 30
0.0
  0
VERTEX
  5
CC
330
83
100
AcDbEntity
  8
DEFAULT
100
AcDbVertex
100
AcDb2dVertex
 10
5.672041670974462
 20
50.51694995079303
 30
0.0
  0
VERTEX
  5
CD
330
83
100
AcDbEntity
  8
DEFAULT
100
AcDbVertex
100
AcDb2dVertex
 10
4.437958962477485
 20
50.66290786049003
 30
0.0
  0
VERTEX
  5
CE
330
83
100
AcDbEntity
  8
DEFAULT
100
AcDbVertex
100
AcDb2dVertex
 10
3.220703914955655
 20
50.8273730582269
 30
0.0
  0
VERTEX
  5
CF
330
83
100
AcDbEntity
  8
DEFAULT
100
AcDbVertex
100
AcDb2dVertex
 10
2.025523333454858
 20
51.01017086144449
 30
0.0
  0
VERTEX
  5
D0
330
83
100
AcDbEntity
  8
DEFAULT
100
AcDbVertex
100
AcDb2dVertex
 10
0.8576553716410653
 20
51.21097515236082
 30
0.0
  0
VERTEX
  5
D1
330
83
100
AcDbEntity
  8
DEFAULT
100
AcDbVertex
100
AcDb2dVertex
 10
-0.2777405771115425
 20
51.42930717444779
 30
0.0
  0
VERTEX
  5
D2
330
83
100
AcDbEntity
  8
DEFAULT
100
AcDbVertex
100
AcDb2dVertex
 10
-1.375655221005866
 20
51.6645373414198
 30
0.0
  0
VERTEX
  5
D3
330
83
100
AcDbEntity
  8
DEFAULT
100
AcDbVertex
100
AcDb2dVertex
 10
-2.43129998866261
 20
51.91589013496007
 30
0.0
  0
VERTEX
  5
D4
330
83
100
AcDbEntity
  8
DEFAULT
100
AcDbVertex
100
AcDb2dVertex
 10
-3.440174913964489
 20
52.18245205475465
 30
0.0
  0
VERTEX
  5
D5
330
83
100
AcDbEntity
  8
DEFAULT
100
AcDbVertex
100
AcDb2dVertex
 10
-4.398131813226287
 20
52.4631824687517
 30
0.0
  0
VERTEX
  5
D6
330
83
100
AcDbEntity
  8
DEFAULT
100
AcDbVertex
100
AcDb2dVertex
 10
-5.301430915011633
 20
52.75692709975183
 30
0.0
  0
VERTEX
  5
D7
330
83
100
AcDbEntity
  8
DEFAULT
100
AcDbVertex
100
AcDb2dVertex
 10
-6.146789327567257
 20
53.06243378327025
 30
0.0
  0
VERTEX
  5
D8
330
83
100
AcDbEntity
  8
DEFAULT
100
AcDbVertex
100
AcDb2dVertex
 10
-6.546849606486236
 20
53.21918412428139
 30
0.0
  0
VERTEX
  5
D9
330
83
100
AcDbEntity
  8
DEFAULT
100
AcDbVertex
100
AcDb2dVertex
 10
-6.931420031942312
 20
53.37837004727097
 30
0.0
  0
VERTEX
  5
DA
330
83
100
AcDbEntity
  8
DEFAULT
100
AcDbVertex
100
AcDb2dVertex
 10
-7.30023439517563
 20
53.53981554591155
 30
0.0
  0
VERTEX
  5
DB
330
83
100
AcDbEntity
  8
DEFAULT
100
AcDbVertex
100
AcDb2dVertex
 10
-7.653060452422927
 20
53.70334200186264
 30
0.0
  0
VERTEX
  5
DC
330
83
100
AcDbEntity
  8
DEFAULT
100
AcDbVertex
100
AcDb2dVertex
 10
-7.989700213595693
 20
53.86876880789372
 30
0.0
  0
VERTEX
  5
DD
330
83
100
AcDbEntity
  8
DEFAULT
100
AcDbVertex
100
AcDb2dVertex
 10
-8.309990057736142
 20
54.03591398975853
 30
0.0
  0
VERTEX
  5
DE
330
83
100
AcDbEntity
  8
DEFAULT
100
AcDbVertex
100
AcDb2dVertex
 10
-8.61380067821477
 20
54.20459482259265
 30
0.0
  0
VERTEX
  5
DF
330
83
100
AcDbEntity
  8
DEFAULT
100
AcDbVertex
100
AcDb2dVertex
 10
-8.901036862103009
 20
54.3746284377646
 30
0.0
  0
VERTEX
  5
E0
330
83
100
AcDbEntity
  8
DEFAULT
100
AcDbVertex
100
AcDb2dVertex
 10
-9.171637109527952
 20
54.54583241631352
 30
0.0
  0
VERTEX
  5
E1
330
83
100
AcDbEntity
  8
DEFAULT
100
AcDbVertex
100
AcDb2dVertex
 10
-9.425573100076583
 20
54.71802536534637
 30
0.0
  0
VERTEX
  5
E2
330
83
100
AcDbEntity
  8
DEFAULT
100
AcDbVertex
100
AcDb2dVertex
 10
-9.546292057288339
 20
54.80443643637765
 30
0.0
  0
VERTEX
  5
E3
330
83
100
AcDbEntity
  8
DEFAULT
100
AcDbVertex
100
AcDb2dVertex
 10
-9.662849014450964
 20
54.89102747404002
 30
0.0
  0
VERTEX
  5
E4
330
83
100
AcDbEntity
  8
DEFAULT
100
AcDbVertex
100
AcDb2dVertex
 10
-9.775249438891281
 20
54.97777633655883
 30
0.0
  0
VERTEX
  5
E5
330
83
100
AcDbEntity
  8
DEFAULT
100
AcDbVertex
100
AcDb2dVertex
 10
-9.883500720572004
 20
55.06466104619554
 30
0.0
  0
VERTEX
  5
E6
330
83
100
AcDbEntity
  8
DEFAULT
100
AcDbVertex
100
AcDb2dVertex
 10
-9.987612139958772
 20
55.1516598044193
 30
0.0
  0
VERTEX
  5
E7
330
83
100
AcDbEntity
  8
DEFAULT
100
AcDbVertex
100
AcDb2dVertex
 10
-10.08759483418003
 20
55.23875100661427
 30
0.0
  0
VERTEX
  5
E8
330
83
100
AcDbEntity
  8
DEFAULT
100
AcDbVertex
100
AcDb2dVertex
 10
-10.18346176156923
 20
55.32591325630788
 30
0.0
  0
VERTEX
  5
E9
330
83
100
AcDbEntity
  8
DEFAULT
100
AcDbVertex
100
AcDb2dVertex
 10
-10.27522766468013
 20
55.41312537890576
 30
0.0
  0
VERTEX
  5
EA
330
83
100
AcDbEntity
  8
DEFAULT
100
AcDbVertex
100
AcDb2dVertex
 10
-10.36290903186757
 20
55.50036643492135
 30
0.0
  0
VERTEX
  5
EB
330
83
100
AcDbEntity
  8
DEFAULT
100
AcDbVertex
100
AcDb2dVertex
 10
-10.44652405752657
 20
55.58761573268858
 30
0.0
  0
VERTEX
  5
EC
330
83
100
AcDbEntity
  8
DEFAULT
100
AcDbVertex
100
AcDb2dVertex
 10
-10.52609260108368
 20
55.67485284054856
 30
0.0
  0
VERTEX
  5
ED
330
83
100
AcDbEntity
  8
DEFAULT
100
AcDbVertex
100
AcDb2dVertex
 10
-10.60163614483471
 20
55.76205759850157
 30
0.0
  0
VERTEX
  5
EE
330
83
100
AcDbEntity
  8
DEFAULT
100
AcDbVertex
100
AcDb2dVertex
 10
-10.67317775072305
 20
55.84921012931768
 30
0.0
  0
VERTEX
  5
EF
330
83
100
AcDbEntity
  8
DEFAULT
100
AcDbVertex
100
AcDb2dVertex
 10
-10.74074201615266
 20
55.93629084910028
 30
0.0
  0
VERTEX
  5
F0
330
83
100
AcDbEntity
  8
DEFAULT
100
AcDbVertex
100
AcDb2dVertex
 10
-10.80435502892959
 20
56.02328047729856
 30
0.0
  0
VERTEX
  5
F1
330
83
100
AcDbEntity
  8
DEFAULT
100
AcDbVertex
100
AcDb2dVertex
 10
-10.86404432142477
 20
56.11016004616551
 30
0.0
  0
VERTEX
  5
F2
330
83
100
AcDbEntity
  8
DEFAULT
100
AcDbVertex
100
AcDb2dVertex
 10
-10.91983882405057
 20
56.19691090966039
 30
0.0
  0
VERTEX
  5
F3
330
83
100
AcDbEntity
  8
DEFAULT
100
AcDbVertex
100
AcDb2dVertex
 10
-10.97176881814185
 20
56.28351475179458
 30
0.0
  0
VERTEX
  5
F4
330
83
100
AcDbEntity
  8
DEFAULT
100
AcDbVertex
100
AcDb2dVertex
 10
-11.0198658883314
 20
56.36995359442204
 30
0.0
  0
VERTEX
  5
F5
330
83
100
AcDbEntity
  8
DEFAULT
100
AcDbVertex
100
AcDb2dVertex
 10
-11.06416287450792
 20
56.4562098044759
 30
0.0
  0
VERTEX
  5
F6
330
83
100
AcDbEntity
  8
DEFAULT
100
AcDbVertex
100
AcDb2dVertex
 10
-11.10469382344288
 20
56.54226610065452
 30
0.0
  0
VERTEX
  5
F7
330
83
100
AcDbEntity
  8
DEFAULT
100
AcDbVertex
100
AcDb2dVertex
 10
-11.12355799160663
 20
56.58521397834161
 30
0.0
  0
VERTEX
  5
F8
330
83
100
AcDbEntity
  8
DEFAULT
100
AcDbVertex
100
AcDb2dVertex
 10
-11.14149394017104
 20
56.62810555956072
 30
0.0
  0
VERTEX
  5
F9
330
83
100
AcDbEntity
  8
DEFAULT
100
AcDbVertex
100
AcDb2dVertex
 10
-11.15850624274031
 20
56.67093878572813
 30
0.0
  0
VERTEX
  5
FA
330
83
100
AcDbEntity
  8
DEFAULT
100
AcDbVertex
100
AcDb2dVertex
 10
-11.174599539207
 20
56.71371162129951
 30
0.0
  0
VERTEX
  5
FB
330
83
100
AcDbEntity
  8
DEFAULT
100
AcDbVertex
100
AcDb2dVertex
 10
-11.18977853422416
 20
56.75642205391566
 30
0.0
  0
VERTEX
  5
FC
330
83
100
AcDbEntity
  8
DEFAULT
100
AcDbVertex
100
AcDb2dVertex
 10
-11.20404799567808
 20
56.79906809454013
 30
0.0
  0
VERTEX
  5
FD
330
83
100
AcDbEntity
  8
DEFAULT
100
AcDbVertex
100
AcDb2dVertex
 10
-11.21741275316203
 20
56.8416477775885
 30
0.0
  0
VERTEX
  5
FE
330
83
100
AcDbEntity
  8
DEFAULT
100
AcDbVertex
100
AcDb2dVertex
 10
-11.22987769645172
 20
56.88415916104972
 30
0.0
  0
VERTEX
  5
FF
330
83
100
AcDbEntity
  8
DEFAULT
100
AcDbVertex
100
AcDb2dVertex
 10
-11.24144777398307
 20
56.92660032659959
 30
0.0
  0
VERTEX
  5
100
330
83
100
AcDbEntity
  8
DEFAULT
100
AcDbVertex
100
AcDb2dVertex
 10
-11.25212799133264
 20
56.96896937970593
 30
0.0
  0
VERTEX
  5
101
330
83
100
AcDbEntity
  8
DEFAULT
100
AcDbVertex
100
AcDb2dVertex
 10
-11.26192340970148
 20
57.01126444972623
 30
0.0
  0
VERTEX
  5
102
330
83
100
AcDbEntity
  8
DEFAULT
100
AcDbVertex
100
AcDb2dVertex
 10
-11.27083914440289
 20
57.05348368999742
 30
0.0
  0
VERTEX
  5
103
330
83
100
AcDbEntity
  8
DEFAULT
100
AcDbVertex
100
AcDb2dVertex
 10
-11.27888036335445
 20
57.09562527791787
 30
0.0
  0
VERTEX
  5
104
330
83
100
AcDbEntity
  8
DEFAULT
100
AcDbVertex
100
AcDb2dVertex
 10
-11.28605228557507
 20
57.13768741502183
 30
0.0
  0
VERTEX
  5
105
330
83
100
AcDbEntity
  8
DEFAULT
100
AcDbVertex
100
AcDb2dVertex
 10
-11.29236017968741
 20
57.17966832704635
 30
0.0
  0
VERTEX
  5
106
330
83
100
AcDbEntity
  8
DEFAULT
100
AcDbVertex
100
AcDb2dVertex
 10
-11.29780936242613
 20
57.22156626399073
 30
0.0
  0
VERTEX
  5
107
330
83
100
AcDbEntity
  8
DEFAULT
100
AcDbVertex
100
AcDb2dVertex
 10
-11.30240519715261
 20
57.26337950016861
 30
0.0
  0
VERTEX
  5
108
330
83
100
AcDbEntity
  8
DEFAULT
100
AcDbVertex
100
AcDb2dVertex
 10
-11.30615309237647
 20
57.30510633425288
 30
0.0
  0
VERTEX
  5
109
330
83
100
AcDbEntity
  8
DEFAULT
100
AcDbVertex
100
AcDb2dVertex
 10
-11.30905850028432
 20
57.34674508931325
 30
0.0
  0
VERTEX
  5
10A
330
83
100
AcDbEntity
  8
DEFAULT
100
AcDbVertex
100
AcDb2dVertex
 10
-11.31112691527631
 20
57.38829411284696
 30
0.0
  0
VERTEX
  5
10B
330
83
100
AcDbEntity
  8
DEFAULT
100
AcDbVertex
100
AcDb2dVertex
 10
-11.31236387251089
 20
57.42975177680233
 30
0.0
  0
VERTEX
  5
10C
330
83
100
AcDbEntity
  8
DEFAULT
100
AcDbVertex
100
AcDb2dVertex
 10
-11.31277494645796
 20
57.47111647759559
 30
0.0
  0
VERTEX
  5
10D
330
83
100
AcDbEntity
  8
DEFAULT
100
AcDbVertex
100
AcDb2dVertex
 10
-11.31236387251089
 20
57.51248117838884
 30
0.0
  0
VERTEX
  5
10E
330
83
100
AcDbEntity
  8
DEFAULT
100
AcDbVertex
100
AcDb2dVertex
 10
-11.31112691527631
 20
57.55393884234421
 30
0.0
  0
VERTEX
  5
10F
330
83
100
AcDbEntity
  8
DEFAULT
100
AcDbVertex
100
AcDb2dVertex
 10
-11.30905850028432
 20
57.59548786587792
 30
0.0
  0
VERTEX
  5
110
330
83
100
AcDbEntity
  8
DEFAULT
100
AcDbVertex
100
AcDb2dVertex
 10
-11.30615309237647
 20
57.6371266209383
 30
0.0
  0
VERTEX
  5
111
330
83
100
AcDbEntity
  8
DEFAULT
100
AcDbVertex
100
AcDb2dVertex
 10
-11.30240519715261
 20
57.67885345502256
 30
0.0
  0
VERTEX
  5
112
330
83
100
AcDbEntity
  8
DEFAULT
100
AcDbVertex
100
AcDb2dVertex
 10
-11.29780936242613
 20
57.72066669120046
 30
0.0
  0
VERTEX
  5
113
330
83
100
AcDbEntity
  8
DEFAULT
100
AcDbVertex
100
AcDb2dVertex
 10
-11.29236017968741
 20
57.76256462814482
 30
0.0
  0
VERTEX
  5
114
330
83
100
AcDbEntity
  8
DEFAULT
100
AcDbVertex
100
AcDb2dVertex
 10
-11.28605228557507
 20
57.80454554016933
 30
0.0
  0
VERTEX
  5
115
330
83
100
AcDbEntity
  8
DEFAULT
100
AcDbVertex
100
AcDb2dVertex
 10
-11.27888036335445
 20
57.84660767727328
 30
0.0
  0
VERTEX
  5
116
330
83
100
AcDbEntity
  8
DEFAULT
100
AcDbVertex
100
AcDb2dVertex
 10
-11.27083914440289
 20
57.88874926519374
 30
0.0
  0
VERTEX
  5
117
330
83
100
AcDbEntity
  8
DEFAULT
100
AcDbVertex
100
AcDb2dVertex
 10
-11.26192340970148
 20
57.93096850546494
 30
0.0
  0
VERTEX
  5
118
330
83
100
AcDbEntity
  8
DEFAULT
100
AcDbVertex
100
AcDb2dVertex
 10
-11.25212799133264
 20
57.97326357548525
 30
0.0
  0
VERTEX
  5
119
330
83
100
AcDbEntity
  8
DEFAULT
100
AcDbVertex
100
AcDb2dVertex
 10
-11.24144777398307
 20
58.01563262859157
 30
0.0
  0
VERTEX
  5
11A
330
83
100
AcDbEntity
  8
DEFAULT
100
AcDbVertex
100
AcDb2dVertex
 10
-11.22987769645172
 20
58.05807379414143
 30
0.0
  0
VERTEX
  5
11B
330
83
100
AcDbEntity
  8
DEFAULT
100
AcDbVertex
100
AcDb2dVertex
 10
-11.21741275316203
 20
58.10058517760268
 30
0.0
  0
VERTEX
  5
11C
330
83
100
AcDbEntity
  8
DEFAULT
100
AcDbVertex
100
AcDb2dVertex
 10
-11.20404799567808
 20
58.14316486065103
 30
0.0
  0
VERTEX
  5
11D
330
83
100
AcDbEntity
  8
DEFAULT
100
AcDbVertex
100
AcDb2dVertex
 10
-11.18977853422416
 20
58.1858109012755
 30
0.0
  0
VERTEX
  5
11E
330
83
100
AcDbEntity
  8
DEFAULT
100
AcDbVertex
100
AcDb2dVertex
 10
-11.174599539207
 20
58.22852133389167
 30
0.0
  0
VERTEX
  5
11F
330
83
100
AcDbEntity
  8
DEFAULT
100
AcDbVertex
100
AcDb2dVertex
 10
-11.15850624274031
 20
58.27129416946304
 30
0.0
  0
VERTEX
  5
120
330
83
100
AcDbEntity
  8
DEFAULT
100
AcDbVertex
100
AcDb2dVertex
 10
-11.14149394017104
 20
58.31412739563044
 30
0.0
  0
VERTEX
  5
121
330
83
100
AcDbEntity
  8
DEFAULT
100
AcDbVertex
100
AcDb2dVertex
 10
-11.12355799160663
 20
58.35701897684955
 30
0.0
  0
VERTEX
  5
122
330
83
100
AcDbEntity
  8
DEFAULT
100
AcDbVertex
100
AcDb2dVertex
 10
-11.10469382344288
 20
58.39996685453665
 30
0.0
  0
VERTEX
  5
123
330
83
100
AcDbEntity
  8
DEFAULT
100
AcDbVertex
100
AcDb2dVertex
 10
-11.06416287450792
 20
58.48602315071528
 30
0.0
  0
VERTEX
  5
124
330
83
100
AcDbEntity
  8
DEFAULT
100
AcDbVertex
100
AcDb2dVertex
 10
-11.0198658883314
 20
58.57227936076914
 30
0.0
  0
VERTEX
  5
125
330
83
100
AcDbEntity
  8
DEFAULT
100
AcDbVertex
100
AcDb2dVertex
 10
-10.97176881814185
 20
58.65871820339658
 30
0.0
  0
VERTEX
  5
126
330
83
100
AcDbEntity
  8
DEFAULT
100
AcDbVertex
100
AcDb2dVertex
 10
-10.91983882405057
 20
58.74532204553078
 30
0.0
  0
VERTEX
  5
127
330
83
100
AcDbEntity
  8
DEFAULT
100
AcDbVertex
100
AcDb2dVertex
 10
-10.86404432142477
 20
58.83207290902566
 30
0.0
  0
VERTEX
  5
128
330
83
100
AcDbEntity
  8
DEFAULT
100
AcDbVertex
100
AcDb2dVertex
 10
-10.80435502892959
 20
58.91895247789262
 30
0.0
  0
VERTEX
  5
129
330
83
100
AcDbEntity
  8
DEFAULT
100
AcDbVertex
100
AcDb2dVertex
 10
-10.74074201615266
 20
59.00594210609089
 30
0.0
  0
VERTEX
  5
12A
330
83
100
AcDbEntity
  8
DEFAULT
100
AcDbVertex
100
AcDb2dVertex
 10
-10.67317775072305
 20
59.09302282587351
 30
0.0
  0
VERTEX
  5
12B
330
83
100
AcDbEntity
  8
DEFAULT
100
AcDbVertex
100
AcDb2dVertex
 10
-10.60163614483471
 20
59.18017535668961
 30
0.0
  0
VERTEX
  5
12C
330
83
100
AcDbEntity
  8
DEFAULT
100
AcDbVertex
100
AcDb2dVertex
 10
-10.52609260108368
 20
59.26738011464263
 30
0.0
  0
VERTEX
  5
12D
330
83
100
AcDbEntity
  8
DEFAULT
100
AcDbVertex
100
AcDb2dVertex
 10
-10.44652405752657
 20
59.35461722250261
 30
0.0
  0
VERTEX
  5
12E
330
83
100
AcDbEntity
  8
DEFAULT
100
AcDbVertex
100
AcDb2dVertex
 10
-10.36290903186757
 20
59.44186652026983
 30
0.0
  0
VERTEX
  5
12F
330
83
100
AcDbEntity
  8
DEFAULT
100
AcDbVertex
100
AcDb2dVertex
 10
-10.27522766468013
 20
59.52910757628541
 30
0.0
  0
VERTEX
  5
130
330
83
100
AcDbEntity
  8
DEFAULT
100
AcDbVertex
100
AcDb2dVertex
 10
-10.18346176156923
 20
59.61631969888331
 30
0.0
  0
VERTEX
  5
131
330
83
100
AcDbEntity
  8
DEFAULT
100
AcDbVertex
100
AcDb2dVertex
 10
-10.08759483418003
 20
59.7034819485769
 30
0.0
  0
VERTEX
  5
132
330
83
100
AcDbEntity
  8
DEFAULT
100
AcDbVertex
100
AcDb2dVertex
 10
-9.987612139958772
 20
59.79057315077187
 30
0.0
  0
VERTEX
  5
133
330
83
100
AcDbEntity
  8
DEFAULT
100
AcDbVertex
100
AcDb2dVertex
 10
-9.883500720572004
 20
59.87757190899564
 30
0.0
  0
VERTEX
  5
134
330
83
100
AcDbEntity
  8
DEFAULT
100
AcDbVertex
100
AcDb2dVertex
 10
-9.775249438891281
 20
59.96445661863238
 30
0.0
  0
VERTEX
  5
135
330
83
100
AcDbEntity
  8
DEFAULT
100
AcDbVertex
100
AcDb2dVertex
 10
-9.662849014450964
 20
60.05120548115117
 30
0.0
  0
VERTEX
  5
136
330
83
100
AcDbEntity
  8
DEFAULT
100
AcDbVertex
100
AcDb2dVertex
 10
-9.546292057288339
 20
60.13779651881354
 30
0.0
  0
VERTEX
  5
137
330
83
100
AcDbEntity
  8
DEFAULT
100
AcDbVertex
100
AcDb2dVertex
 10
-9.425573100076583
 20
60.22420758984483
 30
0.0
  0
VERTEX
  5
138
330
83
100
AcDbEntity
  8
DEFAULT
100
AcDbVertex
100
AcDb2dVertex
 10
-9.171637109527952
 20
60.39640053887766
 30
0.0
  0
VERTEX
  5
139
330
83
100
AcDbEntity
  8
DEFAULT
100
AcDbVertex
100
AcDb2dVertex
 10
-8.901036862103009
 20
60.5676045174266
 30
0.0
  0
VERTEX
  5
13A
330
83
100
AcDbEntity
  8
DEFAULT
100
AcDbVertex
100
AcDb2dVertex
 10
-8.61380067821477
 20
60.73763813259854
 30
0.0
  0
VERTEX
  5
13B
330
83
100
AcDbEntity
  8
DEFAULT
100
AcDbVertex
100
AcDb2dVertex
 10
-8.309990057736142
 20
60.90631896543267
 30
0.0
  0
VERTEX
  5
13C
330
83
100
AcDbEntity
  8
DEFAULT
100
AcDbVertex
100
AcDb2dVertex
 10
-7.989700213595693
 20
61.07346414729749
 30
0.0
  0
VERTEX
  5
13D
330
83
100
AcDbEntity
  8
DEFAULT
100
AcDbVertex
100
AcDb2dVertex
 10
-7.653060452422927
 20
61.23889095332854
 30
0.0
  0
VERTEX
  5
13E
330
83
100
AcDbEntity
  8
DEFAULT
100
AcDbVertex
100
AcDb2dVertex
 10
-7.30023439517563
 20
61.40241740927964
 30
0.0
  0
VERTEX
  5
13F
330
83
100
AcDbEntity
  8
DEFAULT
100
AcDbVertex
100
AcDb2dVertex
 10
-6.931420031942312
 20
61.5638629079202
 30
0.0
  0
VERTEX
  5
140
330
83
100
AcDbEntity
  8
DEFAULT
100
AcDbVertex
100
AcDb2dVertex
 10
-6.546849606486236
 20
61.7230488309098
 30
0.0
  0
VERTEX
  5
141
330
83
100
AcDbEntity
  8
DEFAULT
100
AcDbVertex
100
AcDb2dVertex
 10
-6.146789327567257
 20
61.87979917192093
 30
0.0
  0
VERTEX
  5
142
330
83
100
AcDbEntity
  8
DEFAULT
100
AcDbVertex
100
AcDb2dVertex
 10
-5.301430915011633
 20
62.18530585543935
 30
0.0
  0
VERTEX
  5
143
330
83
100
AcDbEntity
  8
DEFAULT
100
AcDbVertex
100
AcDb2dVertex
 10
-4.398131813226287
 20
62.47905048643949
 30
0.0
  0
VERTEX
  5
144
330
83
100
AcDbEntity
  8
DEFAULT
100
AcDbVertex
100
AcDb2dVertex
 10
-3.440174913964489
 20
62.75978090043652
 30
0.0
  0
VERTEX
  5
145
330
83
100
AcDbEntity
  8
DEFAULT
100
AcDbVertex
100
AcDb2dVertex
 10
-2.43129998866261
 20
63.02634282023112
 30
0.0
  0
VERTEX
  5
146
330
83
100
AcDbEntity
  8
DEFAULT
100
AcDbVertex
100
AcDb2dVertex
 10
-1.375655221005866
 20
63.27769561377139
 30
0.0
  0
VERTEX
  5
147
330
83
100
AcDbEntity
  8
DEFAULT
100
AcDbVertex
100
AcDb2dVertex
 10
-0.2777405771115425
 20
63.51292578074337
 30
0.0
  0
VERTEX
  5
148
330
83
100
AcDbEntity
  8
DEFAULT
100
AcDbVertex
100
AcDb2dVertex
 10
0.8576553716410653
 20
63.73125780283034
 30
0.0
  0
VERTEX
  5
149
330
83
100
AcDbEntity
  8
DEFAULT
100
AcDbVertex
100
AcDb2dVertex
 10
2.025523333454858
 20
63.9320620937467
 30
0.0
  0
VERTEX
  5
14A
330
83
100
AcDbEntity
  8
DEFAULT
100
AcDbVertex
100
AcDb2dVertex
 10
3.220703914955655
 20
64.11485989696429
 30
0.0
  0
VERTEX
  5
14B
330
83
100
AcDbEntity
  8
DEFAULT
100
AcDbVertex
100
AcDb2dVertex
 10
4.437958962477485
 20
64.27932509470116
 30
0.0
  0
VERTEX
  5
14C
330
83
100
AcDbEntity
  8
DEFAULT
100
AcDbVertex
100
AcDb2dVertex
 10
5.672041670974462
 20
64.42528300439817
 30
0.0
  0
VERTEX
  5
14D
330
83
100
AcDbEntity
  8
DEFAULT
100
AcDbVertex
100
AcDb2dVertex
 10
8.170057344703569
 20
64.66170862237479
 30
0.0
  0
VERTEX
  5
14E
330
83
100
AcDbEntity
  8
DEFAULT
100
AcDbVertex
100
AcDb2dVertex
 10
10.67502568016829
 20
64.82555325729504
 30
0.0
  0
VERTEX
  5
14F
330
83
100
AcDbEntity
  8
DEFAULT
100
AcDbVertex
100
AcDb2dVertex
 10
13.15078897901461
 20
64.92016297534812
 30
0.0
  0
VERTEX
  5
150
330
83
100
AcDbEntity
  8
DEFAULT
100
AcDbVertex
100
AcDb2dVertex
 10
15.56596285562012
 20
64.95041743121732
 30
0.0
  0
VERTEX
  5
151
330
83
100
AcDbEntity
  8
DEFAULT
100
AcDbVertex
100
AcDb2dVertex
 10
17.98113673222563
 20
64.92016297534812
 30
0.0
  0
VERTEX
  5
152
330
83
100
AcDbEntity
  8
DEFAULT
100
AcDbVertex
100
AcDb2dVertex
 10
20.45690003107195
 20
64.82555325729504
 30
0.0
  0
VERTEX
  5
153
330
83
100
AcDbEntity
  8
DEFAULT
100
AcDbVertex
100
AcDb2dVertex
 10
22.96186836653667
 20
64.66170862237479
 30
0.0
  0
VERTEX
  5
154
330
83
100
AcDbEntity
  8
DEFAULT
100
AcDbVertex
100
AcDb2dVertex
 10
25.45988404026579
 20
64.42528300439817
 30
0.0
  0
VERTEX
  5
155
330
83
100
AcDbEntity
  8
DEFAULT
100
AcDbVertex
100
AcDb2dVertex
 10
26.69396674876277
 20
64.27932509470116
 30
0.0
  0
VERTEX
  5
156
330
83
100
AcDbEntity
  8
DEFAULT
100
AcDbVertex
100
AcDb2dVertex
 10
27.91122179628459
 20
64.11485989696429
 30
0.0
  0
VERTEX
  5
157
330
83
100
AcDbEntity
  8
DEFAULT
100
AcDbVertex
100
AcDb2dVertex
 10
29.10640237778539
 20
63.9320620937467
 30
0.0
  0
VERTEX
  5
158
330
83
100
AcDbEntity
  8
DEFAULT
100
AcDbVertex
100
AcDb2dVertex
 10
30.27427033959917
 20
63.73125780283034
 30
0.0
  0
VERTEX
  5
159
330
83
100
AcDbEntity
  8
DEFAULT
100
AcDbVertex
100
AcDb2dVertex
 10
31.40966628835178
 20
63.51292578074337
 30
0.0
  0
VERTEX
  5
15A
330
83
100
AcDbEntity
  8
DEFAULT
100
AcDbVertex
100
AcDb2dVertex
 10
32.50758093224611
 20
63.27769561377139
 30
0.0
  0
VERTEX
  5
15B
330
83
100
AcDbEntity
  8
DEFAULT
100
AcDbVertex
100
AcDb2dVertex
 10
33.56322569990286
 20
63.02634282023112
 30
0.0
  0
VERTEX
  5
15C
330
83
100
AcDbEntity
  8
DEFAULT
100
AcDbVertex
100
AcDb2dVertex
 10
34.57210062520473
 20
62.75978090043652
 30
0.0
  0
VERTEX
  5
15D
330
83
100
AcDbEntity
  8
DEFAULT
100
AcDbVertex
100
AcDb2dVertex
 10
35.53005752446653
 20
62.47905048643949
 30
0.0
  0
VERTEX
  5
15E
330
83
100
AcDbEntity
  8
DEFAULT
100
AcDbVertex
100
AcDb2dVertex
 10
36.43335662625188
 20
62.18530585543935
 30
0.0
  0
VERTEX
  5
15F
330
83
100
AcDbEntity
  8
DEFAULT
100
AcDbVertex
100
AcDb2dVertex
 10
37.27871503880749
 20
61.87979917192093
 30
0.0
  0
VERTEX
  5
160
330
83
100
AcDbEntity
  8
DEFAULT
100
AcDbVertex
100
AcDb2dVertex
 10
37.67877531772648
 20
61.7230488309098
 30
0.0
  0
VERTEX
  5
161
330
83
100
AcDbEntity
  8
DEFAULT
100
AcDbVertex
100
AcDb2dVertex
 10
38.06334574318255
 20
61.5638629079202
 30
0.0
  0
VERTEX
  5
162
330
83
100
AcDbEntity
  8
DEFAULT
100
AcDbVertex
100
AcDb2dVertex
 10
38.43216010641589
 20
61.40241740927964
 30
0.0
  0
VERTEX
  5
163
330
83
100
AcDbEntity
  8
DEFAULT
100
AcDbVertex
100
AcDb2dVertex
 10
38.78498616366318
 20
61.23889095332854
 30
0.0
  0
VERTEX
  5
164
330
83
100
AcDbEntity
  8
DEFAULT
100
AcDbVertex
100
AcDb2dVertex
 10
39.12162592483595
 20
61.07346414729749
 30
0.0
  0
VERTEX
  5
165
330
83
100
AcDbEntity
  8
DEFAULT
100
AcDbVertex
100
AcDb2dVertex
 10
39.44191576897639
 20
60.90631896543267
 30
0.0
  0
VERTEX
  5
166
330
83
100
AcDbEntity
  8
DEFAULT
100
AcDbVertex
100
AcDb2dVertex
 10
39.74572638945502
 20
60.73763813259854
 30
0.0
  0
VERTEX
  5
167
330
83
100
AcDbEntity
  8
DEFAULT
100
AcDbVertex
100
AcDb2dVertex
 10
40.03296257334326
 20
60.5676045174266
 30
0.0
  0
VERTEX
  5
168
330
83
100
AcDbEntity
  8
DEFAULT
100
AcDbVertex
100
AcDb2dVertex
 10
40.3035628207682
 20
60.39640053887766
 30
0.0
  0
VERTEX
  5
169
330
83
100
AcDbEntity
  8
DEFAULT
100
AcDbVertex
100
AcDb2dVertex
 10
40.55749881131683
 20
60.22420758984483
 30
0.0
  0
VERTEX
  5
16A
330
83
100
AcDbEntity
  8
DEFAULT
100
AcDbVertex
100
AcDb2dVertex
 10
40.67821776852858
 20
60.13779651881354
 30
0.0
  0
VERTEX
  5
16B
330
83
100
AcDbEntity
  8
DEFAULT
100
AcDbVertex
100
AcDb2dVertex
 10
40.79477472569121
 20
60.05120548115117
 30
0.0
  0
VERTEX
  5
16C
330
83
100
AcDbEntity
  8
DEFAULT
100
AcDbVertex
100
AcDb2dVertex
 10
40.90717515013154
 20
59.96445661863238
 30
0.0
  0
VERTEX
  5
16D
330
83
100
AcDbEntity
  8
DEFAULT
100
AcDbVertex
100
AcDb2dVertex
 10
41.01542643181224
 20
59.87757190899564
 30
0.0
  0
VERTEX
  5
16E
330
83
100
AcDbEntity
  8
DEFAULT
100
AcDbVertex
100
AcDb2dVertex
 10
41.11953785119902
 20
59.79057315077187
 30
0.0
  0
VERTEX
  5
16F
330
83
100
AcDbEntity
  8
DEFAULT
100
AcDbVertex
100
AcDb2dVertex
 10
41.21952054542028
 20
59.7034819485769
 30
0.0
  0
VERTEX
  5
170
330
83
100
AcDbEntity
  8
DEFAULT
100
AcDbVertex
100
AcDb2dVertex
 10
41.31538747280948
 20
59.61631969888331
 30
0.0
  0
VERTEX
  5
171
330
83
100
AcDbEntity
  8
DEFAULT
100
AcDbVertex
100
AcDb2dVertex
 10
41.40715337592037
 20
59.52910757628541
 30
0.0
  0
VERTEX
  5
172
330
83
100
AcDbEntity
  8
DEFAULT
100
AcDbVertex
100
AcDb2dVertex
 10
41.49483474310782
 20
59.44186652026983
 30
0.0
  0
VERTEX
  5
173
330
83
100
AcDbEntity
  8
DEFAULT
100
AcDbVertex
100
AcDb2dVertex
 10
41.57844976876682
 20
59.35461722250261
 30
0.0
  0
VERTEX
  5
174
330
83
100
AcDbEntity
  8
DEFAULT
100
AcDbVertex
100
AcDb2dVertex
 10
41.65801831232393
 20
59.26738011464263
 30
0.0
  0
VERTEX
  5
175
330
83
100
AcDbEntity
  8
DEFAULT
100
AcDbVertex
100
AcDb2dVertex
 10
41.73356185607496
 20
59.18017535668961
 30
0.0
  0
VERTEX
  5
176
330
83
100
AcDbEntity
  8
DEFAULT
100
AcDbVertex
100
AcDb2dVertex
 10
41.8051034619633
 20
59.09302282587351
 30
0.0
  0
VERTEX
  5
177
330
83
100
AcDbEntity
  8
DEFAULT
100
AcDbVertex
100
AcDb2dVertex
 10
41.87266772739292
 20
59.00594210609089
 30
0.0
  0
VERTEX
  5
178
330
83
100
AcDbEntity
  8
DEFAULT
100
AcDbVertex
100
AcDb2dVertex
 10
41.93628074016984
 20
58.91895247789262
 30
0.0
  0
VERTEX
  5
179
330
83
100
AcDbEntity
  8
DEFAULT
100
AcDbVertex
100
AcDb2dVertex
 10
41.99597003266502
 20
58.83207290902566
 30
0.0
  0
VERTEX
  5
17A
330
83
100
AcDbEntity
  8
DEFAULT
100
AcDbVertex
100
AcDb2dVertex
 10
42.05176453529081
 20
58.74532204553078
 30
0.0
  0
VERTEX
  5
17B
330
83
100
AcDbEntity
  8
DEFAULT
100
AcDbVertex
100
AcDb2dVertex
 10
42.1036945293821
 20
58.65871820339658
 30
0.0
  0
VERTEX
  5
17C
330
83
100
AcDbEntity
  8
DEFAULT
100
AcDbVertex
100
AcDb2dVertex
 10
42.15179159957165
 20
58.57227936076914
 30
0.0
  0
VERTEX
  5
17D
330
83
100
AcDbEntity
  8
DEFAULT
100
AcDbVertex
100
AcDb2dVertex
 10
42.19608858574816
 20
58.48602315071528
 30
0.0
  0
VERTEX
  5
17E
330
83
100
AcDbEntity
  8
DEFAULT
100
AcDbVertex
100
AcDb2dVertex
 10
42.23661953468311
 20
58.39996685453665
 30
0.0
  0
VERTEX
  5
17F
330
83
100
AcDbEntity
  8
DEFAULT
100
AcDbVertex
100
AcDb2dVertex
 10
42.25548370284688
 20
58.35701897684955
 30
0.0
  0
VERTEX
  5
180
330
83
100
AcDbEntity
  8
DEFAULT
100
AcDbVertex
100
AcDb2dVertex
 10
42.27341965141129
 20
58.31412739563044
 30
0.0
  0
VERTEX
  5
181
330
83
100
AcDbEntity
  8
DEFAULT
100
AcDbVertex
100
AcDb2dVertex
 10
42.29043195398056
 20
58.27129416946304
 30
0.0
  0
VERTEX
  5
182
330
83
100
AcDbEntity
  8
DEFAULT
100
AcDbVertex
100
AcDb2dVertex
 10
42.30652525044724
 20
58.22852133389167
 30
0.0
  0
VERTEX
  5
183
330
83
100
AcDbEntity
  8
DEFAULT
100
AcDbVertex
100
AcDb2dVertex
 10
42.3217042454644
 20
58.1858109012755
 30
0.0
  0
VERTEX
  5
184
330
83
100
AcDbEntity
  8
DEFAULT
100
AcDbVertex
100
AcDb2dVertex
 10
42.33597370691832
 20
58.14316486065103
 30
0.0
  0
VERTEX
  5
185
330
83
100
AcDbEntity
  8
DEFAULT
100
AcDbVertex
100
AcDb2dVertex
 10
42.34933846440228
 20
58.10058517760268
 30
0.0
  0
VERTEX
  5
186
330
83
100
AcDbEntity
  8
DEFAULT
100
AcDbVertex
100
AcDb2dVertex
 10
42.36180340769197
 20
58.05807379414143
 30
0.0
  0
VERTEX
  5
187
330
83
100
AcDbEntity
  8
DEFAULT
100
AcDbVertex
100
AcDb2dVertex
 10
42.37337348522331
 20
58.01563262859157
 30
0.0
  0
VERTEX
  5
188
330
83
100
AcDbEntity
  8
DEFAULT
100
AcDbVertex
100
AcDb2dVertex
 10
42.38405370257288
 20
57.97326357548525
 30
0.0
  0
VERTEX
  5
189
330
83
100
AcDbEntity
  8
DEFAULT
100
AcDbVertex
100
AcDb2dVertex
 10
42.39384912094172
 20
57.93096850546494
 30
0.0
  0
VERTEX
  5
18A
330
83
100
AcDbEntity
  8
DEFAULT
100
AcDbVertex
100
AcDb2dVertex
 10
42.40276485564313
 20
57.88874926519374
 30
0.0
  0
VERTEX
  5
18B
330
83
100
AcDbEntity
  8
DEFAULT
100
AcDbVertex
100
AcDb2dVertex
 10
42.41080607459468
 20
57.84660767727328
 30
0.0
  0
VERTEX
  5
18C
330
83
100
AcDbEntity
  8
DEFAULT
100
AcDbVertex
100
AcDb2dVertex
 10
42.41797799681531
 20
57.80454554016933
 30
0.0
  0
VERTEX
  5
18D
330
83
100
AcDbEntity
  8
DEFAULT
100
AcDbVertex
100
AcDb2dVertex
 10
42.42428589092765
 20
57.76256462814482
 30
0.0
  0
VERTEX
  5
18E
330
83
100
AcDbEntity
  8
DEFAULT
100
AcDbVertex
100
AcDb2dVertex
 10
42.42973507366637
 20
57.72066669120046
 30
0.0
  0
VERTEX
  5
18F
330
83
100
AcDbEntity
  8
DEFAULT
100
AcDbVertex
100
AcDb2dVertex
 10
42.43433090839286
 20
57.67885345502256
 30
0.0
  0
VERTEX
  5
190
330
83
100
AcDbEntity
  8
DEFAULT
100
AcDbVertex
100
AcDb2dVertex
 10
42.43807880361672
 20
57.6371266209383
 30
0.0
  0
VERTEX
  5
191
330
83
100
AcDbEntity
  8
DEFAULT
100
AcDbVertex
100
AcDb2dVertex
 10
42.44098421152457
 20
57.59548786587792
 30
0.0
  0
VERTEX
  5
192
330
83
100
AcDbEntity
  8
DEFAULT
100
AcDbVertex
100
AcDb2dVertex
 10
42.44305262651656
 20
57.55393884234421
 30
0.0
  0
VERTEX
  5
193
330
83
100
AcDbEntity
  8
DEFAULT
100
AcDbVertex
100
AcDb2dVertex
 10
42.44428958375113
 20
57.51248117838884
 30
0.0
  0
SEQEND
  5
194
330
83
100
AcDbEntity
  8
DEFAULT
  0
ARC
  5
195
330
1F
100
AcDbEntity
  8
DEFAULT
100
AcDbCircle
 10
42.39861953494829
 20
26.61900004390594
 30
0.0
 40
32.72194167209508
210
0.0
220
0.0
230
-1.0
100
AcDbArc
 50
90.0
 51
151.6992442339936
  0
POLYLINE
  5
196
330
1F
100
AcDbEntity
  8
DEFAULT
100
AcDb2dPolyline
 66
     1
 10
0.0
 20
0.0
 30
0.0
  0
VERTEX
  5
197
330
196
100
AcDbEntity
  8
DEFAULT
100
AcDbVertex
100
AcDb2dVertex
 10
20.37997667133011
 20
21.10820101739861
 30
0.0
  0
VERTEX
  5
198
330
196
100
AcDbEntity
  8
DEFAULT
100
AcDbVertex
100
AcDb2dVertex
 10
21.04051764743423
 20
22.28270393801934
 30
0.0
  0
VERTEX
  5
199
330
196
100
AcDbEntity
  8
DEFAULT
100
AcDbVertex
100
AcDb2dVertex
 10
21.6808832957288
 20
23.35298393163497
 30
0.0
  0
VERTEX
  5
19A
330
196
100
AcDbEntity
  8
DEFAULT
100
AcDbVertex
100
AcDb2dVertex
 10
22.30231453133134
 20
24.32279162933105
 30
0.0
  0
VERTEX
  5
19B
330
196
100
AcDbEntity
  8
DEFAULT
100
AcDbVertex
100
AcDb2dVertex
 10
22.60631753034733
 20
24.77119043942348
 30
0.0
  0
VERTEX
  5
19C
330
196
100
AcDbEntity
  8
DEFAULT
100
AcDbVertex
100
AcDb2dVertex
 10
22.90605226935938
 20
25.19587766219311
 30
0.0
  0
VERTEX
  5
19D
330
196
100
AcDbEntity
  8
DEFAULT
100
AcDbVertex
100
AcDb2dVertex
 10
23.20167386275718
 20
25.59732212652561
 30
0.0
  0
VERTEX
  5
19E
330
196
100
AcDbEntity
  8
DEFAULT
100
AcDbVertex
100
AcDb2dVertex
 10
23.49333742493042
 20
25.97599266130668
 30
0.0
  0
VERTEX
  5
19F
330
196
100
AcDbEntity
  8
DEFAULT
100
AcDbVertex
100
AcDb2dVertex
 10
23.7811980702688
 20
26.33235809542201
 30
0.0
  0
VERTEX
  5
1A0
330
196
100
AcDbEntity
  8
DEFAULT
100
AcDbVertex
100
AcDb2dVertex
 10
24.06541091316199
 20
26.6668872577573
 30
0.0
  0
VERTEX
  5
1A1
330
196
100
AcDbEntity
  8
DEFAULT
100
AcDbVertex
100
AcDb2dVertex
 10
24.3461310679997
 20
26.98004897719823
 30
0.0
  0
VERTEX
  5
1A2
330
196
100
AcDbEntity
  8
DEFAULT
100
AcDbVertex
100
AcDb2dVertex
 10
24.62351364917161
 20
27.2723120826305
 30
0.0
  0
VERTEX
  5
1A3
330
196
100
AcDbEntity
  8
DEFAULT
100
AcDbVertex
100
AcDb2dVertex
 10
24.89771377106741
 20
27.54414540293979
 30
0.0
  0
VERTEX
  5
1A4
330
196
100
AcDbEntity
  8
DEFAULT
100
AcDbVertex
100
AcDb2dVertex
 10
25.1688865480768
 20
27.79601776701181
 30
0.0
  0
VERTEX
  5
1A5
330
196
100
AcDbEntity
  8
DEFAULT
100
AcDbVertex
100
AcDb2dVertex
 10
25.30338615549586
 20
27.91461509948563
 30
0.0
  0
VERTEX
  5
1A6
330
196
100
AcDbEntity
  8
DEFAULT
100
AcDbVertex
100
AcDb2dVertex
 10
25.43718709458945
 20
28.02839800373225
 30
0.0
  0
VERTEX
  5
1A7
330
196
100
AcDbEntity
  8
DEFAULT
100
AcDbVertex
100
AcDb2dVertex
 10
25.57030875465628
 20
28.13742508336239
 30
0.0
  0
VERTEX
  5
1A8
330
196
100
AcDbEntity
  8
DEFAULT
100
AcDbVertex
100
AcDb2dVertex
 10
25.70277052499506
 20
28.24175494198678
 30
0.0
  0
VERTEX
  5
1A9
330
196
100
AcDbEntity
  8
DEFAULT
100
AcDbVertex
100
AcDb2dVertex
 10
25.83459179490451
 20
28.34144618321612
 30
0.0
  0
VERTEX
  5
1AA
330
196
100
AcDbEntity
  8
DEFAULT
100
AcDbVertex
100
AcDb2dVertex
 10
25.96579195368333
 20
28.43655741066111
 30
0.0
  0
VERTEX
  5
1AB
330
196
100
AcDbEntity
  8
DEFAULT
100
AcDbVertex
100
AcDb2dVertex
 10
26.09639039063023
 20
28.52714722793248
 30
0.0
  0
VERTEX
  5
1AC
330
196
100
AcDbEntity
  8
DEFAULT
100
AcDbVertex
100
AcDb2dVertex
 10
26.22640649504394
 20
28.61327423864093
 30
0.0
  0
VERTEX
  5
1AD
330
196
100
AcDbEntity
  8
DEFAULT
100
AcDbVertex
100
AcDb2dVertex
 10
26.35585965622315
 20
28.69499704639718
 30
0.0
  0
VERTEX
  5
1AE
330
196
100
AcDbEntity
  8
DEFAULT
100
AcDbVertex
100
AcDb2dVertex
 10
26.48476926346657
 20
28.77237425481194
 30
0.0
  0
VERTEX
  5
1AF
330
196
100
AcDbEntity
  8
DEFAULT
100
AcDbVertex
100
AcDb2dVertex
 10
26.61315470607293
 20
28.84546446749591
 30
0.0
  0
VERTEX
  5
1B0
330
196
100
AcDbEntity
  8
DEFAULT
100
AcDbVertex
100
AcDb2dVertex
 10
26.74103537334093
 20
28.91432628805981
 30
0.0
  0
VERTEX
  5
1B1
330
196
100
AcDbEntity
  8
DEFAULT
100
AcDbVertex
100
AcDb2dVertex
 10
26.86843065456928
 20
28.97901832011435
 30
0.0
  0
VERTEX
  5
1B2
330
196
100
AcDbEntity
  8
DEFAULT
100
AcDbVertex
100
AcDb2dVertex
 10
26.9953599390567
 20
29.03959916727024
 30
0.0
  0
VERTEX
  5
1B3
330
196
100
AcDbEntity
  8
DEFAULT
100
AcDbVertex
100
AcDb2dVertex
 10
27.12184261610189
 20
29.0961274331382
 30
0.0
  0
VERTEX
  5
1B4
330
196
100
AcDbEntity
  8
DEFAULT
100
AcDbVertex
100
AcDb2dVertex
 10
27.24789807500357
 20
29.14866172132893
 30
0.0
  0
VERTEX
  5
1B5
330
196
100
AcDbEntity
  8
DEFAULT
100
AcDbVertex
100
AcDb2dVertex
 10
27.37354570506044
 20
29.19726063545315
 30
0.0
  0
VERTEX
  5
1B6
330
196
100
AcDbEntity
  8
DEFAULT
100
AcDbVertex
100
AcDb2dVertex
 10
27.49880489557123
 20
29.24198277912157
 30
0.0
  0
VERTEX
  5
1B7
330
196
100
AcDbEntity
  8
DEFAULT
100
AcDbVertex
100
AcDb2dVertex
 10
27.62369503583463
 20
29.28288675594489
 30
0.0
  0
VERTEX
  5
1B8
330
196
100
AcDbEntity
  8
DEFAULT
100
AcDbVertex
100
AcDb2dVertex
 10
27.74823551514936
 20
29.32003116953384
 30
0.0
  0
VERTEX
  5
1B9
330
196
100
AcDbEntity
  8
DEFAULT
100
AcDbVertex
100
AcDb2dVertex
 10
27.87244572281414
 20
29.35347462349912
 30
0.0
  0
VERTEX
  5
1BA
330
196
100
AcDbEntity
  8
DEFAULT
100
AcDbVertex
100
AcDb2dVertex
 10
27.99634504812767
 20
29.38327572145145
 30
0.0
  0
VERTEX
  5
1BB
330
196
100
AcDbEntity
  8
DEFAULT
100
AcDbVertex
100
AcDb2dVertex
 10
28.11995288038867
 20
29.40949306700153
 30
0.0
  0
VERTEX
  5
1BC
330
196
100
AcDbEntity
  8
DEFAULT
100
AcDbVertex
100
AcDb2dVertex
 10
28.24328860889583
 20
29.43218526376008
 30
0.0
  0
VERTEX
  5
1BD
330
196
100
AcDbEntity
  8
DEFAULT
100
AcDbVertex
100
AcDb2dVertex
 10
28.36637162294789
 20
29.4514109153378
 30
0.0
  0
VERTEX
  5
1BE
330
196
100
AcDbEntity
  8
DEFAULT
100
AcDbVertex
100
AcDb2dVertex
 10
28.48922131184355
 20
29.46722862534542
 30
0.0
  0
VERTEX
  5
1BF
330
196
100
AcDbEntity
  8
DEFAULT
100
AcDbVertex
100
AcDb2dVertex
 10
28.61185706488152
 20
29.47969699739364
 30
0.0
  0
VERTEX
  5
1C0
330
196
100
AcDbEntity
  8
DEFAULT
100
AcDbVertex
100
AcDb2dVertex
 10
28.7342982713605
 20
29.48887463509317
 30
0.0
  0
VERTEX
  5
1C1
330
196
100
AcDbEntity
  8
DEFAULT
100
AcDbVertex
100
AcDb2dVertex
 10
28.85656432057922
 20
29.49482014205472
 30
0.0
  0
VERTEX
  5
1C2
330
196
100
AcDbEntity
  8
DEFAULT
100
AcDbVertex
100
AcDb2dVertex
 10
28.97867460183639
 20
29.49759212188901
 30
0.0
  0
VERTEX
  5
1C3
330
196
100
AcDbEntity
  8
DEFAULT
100
AcDbVertex
100
AcDb2dVertex
 10
29.10064850443071
 20
29.49724917820675
 30
0.0
  0
VERTEX
  5
1C4
330
196
100
AcDbEntity
  8
DEFAULT
100
AcDbVertex
100
AcDb2dVertex
 10
29.22250541766089
 20
29.49384991461865
 30
0.0
  0
VERTEX
  5
1C5
330
196
100
AcDbEntity
  8
DEFAULT
100
AcDbVertex
100
AcDb2dVertex
 10
29.34426473082565
 20
29.48745293473542
 30
0.0
  0
VERTEX
  5
1C6
330
196
100
AcDbEntity
  8
DEFAULT
100
AcDbVertex
100
AcDb2dVertex
 10
29.4659458332237
 20
29.47811684216777
 30
0.0
  0
VERTEX
  5
1C7
330
196
100
AcDbEntity
  8
DEFAULT
100
AcDbVertex
100
AcDb2dVertex
 10
29.58756811415375
 20
29.46590024052642
 30
0.0
  0
VERTEX
  5
1C8
330
196
100
AcDbEntity
  8
DEFAULT
100
AcDbVertex
100
AcDb2dVertex
 10
29.70915096291451
 20
29.45086173342206
 30
0.0
  0
VERTEX
  5
1C9
330
196
100
AcDbEntity
  8
DEFAULT
100
AcDbVertex
100
AcDb2dVertex
 10
29.83071376880469
 20
29.43305992446543
 30
0.0
  0
VERTEX
  5
1CA
330
196
100
AcDbEntity
  8
DEFAULT
100
AcDbVertex
100
AcDb2dVertex
 10
29.95227592112301
 20
29.41255341726722
 30
0.0
  0
VERTEX
  5
1CB
330
196
100
AcDbEntity
  8
DEFAULT
100
AcDbVertex
100
AcDb2dVertex
 10
30.07385680916817
 20
29.38940081543815
 30
0.0
  0
VERTEX
  5
1CC
330
196
100
AcDbEntity
  8
DEFAULT
100
AcDbVertex
100
AcDb2dVertex
 10
30.19547582223888
 20
29.36366072258893
 30
0.0
  0
VERTEX
  5
1CD
330
196
100
AcDbEntity
  8
DEFAULT
100
AcDbVertex
100
AcDb2dVertex
 10
30.31715234963387
 20
29.33539174233028
 30
0.0
  0
VERTEX
  5
1CE
330
196
100
AcDbEntity
  8
DEFAULT
100
AcDbVertex
100
AcDb2dVertex
 10
30.43890578065183
 20
29.30465247827289
 30
0.0
  0
VERTEX
  5
1CF
330
196
100
AcDbEntity
  8
DEFAULT
100
AcDbVertex
100
AcDb2dVertex
 10
30.56075550459148
 20
29.27150153402749
 30
0.0
  0
VERTEX
  5
1D0
330
196
100
AcDbEntity
  8
DEFAULT
100
AcDbVertex
100
AcDb2dVertex
 10
30.68272091075153
 20
29.23599751320479
 30
0.0
  0
VERTEX
  5
1D1
330
196
100
AcDbEntity
  8
DEFAULT
100
AcDbVertex
100
AcDb2dVertex
 10
30.92707632692768
 20
29.15816465627033
 30
0.0
  0
VERTEX
  5
1D2
330
196
100
AcDbEntity
  8
DEFAULT
100
AcDbVertex
100
AcDb2dVertex
 10
31.17212714356997
 20
29.07162273635518
 30
0.0
  0
VERTEX
  5
1D3
330
196
100
AcDbEntity
  8
DEFAULT
100
AcDbVertex
100
AcDb2dVertex
 10
31.41802847506808
 20
28.97684058234505
 30
0.0
  0
VERTEX
  5
1D4
330
196
100
AcDbEntity
  8
DEFAULT
100
AcDbVertex
100
AcDb2dVertex
 10
31.66493543581171
 20
28.87428702312563
 30
0.0
  0
VERTEX
  5
1D5
330
196
100
AcDbEntity
  8
DEFAULT
100
AcDbVertex
100
AcDb2dVertex
 10
31.91300314019055
 20
28.76443088758261
 30
0.0
  0
VERTEX
  5
1D6
330
196
100
AcDbEntity
  8
DEFAULT
100
AcDbVertex
100
AcDb2dVertex
 10
32.16238670259429
 20
28.64774100460168
 30
0.0
  0
VERTEX
  5
1D7
330
196
100
AcDbEntity
  8
DEFAULT
100
AcDbVertex
100
AcDb2dVertex
 10
32.66572185903522
 20
28.39573531186886
 30
0.0
  0
VERTEX
  5
1D8
330
196
100
AcDbEntity
  8
DEFAULT
100
AcDbVertex
100
AcDb2dVertex
 10
33.176181820252
 20
28.12202057601271
 30
0.0
  0
VERTEX
  5
1D9
330
196
100
AcDbEntity
  8
DEFAULT
100
AcDbVertex
100
AcDb2dVertex
 10
36.458053734427
 20
26.23387759607569
 30
0.0
  0
VERTEX
  5
1DA
330
196
100
AcDbEntity
  8
DEFAULT
100
AcDbVertex
100
AcDb2dVertex
 10
37.05313295236537
 20
25.91321722875115
 30
0.0
  0
VERTEX
  5
1DB
330
196
100
AcDbEntity
  8
DEFAULT
100
AcDbVertex
100
AcDb2dVertex
 10
37.66526429601977
 20
25.60085286698756
 30
0.0
  0
VERTEX
  5
1DC
330
196
100
AcDbEntity
  8
DEFAULT
100
AcDbVertex
100
AcDb2dVertex
 10
38.29521462304708
 20
25.30026557978498
 30
0.0
  0
VERTEX
  5
1DD
330
196
100
AcDbEntity
  8
DEFAULT
100
AcDbVertex
100
AcDb2dVertex
 10
38.94185456126169
 20
25.0138581878017
 30
0.0
  0
VERTEX
  5
1DE
330
196
100
AcDbEntity
  8
DEFAULT
100
AcDbVertex
100
AcDb2dVertex
 10
39.60358068101736
 20
24.74376394961051
 30
0.0
  0
VERTEX
  5
1DF
330
196
100
AcDbEntity
  8
DEFAULT
100
AcDbVertex
100
AcDb2dVertex
 10
40.27878955266789
 20
24.49211612378424
 30
0.0
  0
VERTEX
  5
1E0
330
196
100
AcDbEntity
  8
DEFAULT
100
AcDbVertex
100
AcDb2dVertex
 10
40.96587774656702
 20
24.2610479688957
 30
0.0
  0
VERTEX
  5
1E1
330
196
100
AcDbEntity
  8
DEFAULT
100
AcDbVertex
100
AcDb2dVertex
 10
41.31337551759537
 20
24.15389791135708
 30
0.0
  0
VERTEX
  5
1E2
330
196
100
AcDbEntity
  8
DEFAULT
100
AcDbVertex
100
AcDb2dVertex
 10
41.66324183306853
 20
24.0526927435177
 30
0.0
  0
VERTEX
  5
1E3
330
196
100
AcDbEntity
  8
DEFAULT
100
AcDbVertex
100
AcDb2dVertex
 10
42.01527626428072
 20
23.95769912269916
 30
0.0
  0
VERTEX
  5
1E4
330
196
100
AcDbEntity
  8
DEFAULT
100
AcDbVertex
100
AcDb2dVertex
 10
42.36927838252618
 20
23.86918370622305
 30
0.0
  0
VERTEX
  5
1E5
330
196
100
AcDbEntity
  8
DEFAULT
100
AcDbVertex
100
AcDb2dVertex
 10
42.72504775909911
 20
23.78741315141099
 30
0.0
  0
VERTEX
  5
1E6
330
196
100
AcDbEntity
  8
DEFAULT
100
AcDbVertex
100
AcDb2dVertex
 10
43.08238396529373
 20
23.71265411558458
 30
0.0
  0
VERTEX
  5
1E7
330
196
100
AcDbEntity
  8
DEFAULT
100
AcDbVertex
100
AcDb2dVertex
 10
43.44108657240427
 20
23.64517325606541
 30
0.0
  0
VERTEX
  5
1E8
330
196
100
AcDbEntity
  8
DEFAULT
100
AcDbVertex
100
AcDb2dVertex
 10
43.80095515172496
 20
23.58523723017508
 30
0.0
  0
VERTEX
  5
1E9
330
196
100
AcDbEntity
  8
DEFAULT
100
AcDbVertex
100
AcDb2dVertex
 10
44.16178927455001
 20
23.5331126952352
 30
0.0
  0
VERTEX
  5
1EA
330
196
100
AcDbEntity
  8
DEFAULT
100
AcDbVertex
100
AcDb2dVertex
 10
44.52338851217364
 20
23.48906630856737
 30
0.0
  0
VERTEX
  5
1EB
330
196
100
AcDbEntity
  8
DEFAULT
100
AcDbVertex
100
AcDb2dVertex
 10
44.88555243589008
 20
23.4533647274932
 30
0.0
  0
VERTEX
  5
1EC
330
196
100
AcDbEntity
  8
DEFAULT
100
AcDbVertex
100
AcDb2dVertex
 10
45.24808061699353
 20
23.42627460933427
 30
0.0
  0
VERTEX
  5
1ED
330
196
100
AcDbEntity
  8
DEFAULT
100
AcDbVertex
100
AcDb2dVertex
 10
45.61077262677824
 20
23.4080626114122
 30
0.0
  0
VERTEX
  5
1EE
330
196
100
AcDbEntity
  8
DEFAULT
100
AcDbVertex
100
AcDb2dVertex
 10
45.97342803653841
 20
23.39899539104859
 30
0.0
  0
VERTEX
  5
1EF
330
196
100
AcDbEntity
  8
DEFAULT
100
AcDbVertex
100
AcDb2dVertex
 10
46.33584641756826
 20
23.39933960556504
 30
0.0
  0
VERTEX
  5
1F0
330
196
100
AcDbEntity
  8
DEFAULT
100
AcDbVertex
100
AcDb2dVertex
 10
46.69782734116203
 20
23.40936191228315
 30
0.0
  0
VERTEX
  5
1F1
330
196
100
AcDbEntity
  8
DEFAULT
100
AcDbVertex
100
AcDb2dVertex
 10
47.05917037861393
 20
23.42932896852451
 30
0.0
  0
VERTEX
  5
1F2
330
196
100
AcDbEntity
  8
DEFAULT
100
AcDbVertex
100
AcDb2dVertex
 10
47.41967510121819
 20
23.45950743161074
 30
0.0
  0
VERTEX
  5
1F3
330
196
100
AcDbEntity
  8
DEFAULT
100
AcDbVertex
100
AcDb2dVertex
 10
47.77914108026901
 20
23.50016395886344
 30
0.0
  0
VERTEX
  5
1F4
330
196
100
AcDbEntity
  8
DEFAULT
100
AcDbVertex
100
AcDb2dVertex
 10
48.13736788706062
 20
23.5515652076042
 30
0.0
  0
VERTEX
  5
1F5
330
196
100
AcDbEntity
  8
DEFAULT
100
AcDbVertex
100
AcDb2dVertex
 10
48.49415509288724
 20
23.61397783515463
 30
0.0
  0
VERTEX
  5
1F6
330
196
100
AcDbEntity
  8
DEFAULT
100
AcDbVertex
100
AcDb2dVertex
 10
48.84930226904309
 20
23.68766849883633
 30
0.0
  0
VERTEX
  5
1F7
330
196
100
AcDbEntity
  8
DEFAULT
100
AcDbVertex
100
AcDb2dVertex
 10
49.2026089868224
 20
23.77290385597091
 30
0.0
  0
VERTEX
  5
1F8
330
196
100
AcDbEntity
  8
DEFAULT
100
AcDbVertex
100
AcDb2dVertex
 10
49.55387481751939
 20
23.86995056387995
 30
0.0
  0
VERTEX
  5
1F9
330
196
100
AcDbEntity
  8
DEFAULT
100
AcDbVertex
100
AcDb2dVertex
 10
49.90289933242828
 20
23.97907527988507
 30
0.0
  0
VERTEX
  5
1FA
330
196
100
AcDbEntity
  8
DEFAULT
100
AcDbVertex
100
AcDb2dVertex
 10
50.24948210284329
 20
24.10054466130787
 30
0.0
  0
VERTEX
  5
1FB
330
196
100
AcDbEntity
  8
DEFAULT
100
AcDbVertex
100
AcDb2dVertex
 10
50.59342270005862
 20
24.23462536546995
 30
0.0
  0
VERTEX
  5
1FC
330
196
100
AcDbEntity
  8
DEFAULT
100
AcDbVertex
100
AcDb2dVertex
 10
50.76433954974587
 20
24.30647829399121
 30
0.0
  0
VERTEX
  5
1FD
330
196
100
AcDbEntity
  8
DEFAULT
100
AcDbVertex
100
AcDb2dVertex
 10
50.93452069536853
 20
24.3815840496929
 30
0.0
  0
VERTEX
  5
1FE
330
196
100
AcDbEntity
  8
DEFAULT
100
AcDbVertex
100
AcDb2dVertex
 10
51.10394108333838
 20
24.4599759647402
 30
0.0
  0
VERTEX
  5
1FF
330
196
100
AcDbEntity
  8
DEFAULT
100
AcDbVertex
100
AcDb2dVertex
 10
51.27257566006721
 20
24.54168737129833
 30
0.0
  0
VERTEX
  5
200
330
196
100
AcDbEntity
  8
DEFAULT
100
AcDbVertex
100
AcDb2dVertex
 10
51.44039937196678
 20
24.62675160153248
 30
0.0
  0
VERTEX
  5
201
330
196
100
AcDbEntity
  8
DEFAULT
100
AcDbVertex
100
AcDb2dVertex
 10
51.6073871654489
 20
24.71520198760785
 30
0.0
  0
VERTEX
  5
202
330
196
100
AcDbEntity
  8
DEFAULT
100
AcDbVertex
100
AcDb2dVertex
 10
51.77351398692531
 20
24.80707186168964
 30
0.0
  0
VERTEX
  5
203
330
196
100
AcDbEntity
  8
DEFAULT
100
AcDbVertex
100
AcDb2dVertex
 10
51.93875478280781
 20
24.90239455594305
 30
0.0
  0
VERTEX
  5
204
330
196
100
AcDbEntity
  8
DEFAULT
100
AcDbVertex
100
AcDb2dVertex
 10
52.10308449950816
 20
25.00120340253329
 30
0.0
  0
VERTEX
  5
205
330
196
100
AcDbEntity
  8
DEFAULT
100
AcDbVertex
100
AcDb2dVertex
 10
52.26647808343816
 20
25.10353173362554
 30
0.0
  0
VERTEX
  5
206
330
196
100
AcDbEntity
  8
DEFAULT
100
AcDbVertex
100
AcDb2dVertex
 10
52.42891048100957
 20
25.20941288138502
 30
0.0
  0
VERTEX
  5
207
330
196
100
AcDbEntity
  8
DEFAULT
100
AcDbVertex
100
AcDb2dVertex
 10
52.59035663863418
 20
25.31888017797693
 30
0.0
  0
VERTEX
  5
208
330
196
100
AcDbEntity
  8
DEFAULT
100
AcDbVertex
100
AcDb2dVertex
 10
52.75079150272377
 20
25.43196695556644
 30
0.0
  0
VERTEX
  5
209
330
196
100
AcDbEntity
  8
DEFAULT
100
AcDbVertex
100
AcDb2dVertex
 10
52.91019001969009
 20
25.54870654631879
 30
0.0
  0
VERTEX
  5
20A
330
196
100
AcDbEntity
  8
DEFAULT
100
AcDbVertex
100
AcDb2dVertex
 10
53.06852713594495
 20
25.66913228239916
 30
0.0
  0
VERTEX
  5
20B
330
196
100
AcDbEntity
  8
DEFAULT
100
AcDbVertex
100
AcDb2dVertex
 10
53.22577779790011
 20
25.79327749597275
 30
0.0
  0
VERTEX
  5
20C
330
196
100
AcDbEntity
  8
DEFAULT
100
AcDbVertex
100
AcDb2dVertex
 10
53.38191695196735
 20
25.92117551920477
 30
0.0
  0
VERTEX
  5
20D
330
196
100
AcDbEntity
  8
DEFAULT
100
AcDbVertex
100
AcDb2dVertex
 10
53.53691954455844
 20
26.0528596842604
 30
0.0
  0
VERTEX
  5
20E
330
196
100
AcDbEntity
  8
DEFAULT
100
AcDbVertex
100
AcDb2dVertex
 10
53.69076052208518
 20
26.18836332330486
 30
0.0
  0
VERTEX
  5
20F
330
196
100
AcDbEntity
  8
DEFAULT
100
AcDbVertex
100
AcDb2dVertex
 10
53.84341483095933
 20
26.32771976850335
 30
0.0
  0
VERTEX
  5
210
330
196
100
AcDbEntity
  8
DEFAULT
100
AcDbVertex
100
AcDb2dVertex
 10
53.99485741759268
 20
26.47096235202106
 30
0.0
  0
VERTEX
  5
211
330
196
100
AcDbEntity
  8
DEFAULT
100
AcDbVertex
100
AcDb2dVertex
 10
54.14506322839699
 20
26.61812440602319
 30
0.0
  0
VERTEX
  5
212
330
196
100
AcDbEntity
  8
DEFAULT
100
AcDbVertex
100
AcDb2dVertex
 10
54.44166430816564
 20
26.92434025414153
 30
0.0
  0
VERTEX
  5
213
330
196
100
AcDbEntity
  8
DEFAULT
100
AcDbVertex
100
AcDb2dVertex
 10
54.73301764155951
 20
27.24663397017997
 30
0.0
  0
VERTEX
  5
214
330
196
100
AcDbEntity
  8
DEFAULT
100
AcDbVertex
100
AcDb2dVertex
 10
55.0189227998728
 20
27.58527221146011
 30
0.0
  0
VERTEX
  5
215
330
196
100
AcDbEntity
  8
DEFAULT
100
AcDbVertex
100
AcDb2dVertex
 10
55.29917935439975
 20
27.94052163530355
 30
0.0
  0
VERTEX
  5
216
330
196
100
AcDbEntity
  8
DEFAULT
100
AcDbVertex
100
AcDb2dVertex
 10
55.57358687643458
 20
28.3126488990319
 30
0.0
  0
VERTEX
  5
217
330
196
100
AcDbEntity
  8
DEFAULT
100
AcDbVertex
100
AcDb2dVertex
 10
55.84194493727151
 20
28.70192065996676
 30
0.0
  0
VERTEX
  5
218
330
196
100
AcDbEntity
  8
DEFAULT
100
AcDbVertex
100
AcDb2dVertex
 10
56.10405310820474
 20
29.10860357542973
 30
0.0
  0
VERTEX
  5
219
330
196
100
AcDbEntity
  8
DEFAULT
100
AcDbVertex
100
AcDb2dVertex
 10
56.35971096052852
 20
29.5329643027424
 30
0.0
  0
VERTEX
  5
21A
330
196
100
AcDbEntity
  8
DEFAULT
100
AcDbVertex
100
AcDb2dVertex
 10
56.60871806553705
 20
29.97526949922638
 30
0.0
  0
VERTEX
  5
21B
330
196
100
AcDbEntity
  8
DEFAULT
100
AcDbVertex
100
AcDb2dVertex
 10
56.85087399452456
 20
30.43578582220328
 30
0.0
  0
VERTEX
  5
21C
330
196
100
AcDbEntity
  8
DEFAULT
100
AcDbVertex
100
AcDb2dVertex
 10
57.08597831878528
 20
30.91477992899468
 30
0.0
  0
VERTEX
  5
21D
330
196
100
AcDbEntity
  8
DEFAULT
100
AcDbVertex
100
AcDb2dVertex
 10
57.31383060961342
 20
31.41251847692221
 30
0.0
  0
VERTEX
  5
21E
330
196
100
AcDbEntity
  8
DEFAULT
100
AcDbVertex
100
AcDb2dVertex
 10
57.5342304383032
 20
31.92926812330746
 30
0.0
  0
VERTEX
  5
21F
330
196
100
AcDbEntity
  8
DEFAULT
100
AcDbVertex
100
AcDb2dVertex
 10
57.74697737614883
 20
32.46529552547202
 30
0.0
  0
VERTEX
  5
220
330
196
100
AcDbEntity
  8
DEFAULT
100
AcDbVertex
100
AcDb2dVertex
 10
57.95187099444456
 20
33.0208673407375
 30
0.0
  0
VERTEX
  5
221
330
196
100
AcDbEntity
  8
DEFAULT
100
AcDbVertex
100
AcDb2dVertex
 10
58.14871086448459
 20
33.5962502264255
 30
0.0
  0
SEQEND
  5
222
330
196
100
AcDbEntity
  8
DEFAULT
  0
LINE
  5
223
330
1F
100
AcDbEntity
  8
DEFAULT
100
AcDbLine
 10
20.94849613278888
 20
5.708398819454509
 30
0.0
 11
31.56877300619261
 21
10.69992894995426
 31
0.0
  0
CIRCLE
  5
224
330
1F
100
AcDbEntity
  8
DEFAULT
100
AcDbCircle
 10
-14.31082308691153
 20
8.735177728374573
 30
0.0
 40
7.965207655052801
  0
ENDSEC
  0
SECTION
  2
OBJECTS
  0
DICTIONARY
  5
C
330
0
100
AcDbDictionary
  3
ACAD_GROUP
350
D
  3
ACAD_LAYOUT
350
1A
  3
ACAD_MATERIAL
350
43
  3
ACAD_MLEADERSTYLE
350
5B
  3
ACAD_MLINESTYLE
350
17
  3
ACAD_PLOTSETTINGS
350
19
  3
ACAD_SCALELIST
350
47
  3
ACAD_VISUALSTYLE
350
2A
  3
ACDBHEADERROUNDTRIPXREC
350
225
  3
ACDBVARIABLEDICTIONARY
350
246
  3
DWGPROPS
350
24D
  0
DICTIONARY
  5
24E
330
8
100
AcDbDictionary
280
     1
  3
ACAD_XREC_ROUNDTRIP
360
24F
  0
DICTIONARY
  5
D
102
{ACAD_REACTORS
330
C
102
}
330
C
100
AcDbDictionary
  0
DICTIONARY
  5
1A
102
{ACAD_REACTORS
330
C
102
}
330
C
100
AcDbDictionary
  0
DICTIONARY
  5
43
102
{ACAD_REACTORS
330
C
102
}
330
C
100
AcDbDictionary
  3
BYBLOCK
350
45
  3
BYLAYER
350
44
  3
GLOBAL
350
46
  0
DICTIONARY
  5
5B
102
{ACAD_REACTORS
330
C
102
}
330
C
100
AcDbDictionary
  3
STANDARD
350
5C
  0
DICTIONARY
  5
17
102
{ACAD_REACTORS
330
C
102
}
330
C
100
AcDbDictionary
  3
STANDARD
350
18
  0
DICTIONARY
  5
19
102
{ACAD_REACTORS
330
C
102
}
330
C
100
AcDbDictionary
  0
DICTIONARY
  5
47
102
{ACAD_REACTORS
330
C
102
}
330
C
100
AcDbDictionary
  3
A0
350
48
  3
A1
350
49
  3
A2
350
4A
  3
A3
350
4B
  3
A4
350
4C
  3
A5
350
4D
  3
A6
350
4E
  3
A7
350
4F
  3
A8
350
50
  3
A9
350
51
  3
B1
350
52
  3
B2
350
53
  3
B3
350
54
  3
B4
350
55
  3
B5
350
56
  3
B6
350
57
  3
B7
350
58
  0
DICTIONARY
  5
2A
102
{ACAD_REACTORS
330
C
102
}
330
C
100
AcDbDictionary
  3
2DWIREFRAME
350
2F
  3
BASIC
350
32
  3
BRIGHTEN
350
36
  3
COLORCHANGE
350
3A
  3
CONCEPTUAL
350
34
  3
DIM
350
35
  3
EDGECOLOROFF
350
3D
  3
FACEPATTERN
350
39
  3
FLAT
350
2B
  3
FLATWITHEDGES
350
2C
  3
GOURAUD
350
2D
  3
GOURAUDWITHEDGES
350
2E
  3
HIDDEN
350
31
  3
JITTEROFF
350
3B
  3
LINEPATTERN
350
38
  3
OVERHANGOFF
350
3C
  3
REALISTIC
350
33
  3
SHADED
350
42
  3
SHADED_WITH_EDGES
350
41
  3
SHADES_OF_GRAY
350
3E
  3
SKETCHY
350
3F
  3
THICKEN
350
37
  3
WIREFRAME
350
30
  3
X-RAY
350
40
  0
DICTIONARY
  5
225
102
{ACAD_REACTORS
330
C
102
}
330
C
100
AcDbDictionary
  3
CEPSNID
350
22F
  3
CEPSNTYPE
350
22E
  3
DIMSTYLEDATA
350
245
  3
FINGERPRINTGUID
350
230
  3
HYPERLINKBASE
350
228
  3
INSUNITS
350
22D
  3
LAYOUTDICT
350
22A
  3
LWETCUNION
350
22C
  3
PLOTSETDICT
350
22B
  3
PSVPSCALE
350
232
  3
PUCSBASE
350
235
  3
PUCSORGBACK
350
23B
  3
PUCSORGBOTTOM
350
237
  3
PUCSORGFRONT
350
23A
  3
PUCSORGLEFT
350
238
  3
PUCSORGRIGHT
350
239
  3
PUCSORGTOP
350
236
  3
PUCSORTHOREF
350
233
  3
PUCSORTHOVIEW
350
234
  3
STYLESHEET
350
229
  3
TSTACKALIGN
350
226
  3
TSTACKSIZE
350
227
  3
UCSBASE
350
23E
  3
UCSORGBACK
350
244
  3
UCSORGBOTTOM
350
240
  3
UCSORGFRONT
350
243
  3
UCSORGLEFT
350
241
  3
UCSORGRIGHT
350
242
  3
UCSORGTOP
350
23F
  3
UCSORTHOREF
350
23C
  3
UCSORTHOVIEW
350
23D
  3
VERSIONGUID
350
231
  0
DICTIONARY
  5
246
102
{ACAD_REACTORS
330
C
102
}
330
C
100
AcDbDictionary
  3
CANNOSCALE
350
250
  3
CMLEADERSTYLE
350
248
  3
CTABLESTYLE
350
247
  3
DIMASSOC
350
24B
  3
HIDETEXT
350
24C
  3
MSLTSCALE
350
251
  0
XRECORD
  5
24D
102
{ACAD_REACTORS
330
C
102
}
330
C
100
AcDbXrecord
  1
DWGPROPS COOKIE
  2

  3

  4

  6

  7

  8
ClaTschenett
  9

300
=
301
=
302
=
303
=
304
=
305
=
306
=
307
=
308
=
309
=
 40
0.0
 41
2460076.357361088
 42
2460076.357390602
  1

 90
        0
  0
XRECORD
  5
24F
102
{ACAD_REACTORS
330
24E
102
}
330
24E
100
AcDbXrecord
102
VTR_0.000_0.000_1.000_1.000_VISUALSTYLE
340
2F
102
VTR_0.000_0.000_1.000_1.000_GRIDDISPLAY
 70
     3
102
VTR_0.000_0.000_1.000_1.000_GRIDMAJOR
 70
     5
102
VTR_0.000_0.000_1.000_1.000_DEFAULTLIGHTING
280
     1
102
VTR_0.000_0.000_1.000_1.000_DEFAULTLIGHTINGTYPE
 70
     1
102
VTR_0.000_0.000_1.000_1.000_BRIGHTNESS
141
0.0
102
VTR_0.000_0.000_1.000_1.000_CONTRAST
142
0.0
  0
MATERIAL
  5
45
102
{ACAD_REACTORS
330
43
102
}
102
{ACAD_XDICTIONARY
360
254
102
}
330
43
100
AcDbMaterial
  1
BYBLOCK
  0
MATERIAL
  5
44
102
{ACAD_REACTORS
330
43
102
}
102
{ACAD_XDICTIONARY
360
252
102
}
330
43
100
AcDbMaterial
  1
BYLAYER
  0
MATERIAL
  5
46
102
{ACAD_REACTORS
330
43
102
}
102
{ACAD_XDICTIONARY
360
256
102
}
330
43
100
AcDbMaterial
  1
GLOBAL
  0
ACAD_PROXY_OBJECT
  5
5C
102
{ACAD_REACTORS
330
5B
102
}
330
5B
100
AcDbProxyObject
 90
      499
 91
      505
 93
      610
310
40901902A4063FBFFFFFE056BD1B81E855B9FC0AD7A3703D0AD73F4214DD185B99185C9900AD7A3703D0AC73F90141901A02B5E8DC0F42B1CFC02B5E8DC0F42B1CFE5764000000000000300FC0
340
14
340
0
340
11
340
0
 94
        0
1001
ACAD_MLEADERVER
1070
     2
  0
MLINESTYLE
  5
18
102
{ACAD_REACTORS
330
17
102
}
330
17
100
AcDbMlineStyle
  2
Standard
 70
     0
  3

 62
   256
 51
90.0
 52
90.0
 71
     2
 49
0.5
 62
   256
  6
BYLAYER
 49
-0.5
 62
   256
  6
BYLAYER
  0
ACAD_PROXY_OBJECT
  5
48
102
{ACAD_REACTORS
330
47
102
}
330
47
100
AcDbProxyObject
 90
      499
 91
      503
 93
       41
310
903313A31580
  0
ACAD_PROXY_OBJECT
  5
49
102
{ACAD_REACTORS
330
47
102
}
330
47
100
AcDbProxyObject
 90
      499
 91
      503
 93
      257
310
90E312F31323822203D2031272D3022000000000000200FC000000000000284000
  0
ACAD_PROXY_OBJECT
  5
4A
102
{ACAD_REACTORS
330
47
102
}
330
47
100
AcDbProxyObject
 90
      499
 91
      503
 93
      249
310
90D312F363422203D2031272D3022000000000000240FC000000000000284000
  0
ACAD_PROXY_OBJECT
  5
4B
102
{ACAD_REACTORS
330
47
102
}
330
47
100
AcDbProxyObject
 90
      499
 91
      503
 93
      249
310
90D312F333222203D2031272D3022000000000000280FC000000000000284000
  0
ACAD_PROXY_OBJECT
  5
4C
102
{ACAD_REACTORS
330
47
102
}
330
47
100
AcDbProxyObject
 90
      499
 91
      503
 93
      249
310
90D312F313622203D2031272D30220000000000002C0FC000000000000284000
  0
ACAD_PROXY_OBJECT
  5
4D
102
{ACAD_REACTORS
330
47
102
}
330
47
100
AcDbProxyObject
 90
      499
 91
      503
 93
      249
310
90D332F333222203D2031272D30220000000000002E0FC000000000000284000
  0
ACAD_PROXY_OBJECT
  5
4E
102
{ACAD_REACTORS
330
47
102
}
330
47
100
AcDbProxyObject
 90
      499
 91
      503
 93
      241
310
90C312F3822203D2031272D3022000000000000300FC000000000000284000
  0
ACAD_PROXY_OBJECT
  5
4F
102
{ACAD_REACTORS
330
47
102
}
330
47
100
AcDbProxyObject
 90
      499
 91
      503
 93
      249
310
90D332F313622203D2031272D3022000000000000320FC000000000000284000
  0
ACAD_PROXY_OBJECT
  5
50
102
{ACAD_REACTORS
330
47
102
}
330
47
100
AcDbProxyObject
 90
      499
 91
      503
 93
      241
310
90C312F3422203D2031272D3022000000000000340FC000000000000284000
  0
ACAD_PROXY_OBJECT
  5
51
102
{ACAD_REACTORS
330
47
102
}
330
47
100
AcDbProxyObject
 90
      499
 91
      503
 93
      241
310
90C332F3822203D2031272D3022000000000000360FC000000000000284000
  0
ACAD_PROXY_OBJECT
  5
52
102
{ACAD_REACTORS
330
47
102
}
330
47
100
AcDbProxyObject
 90
      499
 91
      503
 93
      241
310
90C312F3222203D2031272D3022000000000000380FC000000000000284000
  0
ACAD_PROXY_OBJECT
  5
53
102
{ACAD_REACTORS
330
47
102
}
330
47
100
AcDbProxyObject
 90
      499
 91
      503
 93
      241
310
90C332F3422203D2031272D30220000000000003A0FC000000000000284000
  0
ACAD_PROXY_OBJECT
  5
54
102
{ACAD_REACTORS
330
47
102
}
330
47
100
AcDbProxyObject
 90
      499
 91
      503
 93
      161
310
90A3122203D2031272D30224000000000000284000
  0
ACAD_PROXY_OBJECT
  5
55
102
{ACAD_REACTORS
330
47
102
}
330
47
100
AcDbProxyObject
 90
      499
 91
      503
 93
      257
310
90E312D312F3222203D2031272D30220000000000003E0FC000000000000284000
  0
ACAD_PROXY_OBJECT
  5
56
102
{ACAD_REACTORS
330
47
102
}
330
47
100
AcDbProxyObject
 90
      499
 91
      503
 93
      225
310
90A3322203D2031272D302200000000000002100000000000000284000
  0
ACAD_PROXY_OBJECT
  5
57
102
{ACAD_REACTORS
330
47
102
}
330
47
100
AcDbProxyObject
 90
      499
 91
      503
 93
      225
310
90A3622203D2031272D302200000000000006100000000000000284000
  0
ACAD_PROXY_OBJECT
  5
58
102
{ACAD_REACTORS
330
47
102
}
330
47
100
AcDbProxyObject
 90
      499
 91
      503
 93
      249
310
90D31272D3022203D2031272D30220000000000000A100000000000000284000
  0
ACAD_PROXY_OBJECT
  5
2F
102
{ACAD_REACTORS
330
2A
102
}
330
2A
100
AcDbProxyObject
 90
      499
 91
      501
 93
      436
310
42CC9915DA5C99599C985B595049028333333333333E33F0000000000000F90107901411070040501600405405064090741402480A0340
1001
ACAD
1000
AcDbSavedByObjectVersion
1070
     0
  0
ACAD_PROXY_OBJECT
  5
32
102
{ACAD_REACTORS
330
2A
102
}
330
2A
100
AcDbProxyObject
 90
      499
 91
      501
 93
      388
310
4150985CDA58D07406404333333333333E33F0000000000000F90107A41107004050150841D405064090741402480A0350
1001
ACAD
1000
AcDbSavedByObjectVersion
1070
     0
  0
ACAD_PROXY_OBJECT
  5
36
102
{ACAD_REACTORS
330
2A
102
}
330
2A
100
AcDbProxyObject
 90
      499
 91
      501
 93
      428
310
42109C9A59DA1D195B90C409028333333333333E33F0000000000000F9010790141107004050150841D405064090741402480A029950
1001
ACAD
1000
AcDbSavedByObjectVersion
1070
     0
  0
ACAD_PROXY_OBJECT
  5
3A
102
{ACAD_REACTORS
330
2A
102
}
330
2A
100
AcDbProxyObject
 90
      499
 91
      501
 93
      452
310
42D0DBDB1BDC90DA185B99D95104090240C333333333333E33F0000000000000F90108901411070040501508421405064090741402480A0350
1001
ACAD
1000
AcDbSavedByObjectVersion
1070
     0
  0
ACAD_PROXY_OBJECT
  5
34
102
{ACAD_REACTORS
330
2A
102
}
330
2A
100
AcDbProxyObject
 90
      499
 91
      501
 93
      500
310
4290DBDB98D95C1D1D585B10940D028333333333333E33F0000000000000F90107902409070040501000000000018199010841D405064090740C02480A0340
1001
ACAD
1000
AcDbSavedByObjectVersion
1070
     0
  0
ACAD_PROXY_OBJECT
  5
35
102
{ACAD_REACTORS
330
2A
102
}
330
2A
100
AcDbProxyObject
 90
      499
 91
      501
 93
      412
310
40D11A5B50B409028333333333333E33F0000000000000F9010790141107004050150841D405064090741402480A02677FFFFFD0
1001
ACAD
1000
AcDbSavedByObjectVersion
1070
     0
  0
ACAD_PROXY_OBJECT
  5
3D
102
{ACAD_REACTORS
330
2A
102
}
330
2A
100
AcDbProxyObject
 90
      499
 91
      501
 93
      452
310
43115919D950DBDB1BDC93D999916409028333333333333E33F0000000000000F9010790141107004050150841D405064090741402480A0350
1001
ACAD
1000
AcDbSavedByObjectVersion
1070
     0
  0
ACAD_PROXY_OBJECT
  5
39
102
{ACAD_REACTORS
330
2A
102
}
330
2A
100
AcDbProxyObject
 90
      499
 91
      501
 93
      444
310
42D19858D95C185D1D195C9B90F409028333333333333E33F0000000000000F9010790141107004050150841D405064090741402480A0350
1001
ACAD
1000
AcDbSavedByObjectVersion
1070
     0
  0
ACAD_PROXY_OBJECT
  5
2B
102
{ACAD_REACTORS
330
2A
102
}
330
2A
100
AcDbProxyObject
 90
      499
 91
      501
 93
      380
310
41119B185D240901404333333333333E33F0000000000000F9010740A907004050150841D405064090741402480A1B50
1001
ACAD
1000
AcDbSavedByObjectVersion
1070
     0
  0
ACAD_PROXY_OBJECT
  5
2C
102
{ACAD_REACTORS
330
2A
102
}
330
2A
100
AcDbProxyObject
 90
      499
 91
      501
 93
      468
310
43519B185D15DA5D1A115919D95CD0140901404333333333333E33F0000000000000F90107409019070040501600405405064090741402480A1B50
1001
ACAD
1000
AcDbSavedByObjectVersion
1070
     0
  0
ACAD_PROXY_OBJECT
  5
2D
102
{ACAD_REACTORS
330
2A
102
}
330
2A
100
AcDbProxyObject
 90
      499
 91
      501
 93
      404
310
41D1DBDD5C985D5910240902404333333333333E33F0000000000000F9010740A9070040501641D405064090741402480A1B50
1001
ACAD
1000
AcDbSavedByObjectVersion
1070
     0
  0
ACAD_PROXY_OBJECT
  5
2E
102
{ACAD_REACTORS
330
2A
102
}
330
2A
100
AcDbProxyObject
 90
      499
 91
      501
 93
      492
310
4411DBDD5C985D5915DA5D1A115919D95CD0340902404333333333333E33F0000000000000F90107409019070040501600405405064090741402480A1B50
1001
ACAD
1000
AcDbSavedByObjectVersion
1070
     0
  0
ACAD_PROXY_OBJECT
  5
31
102
{ACAD_REACTORS
330
2A
102
}
330
2A
100
AcDbProxyObject
 90
      499
 91
      501
 93
      476
310
41921A5919195B90640502408333333333333E33F0000000000000F901079024090700405020000000000001110200405405064090740C02480A0340
1001
ACAD
1000
AcDbSavedByObjectVersion
1070
     0
  0
ACAD_PROXY_OBJECT
  5
3B
102
{ACAD_REACTORS
330
2A
102
}
330
2A
100
AcDbProxyObject
 90
      499
 91
      501
 93
      428
310
42529A5D1D195C93D999914409028333333333333E33F0000000000000F9010790141107004050150A41D405064090741402480A0350
1001
ACAD
1000
AcDbSavedByObjectVersion
1070
     0
  0
ACAD_PROXY_OBJECT
  5
38
102
{ACAD_REACTORS
330
2A
102
}
330
2A
100
AcDbProxyObject
 90
      499
 91
      501
 93
      444
310
42D31A5B995C185D1D195C9B90E409028333333333333E33F0000000000000F9010790141107004050750841D405064090741402483A0350
1001
ACAD
1000
AcDbSavedByObjectVersion
1070
     0
  0
ACAD_PROXY_OBJECT
  5
3C
102
{ACAD_REACTORS
330
2A
102
}
330
2A
100
AcDbProxyObject
 90
      499
 91
      501
 93
      444
310
42D3DD995C9A185B99D3D999915409028333333333333E33F0000000000000F9010790141107004050150941D405064090741402480A0350
1001
ACAD
1000
AcDbSavedByObjectVersion
1070
     0
  0
ACAD_PROXY_OBJECT
  5
33
102
{ACAD_REACTORS
330
2A
102
}
330
2A
100
AcDbProxyObject
 90
      499
 91
      501
 93
      428
310
425499585B1A5CDD1A58D08409038333333333333E33F0000000000000F9010740A907004050150800405405064090740C02480A1B40
1001
ACAD
1000
AcDbSavedByObjectVersion
1070
     0
  0
ACAD_PROXY_OBJECT
  5
42
102
{ACAD_REACTORS
330
2A
102
}
330
2A
100
AcDbProxyObject
 90
      499
 91
      501
 93
      420
310
4194DA1859195911B40902404333333333333E33F0000000000000F9010740A41107004050150800405405064090840C02480A0B40
1001
ACAD
1000
AcDbSavedByObjectVersion
1070
     0
  0
ACAD_PROXY_OBJECT
  5
41
102
{ACAD_REACTORS
330
2A
102
}
330
2A
100
AcDbProxyObject
 90
      499
 91
      501
 93
      516
310
4454DA18591959081DDA5D1A08195919D95CD1A40902404333333333333E33F0000000000000F901074090142907004050250800405405064090740C02480A0B40
1001
ACAD
1000
AcDbSavedByObjectVersion
1070
     0
  0
ACAD_PROXY_OBJECT
  5
3E
102
{ACAD_REACTORS
330
2A
102
}
330
2A
100
AcDbProxyObject
 90
      499
 91
      501
 93
      532
310
4394DA1859195CC81BD98811DC985E5174090240C333333333333E33F0000000000000F901079024090741D01000000000000111010841D405064090740C02480A0340
1001
ACAD
1000
AcDbSavedByObjectVersion
1070
     0
  0
ACAD_PROXY_OBJECT
  5
3F
102
{ACAD_REACTORS
330
2A
102
}
330
2A
100
AcDbProxyObject
 90
      499
 91
      501
 93
      476
310
41D4DAD95D18DA1E51840502408333333333333E33F0000000000000F901079024090741D01000000000000111010B41D405064090741802480A0340
1001
ACAD
1000
AcDbSavedByObjectVersion
1070
     0
  0
ACAD_PROXY_OBJECT
  5
37
102
{ACAD_REACTORS
330
2A
102
}
330
2A
100
AcDbProxyObject
 90
      499
 91
      501
 93
      412
310
41D51A1A58DAD95B90D409028333333333333E33F0000000000000F9010790141107004050150C41D405064090741402480A0350
1001
ACAD
1000
AcDbSavedByObjectVersion
1070
     0
  0
ACAD_PROXY_OBJECT
  5
30
102
{ACAD_REACTORS
330
2A
102
}
330
2A
100
AcDbProxyObject
 90
      499
 91
      501
 93
      420
310
4255DA5C99599C985B595059028333333333333E33F0000000000000F90107901411070040501600405405064090740C02480A0340
1001
ACAD
1000
AcDbSavedByObjectVersion
1070
     0
  0
ACAD_PROXY_OBJECT
  5
40
102
{ACAD_REACTORS
330
2A
102
}
330
2A
100
AcDbProxyObject
 90
      499
 91
      501
 93
      404
310
41560B54985E51940902404000000000000E03F0000000000000F9010740501907004050150841D405064090740C02480A1B40
1001
ACAD
1000
AcDbSavedByObjectVersion
1070
     0
  0
XRECORD
  5
22F
102
{ACAD_REACTORS
330
225
102
}
330
225
100
AcDbXrecord
340
0
  0
XRECORD
  5
22E
102
{ACAD_REACTORS
330
225
102
}
330
225
100
AcDbXrecord
 90
        0
  0
XRECORD
  5
245
102
{ACAD_REACTORS
330
225
102
}
330
225
100
AcDbXrecord
1000
DSTYLE
1002
{
1070
   171
 70
     2
1070
   143
 40
25.4
1070
   274
 70
     2
1070
    41
 40
0.18
1070
   141
 40
0.09
1070
   271
 70
     4
1070
    43
 40
0.38
1070
   278
 70
    46
1070
    44
 40
0.18
1070
    42
 40
0.0625
1070
   147
 40
0.09
1070
    77
 70
     0
1070
   272
 70
     4
1070
    73
 70
     1
1070
   279
 70
     2
1070
   172
 70
     0
1070
    74
 70
     1
1070
   283
 70
     1
1070
   340
340
11
1070
   140
 40
0.18
1070
   284
 70
     0
1070
    78
 70
     0
1002
}
  0
XRECORD
  5
230
102
{ACAD_REACTORS
330
225
102
}
330
225
100
AcDbXrecord
  1
{87af6e79-3c4e-4958-858e-4353f88f6198}
  0
XRECORD
  5
228
102
{ACAD_REACTORS
330
225
102
}
330
225
100
AcDbXrecord
  1

  0
XRECORD
  5
22D
102
{ACAD_REACTORS
330
225
102
}
330
225
100
AcDbXrecord
 90
        4
  0
XRECORD
  5
22A
102
{ACAD_REACTORS
330
225
102
}
330
225
100
AcDbXrecord
340
1A
  0
XRECORD
  5
22C
102
{ACAD_REACTORS
330
225
102
}
330
225
100
AcDbXrecord
 90
    10781
  0
XRECORD
  5
22B
102
{ACAD_REACTORS
330
225
102
}
330
225
100
AcDbXrecord
340
19
  0
XRECORD
  5
232
102
{ACAD_REACTORS
330
225
102
}
330
225
100
AcDbXrecord
 40
0.0
  0
XRECORD
  5
235
102
{ACAD_REACTORS
330
225
102
}
330
225
100
AcDbXrecord
340
0
  0
XRECORD
  5
23B
102
{ACAD_REACTORS
330
225
102
}
330
225
100
AcDbXrecord
 10
0.0
 20
0.0
 30
0.0
  0
XRECORD
  5
237
102
{ACAD_REACTORS
330
225
102
}
330
225
100
AcDbXrecord
 10
0.0
 20
0.0
 30
0.0
  0
XRECORD
  5
23A
102
{ACAD_REACTORS
330
225
102
}
330
225
100
AcDbXrecord
 10
0.0
 20
0.0
 30
0.0
  0
XRECORD
  5
238
102
{ACAD_REACTORS
330
225
102
}
330
225
100
AcDbXrecord
 10
0.0
 20
0.0
 30
0.0
  0
XRECORD
  5
239
102
{ACAD_REACTORS
330
225
102
}
330
225
100
AcDbXrecord
 10
0.0
 20
0.0
 30
0.0
  0
XRECORD
  5
236
102
{ACAD_REACTORS
330
225
102
}
330
225
100
AcDbXrecord
 10
0.0
 20
0.0
 30
0.0
  0
XRECORD
  5
233
102
{ACAD_REACTORS
330
225
102
}
330
225
100
AcDbXrecord
340
0
  0
XRECORD
  5
234
102
{ACAD_REACTORS
330
225
102
}
330
225
100
AcDbXrecord
 70
     0
  0
XRECORD
  5
229
102
{ACAD_REACTORS
330
225
102
}
330
225
100
AcDbXrecord
  1

  0
XRECORD
  5
226
102
{ACAD_REACTORS
330
225
102
}
330
225
100
AcDbXrecord
 90
        1
  0
XRECORD
  5
227
102
{ACAD_REACTORS
330
225
102
}
330
225
100
AcDbXrecord
 90
       70
  0
XRECORD
  5
23E
102
{ACAD_REACTORS
330
225
102
}
330
225
100
AcDbXrecord
340
0
  0
XRECORD
  5
244
102
{ACAD_REACTORS
330
225
102
}
330
225
100
AcDbXrecord
 10
0.0
 20
0.0
 30
0.0
  0
XRECORD
  5
240
102
{ACAD_REACTORS
330
225
102
}
330
225
100
AcDbXrecord
 10
0.0
 20
0.0
 30
0.0
  0
XRECORD
  5
243
102
{ACAD_REACTORS
330
225
102
}
330
225
100
AcDbXrecord
 10
0.0
 20
0.0
 30
0.0
  0
XRECORD
  5
241
102
{ACAD_REACTORS
330
225
102
}
330
225
100
AcDbXrecord
 10
0.0
 20
0.0
 30
0.0
  0
XRECORD
  5
242
102
{ACAD_REACTORS
330
225
102
}
330
225
100
AcDbXrecord
 10
0.0
 20
0.0
 30
0.0
  0
XRECORD
  5
23F
102
{ACAD_REACTORS
330
225
102
}
330
225
100
AcDbXrecord
 10
0.0
 20
0.0
 30
0.0
  0
XRECORD
  5
23C
102
{ACAD_REACTORS
330
225
102
}
330
225
100
AcDbXrecord
340
0
  0
XRECORD
  5
23D
102
{ACAD_REACTORS
330
225
102
}
330
225
100
AcDbXrecord
 70
     0
  0
XRECORD
  5
231
102
{ACAD_REACTORS
330
225
102
}
330
225
100
AcDbXrecord
  1
{FAEB1C32-E019-11D5-929B-00C0DF256EC4}
  0
DICTIONARYVAR
  5
250
102
{ACAD_REACTORS
330
246
102
}
330
246
100
DictionaryVariables
280
     0
  1
1:1
  0
DICTIONARYVAR
  5
248
102
{ACAD_REACTORS
330
246
102
}
330
246
100
DictionaryVariables
280
     0
  1
Standard
  0
DICTIONARYVAR
  5
247
102
{ACAD_REACTORS
330
246
102
}
330
246
100
DictionaryVariables
280
     0
  1
Standard
  0
DICTIONARYVAR
  5
24B
102
{ACAD_REACTORS
330
246
102
}
330
246
100
DictionaryVariables
280
     0
  1
2
  0
DICTIONARYVAR
  5
24C
102
{ACAD_REACTORS
330
246
102
}
330
246
100
DictionaryVariables
280
     0
  1
1
  0
DICTIONARYVAR
  5
251
102
{ACAD_REACTORS
330
246
102
}
330
246
100
DictionaryVariables
280
     0
  1
1
  0
DICTIONARY
  5
254
330
45
100
AcDbDictionary
280
     1
  3
ACAD_XREC_ROUNDTRIP
360
255
  0
DICTIONARY
  5
252
330
44
100
AcDbDictionary
280
     1
  3
ACAD_XREC_ROUNDTRIP
360
253
  0
DICTIONARY
  5
256
330
46
100
AcDbDictionary
280
     1
  3
ACAD_XREC_ROUNDTRIP
360
257
  0
XRECORD
  5
255
102
{ACAD_REACTORS
330
254
102
}
330
254
100
AcDbXrecord
102
MATERIAL
148
0.0
149
0.0
149
0.0
 93
        0
 94
      127
282
     0
 72
     1
 77
     1
171
     1
175
     1
179
     1
273
     0
  0
XRECORD
  5
253
102
{ACAD_REACTORS
330
252
102
}
330
252
100
AcDbXrecord
102
MATERIAL
148
0.0
149
0.0
149
0.0
 93
        0
 94
      127
282
     0
 72
     1
 77
     1
171
     1
175
     1
179
     1
273
     0
  0
XRECORD
  5
257
102
{ACAD_REACTORS
330
256
102
}
330
256
100
AcDbXrecord
102
MATERIAL
148
0.0
149
0.0
149
0.0
 93
        0
 94
      127
282
     0
 72
     1
 77
     1
171
     1
175
     1
179
     1
273
     0
  0
ENDSEC
  0
EOF
