  0
SECTION
  2
HEADER
  9
$ACADVER
  1
AC1014
  9
$ACADMAINTVER
 70
     9
  9
$DWGCODEPAGE
  3
ANSI_1252
  9
$INSBASE
 10
0.0
 20
0.0
 30
0.0
  9
$EXTMIN
 10
0.0
 20
0.0
 30
0.0
  9
$EXTMAX
 10
40.0
 20
20.0
 30
0.0
  9
$LIMMIN
 10
0.0
 20
0.0
  9
$LIMMAX
 10
12.0
 20
9.0
  9
$ORTHOMODE
 70
     0
  9
$REGENMODE
 70
     1
  9
$FILLMODE
 70
     1
  9
$QTEXTMODE
 70
     0
  9
$MIRRTEXT
 70
     1
  9
$DRAGMODE
 70
     2
  9
$LTSCALE
 40
1.0
  9
$OSMODE
 70
    37
  9
$ATTMODE
 70
     1
  9
$TEXTSIZE
 40
0.2
  9
$TRACEWID
 40
0.05
  9
$TEXTSTYLE
  7
STANDARD
  9
$CLAYER
  8
DEFAULT
  9
$CELTYPE
  6
BYLAYER
  9
$CECOLOR
 62
   256
  9
$CELTSCALE
 40
1.0
  9
$DELOBJ
 70
     1
  9
$DISPSILH
 70
     0
  9
$DIMSCALE
 40
1.0
  9
$DIMASZ
 40
0.18
  9
$DIMEXO
 40
0.0625
  9
$DIMDLI
 40
0.38
  9
$DIMRND
 40
0.0
  9
$DIMDLE
 40
0.0
  9
$DIMEXE
 40
0.18
  9
$DIMTP
 40
0.0
  9
$DIMTM
 40
0.0
  9
$DIMTXT
 40
0.18
  9
$DIMCEN
 40
0.09
  9
$DIMTSZ
 40
0.0
  9
$DIMTOL
 70
     0
  9
$DIMLIM
 70
     0
  9
$DIMTIH
 70
     1
  9
$DIMTOH
 70
     1
  9
$DIMSE1
 70
     0
  9
$DIMSE2
 70
     0
  9
$DIMTAD
 70
     0
  9
$DIMZIN
 70
     0
  9
$DIMBLK
  1

  9
$DIMASO
 70
     1
  9
$DIMSHO
 70
     1
  9
$DIMPOST
  1

  9
$DIMAPOST
  1

  9
$DIMALT
 70
     0
  9
$DIMALTD
 70
     2
  9
$DIMALTF
 40
25.4
  9
$DIMLFAC
 40
1.0
  9
$DIMTOFL
 70
     0
  9
$DIMTVP
 40
0.0
  9
$DIMTIX
 70
     0
  9
$DIMSOXD
 70
     0
  9
$DIMSAH
 70
     0
  9
$DIMBLK1
  1

  9
$DIMBLK2
  1

  9
$DIMSTYLE
  2
STANDARD_ACAD
  9
$DIMCLRD
 70
     0
  9
$DIMCLRE
 70
     0
  9
$DIMCLRT
 70
     0
  9
$DIMTFAC
 40
1.0
  9
$DIMGAP
 40
0.09
  9
$DIMJUST
 70
     0
  9
$DIMSD1
 70
     0
  9
$DIMSD2
 70
     0
  9
$DIMTOLJ
 70
     1
  9
$DIMTZIN
 70
     0
  9
$DIMALTZ
 70
     0
  9
$DIMALTTZ
 70
     0
  9
$DIMFIT
 70
     5
  9
$DIMUPT
 70
     0
  9
$DIMUNIT
 70
     2
  9
$DIMDEC
 70
     4
  9
$DIMTDEC
 70
     4
  9
$DIMALTU
 70
     2
  9
$DIMALTTD
 70
     2
  9
$DIMTXSTY
  7
STANDARD
  9
$DIMAUNIT
 70
     0
  9
$LUNITS
 70
     2
  9
$LUPREC
 70
     3
  9
$SKETCHINC
 40
0.1
  9
$FILLETRAD
 40
0.0
  9
$AUNITS
 70
     0
  9
$AUPREC
 70
     0
  9
$MENU
  1
.
  9
$ELEVATION
 40
0.0
  9
$PELEVATION
 40
0.0
  9
$THICKNESS
 40
0.0
  9
$LIMCHECK
 70
     0
  9
$CHAMFERA
 40
0.0
  9
$CHAMFERB
 40
0.0
  9
$CHAMFERC
 40
0.0
  9
$CHAMFERD
 40
0.0
  9
$SKPOLY
 70
     0
  9
$TDCREATE
 40
2460133.585058125
  9
$TDUPDATE
 40
2460133.585151424
  9
$TDINDWG
 40
0.0000000116
  9
$TDUSRTIMER
 40
0.0000000116
  9
$USRTIMER
 70
     1
  9
$ANGBASE
 50
0.0
  9
$ANGDIR
 70
     0
  9
$PDMODE
 70
     0
  9
$PDSIZE
 40
0.0
  9
$PLINEWID
 40
0.0
  9
$COORDS
 70
     1
  9
$SPLFRAME
 70
     0
  9
$SPLINETYPE
 70
     6
  9
$SPLINESEGS
 70
     8
  9
$ATTDIA
 70
     0
  9
$ATTREQ
 70
     1
  9
$HANDLING
 70
     1
  9
$HANDSEED
  5
1A2
  9
$SURFTAB1
 70
     6
  9
$SURFTAB2
 70
     6
  9
$SURFTYPE
 70
     6
  9
$SURFU
 70
     6
  9
$SURFV
 70
     6
  9
$UCSNAME
  2

  9
$UCSORG
 10
0.0
 20
0.0
 30
0.0
  9
$UCSXDIR
 10
1.0
 20
0.0
 30
0.0
  9
$UCSYDIR
 10
0.0
 20
1.0
 30
0.0
  9
$PUCSNAME
  2

  9
$PUCSORG
 10
0.0
 20
0.0
 30
0.0
  9
$PUCSXDIR
 10
1.0
 20
0.0
 30
0.0
  9
$PUCSYDIR
 10
0.0
 20
1.0
 30
0.0
  9
$USERI1
 70
     0
  9
$USERI2
 70
     0
  9
$USERI3
 70
     0
  9
$USERI4
 70
     0
  9
$USERI5
 70
     0
  9
$USERR1
 40
0.0
  9
$USERR2
 40
0.0
  9
$USERR3
 40
0.0
  9
$USERR4
 40
0.0
  9
$USERR5
 40
0.0
  9
$WORLDVIEW
 70
     1
  9
$SHADEDGE
 70
     3
  9
$SHADEDIF
 70
    70
  9
$TILEMODE
 70
     1
  9
$MAXACTVP
 70
    64
  9
$PINSBASE
 10
0.0
 20
0.0
 30
0.0
  9
$PLIMCHECK
 70
     0
  9
$PEXTMIN
 10
1.000000000000000E+20
 20
1.000000000000000E+20
 30
1.000000000000000E+20
  9
$PEXTMAX
 10
-1.000000000000000E+20
 20
-1.000000000000000E+20
 30
-1.000000000000000E+20
  9
$PLIMMIN
 10
0.0
 20
0.0
  9
$PLIMMAX
 10
12.0
 20
9.0
  9
$UNITMODE
 70
     0
  9
$VISRETAIN
 70
     1
  9
$PLINEGEN
 70
     0
  9
$PSLTSCALE
 70
     1
  9
$TREEDEPTH
 70
  3020
  9
$PICKSTYLE
 70
     1
  9
$CMLSTYLE
  2
STANDARD
  9
$CMLJUST
 70
     0
  9
$CMLSCALE
 40
1.0
  9
$PROXYGRAPHICS
 70
     1
  9
$MEASUREMENT
 70
     1
  0
ENDSEC
  0
SECTION
  2
CLASSES
  0
CLASS
  1
ACDBDICTIONARYWDFLT
  2
AcDbDictionaryWithDefault
  3
ObjectDBX Classes
 90
        0
280
     0
281
     0
  0
CLASS
  1
VISUALSTYLE
  2
AcDbVisualStyle
  3
ObjectDBX Classes
 90
     4095
280
     0
281
     0
  0
CLASS
  1
MATERIAL
  2
AcDbMaterial
  3
ObjectDBX Classes
 90
     1153
280
     0
281
     0
  0
CLASS
  1
SCALE
  2
AcDbScale
  3
ObjectDBX Classes
 90
     1153
280
     0
281
     0
  0
CLASS
  1
TABLESTYLE
  2
AcDbTableStyle
  3
ObjectDBX Classes
 90
     4095
280
     0
281
     0
  0
CLASS
  1
MLEADERSTYLE
  2
AcDbMLeaderStyle
  3
ACDB_MLEADERSTYLE_CLASS
 90
     4095
280
     0
281
     0
  0
CLASS
  1
SUN
  2
AcDbSun
  3
SCENEOE
 90
     1153
280
     0
281
     0
  0
CLASS
  1
DICTIONARYVAR
  2
AcDbDictionaryVar
  3
ObjectDBX Classes
 90
        0
280
     0
281
     0
  0
CLASS
  1
XRECORD
  2
AcDbXrecord
  3
ObjectDBX Classes
 90
        0
280
     0
281
     0
  0
CLASS
  1
LWPOLYLINE
  2
AcDbPolyline
  3
ObjectDBX Classes
 90
        0
280
     0
281
     1
  0
CLASS
  1
HATCH
  2
AcDbHatch
  3
ObjectDBX Classes
 90
        0
280
     0
281
     1
  0
CLASS
  1
ACDBPLACEHOLDER
  2
AcDbPlaceHolder
  3
ObjectDBX Classes
 90
        0
280
     0
281
     0
  0
CLASS
  1
LAYOUT
  2
AcDbLayout
  3
ObjectDBX Classes
 90
        0
280
     0
281
     0
  0
ENDSEC
  0
SECTION
  2
TABLES
  0
TABLE
  2
VPORT
  5
8
102
{ACAD_XDICTIONARY
360
197
102
}
330
0
100
AcDbSymbolTable
 70
     1
  0
VPORT
  5
29
330
8
100
AcDbSymbolTableRecord
100
AcDbViewportTableRecord
  2
*ACTIVE
 70
     0
 10
0.0
 20
0.0
 11
1.0
 21
1.0
 12
10.42990654205607
 22
4.5
 13
0.0
 23
0.0
 14
0.5
 24
0.5
 15
0.5
 25
0.5
 16
0.0
 26
0.0
 36
1.0
 17
0.0
 27
0.0
 37
0.0
 40
9.0
 41
1.972972972850329
 42
50.0
 43
0.0
 44
0.0
 50
0.0
 51
0.0
 71
     0
 72
   100
 73
     1
 74
     3
 75
     0
 76
     0
 77
     0
 78
     0
  0
ENDTAB
  0
TABLE
  2
LTYPE
  5
5
330
0
100
AcDbSymbolTable
 70
     1
  0
LTYPE
  5
14
330
5
100
AcDbSymbolTableRecord
100
AcDbLinetypeTableRecord
  2
BYBLOCK
 70
     0
  3

 72
    65
 73
     0
 40
0.0
  0
LTYPE
  5
15
330
5
100
AcDbSymbolTableRecord
100
AcDbLinetypeTableRecord
  2
BYLAYER
 70
     0
  3

 72
    65
 73
     0
 40
0.0
  0
LTYPE
  5
16
330
5
100
AcDbSymbolTableRecord
100
AcDbLinetypeTableRecord
  2
CONTINUOUS
 70
     0
  3
Solid line
 72
    65
 73
     0
 40
0.0
  0
ENDTAB
  0
TABLE
  2
LAYER
  5
2
330
0
100
AcDbSymbolTable
 70
     2
  0
LAYER
  5
10
330
2
100
AcDbSymbolTableRecord
100
AcDbLayerTableRecord
  2
0
 70
     0
 62
     7
  6
CONTINUOUS
  0
LAYER
  5
5F
330
2
100
AcDbSymbolTableRecord
100
AcDbLayerTableRecord
  2
DEFAULT
 70
     0
 62
    18
  6
CONTINUOUS
  0
ENDTAB
  0
TABLE
  2
STYLE
  5
3
330
0
100
AcDbSymbolTable
 70
     1
  0
STYLE
  5
11
330
3
100
AcDbSymbolTableRecord
100
AcDbTextStyleTableRecord
  2
STANDARD
 70
     0
 40
0.0
 41
1.0
 50
0.0
 71
     0
 42
0.2
  3
txt
  4

  0
ENDTAB
  0
TABLE
  2
VIEW
  5
6
330
0
100
AcDbSymbolTable
 70
     0
  0
ENDTAB
  0
TABLE
  2
UCS
  5
7
330
0
100
AcDbSymbolTable
 70
     0
  0
ENDTAB
  0
TABLE
  2
APPID
  5
9
330
0
100
AcDbSymbolTable
 70
     3
  0
APPID
  5
12
330
9
100
AcDbSymbolTableRecord
100
AcDbRegAppTableRecord
  2
ACAD
 70
     0
  0
APPID
  5
5E
330
9
100
AcDbSymbolTableRecord
100
AcDbRegAppTableRecord
  2
RHINO
 70
     0
  0
APPID
  5
1A1
330
9
100
AcDbSymbolTableRecord
100
AcDbRegAppTableRecord
  2
ACAD_MLEADERVER
 70
     0
  0
ENDTAB
  0
TABLE
  2
DIMSTYLE
  5
A
330
0
100
AcDbSymbolTable
 70
     1
  0
DIMSTYLE
105
27
330
A
100
AcDbSymbolTableRecord
100
AcDbDimStyleTableRecord
  2
STANDARD_ACAD
 70
     0
  3

  4

  5

  6

  7

 40
1.0
 41
0.18
 42
0.0625
 43
0.38
 44
0.18
 45
0.0
 46
0.0
 47
0.0
 48
0.0
140
0.18
141
0.09
142
0.0
143
25.4
144
1.0
145
0.0
146
1.0
147
0.09
 71
     0
 72
     0
 73
     1
 74
     1
 75
     0
 76
     0
 77
     0
 78
     0
170
     0
171
     2
172
     0
173
     0
174
     0
175
     0
176
     0
177
     0
178
     0
270
     2
271
     4
272
     4
273
     2
274
     2
340
11
275
     0
280
     0
281
     0
282
     0
283
     1
284
     0
285
     0
286
     0
287
     3
288
     0
  0
ENDTAB
  0
TABLE
  2
BLOCK_RECORD
  5
1
330
0
100
AcDbSymbolTable
 70
     0
  0
BLOCK_RECORD
  5
1F
330
1
100
AcDbSymbolTableRecord
100
AcDbBlockTableRecord
  2
*MODEL_SPACE
  0
BLOCK_RECORD
  5
1B
330
1
100
AcDbSymbolTableRecord
100
AcDbBlockTableRecord
  2
*PAPER_SPACE
  0
ENDTAB
  0
ENDSEC
  0
SECTION
  2
BLOCKS
  0
BLOCK
  5
20
330
1F
100
AcDbEntity
  8
0
100
AcDbBlockBegin
  2
*MODEL_SPACE
 70
     0
 10
0.0
 20
0.0
 30
0.0
  3
*MODEL_SPACE
  1

  0
ENDBLK
  5
21
330
1F
100
AcDbEntity
  8
0
100
AcDbBlockEnd
  0
BLOCK
  5
1C
330
1B
100
AcDbEntity
 67
     1
  8
0
100
AcDbBlockBegin
  2
*PAPER_SPACE
 70
     0
 10
0.0
 20
0.0
 30
0.0
  3
*PAPER_SPACE
  1

  0
ENDBLK
  5
1D
330
1B
100
AcDbEntity
 67
     1
  8
0
100
AcDbBlockEnd
  0
ENDSEC
  0
SECTION
  2
ENTITIES
  0
POLYLINE
  5
60
330
1F
100
AcDbEntity
  8
DEFAULT
100
AcDb2dPolyline
 66
     1
 10
0.0
 20
0.0
 30
0.0
 70
     1
  0
VERTEX
  5
61
330
60
100
AcDbEntity
  8
DEFAULT
100
AcDbVertex
100
AcDb2dVertex
 10
0.0
 20
10.0
 30
0.0
  0
VERTEX
  5
62
330
60
100
AcDbEntity
  8
DEFAULT
100
AcDbVertex
100
AcDb2dVertex
 10
0.0012262712585546
 20
9.889264564613462
 30
0.0
  0
VERTEX
  5
63
330
60
100
AcDbEntity
  8
DEFAULT
100
AcDbVertex
100
AcDb2dVertex
 10
0.0049272061286893
 20
9.778040562383948
 30
0.0
  0
VERTEX
  5
64
330
60
100
AcDbEntity
  8
DEFAULT
100
AcDbVertex
100
AcDb2dVertex
 10
0.0111356300597403
 20
9.666345537969
 30
0.0
  0
VERTEX
  5
65
330
60
100
AcDbEntity
  8
DEFAULT
100
AcDbVertex
100
AcDb2dVertex
 10
0.0198838658866044
 20
9.554197558513419
 30
0.0
  0
VERTEX
  5
66
330
60
100
AcDbEntity
  8
DEFAULT
100
AcDbVertex
100
AcDb2dVertex
 10
0.031203698896776
 20
9.441615212186479
 30
0.0
  0
VERTEX
  5
67
330
60
100
AcDbEntity
  8
DEFAULT
100
AcDbVertex
100
AcDb2dVertex
 10
0.0451263415506335
 20
9.328617606105954
 30
0.0
  0
VERTEX
  5
68
330
60
100
AcDbEntity
  8
DEFAULT
100
AcDbVertex
100
AcDb2dVertex
 10
0.06168239789878
 20
9.215224363633041
 30
0.0
  0
VERTEX
  5
69
330
60
100
AcDbEntity
  8
DEFAULT
100
AcDbVertex
100
AcDb2dVertex
 10
0.0809018277424262
 20
9.101455621022952
 30
0.0
  0
VERTEX
  5
6A
330
60
100
AcDbEntity
  8
DEFAULT
100
AcDbVertex
100
AcDb2dVertex
 10
0.1028139105849533
 20
8.987332023416812
 30
0.0
  0
VERTEX
  5
6B
330
60
100
AcDbEntity
  8
DEFAULT
100
AcDbVertex
100
AcDb2dVertex
 10
0.1274472094248969
 20
8.87287472016132
 30
0.0
  0
VERTEX
  5
6C
330
60
100
AcDbEntity
  8
DEFAULT
100
AcDbVertex
100
AcDb2dVertex
 10
0.1548295344426452
 20
8.758105359443675
 30
0.0
  0
VERTEX
  5
6D
330
60
100
AcDbEntity
  8
DEFAULT
100
AcDbVertex
100
AcDb2dVertex
 10
0.1849879066351279
 20
8.643046082230141
 30
0.0
  0
VERTEX
  5
6E
330
60
100
AcDbEntity
  8
DEFAULT
100
AcDbVertex
100
AcDb2dVertex
 10
0.2179485214546903
 20
8.527719515497868
 30
0.0
  0
VERTEX
  5
6F
330
60
100
AcDbEntity
  8
DEFAULT
100
AcDbVertex
100
AcDb2dVertex
 10
0.2537367125101764
 20
8.412148764750645
 30
0.0
  0
VERTEX
  5
70
330
60
100
AcDbEntity
  8
DEFAULT
100
AcDbVertex
100
AcDb2dVertex
 10
0.2923769153899866
 20
8.29635740581053
 30
0.0
  0
VERTEX
  5
71
330
60
100
AcDbEntity
  8
DEFAULT
100
AcDbVertex
100
AcDb2dVertex
 10
0.3338926316685124
 20
8.180369475878553
 30
0.0
  0
VERTEX
  5
72
330
60
100
AcDbEntity
  8
DEFAULT
100
AcDbVertex
100
AcDb2dVertex
 10
0.378306393158881
 20
8.064209463859122
 30
0.0
  0
VERTEX
  5
73
330
60
100
AcDbEntity
  8
DEFAULT
100
AcDbVertex
100
AcDb2dVertex
 10
0.4256397264763449
 20
7.947902299944094
 30
0.0
  0
VERTEX
  5
74
330
60
100
AcDbEntity
  8
DEFAULT
100
AcDbVertex
100
AcDb2dVertex
 10
0.4759131179779312
 20
7.831473344454018
 30
0.0
  0
VERTEX
  5
75
330
60
100
AcDbEntity
  8
DEFAULT
100
AcDbVertex
100
AcDb2dVertex
 10
0.5291459791450988
 20
7.714948375935539
 30
0.0
  0
VERTEX
  5
76
330
60
100
AcDbEntity
  8
DEFAULT
100
AcDbVertex
100
AcDb2dVertex
 10
0.5853566124771402
 20
7.598353578515622
 30
0.0
  0
VERTEX
  5
77
330
60
100
AcDbEntity
  8
DEFAULT
100
AcDbVertex
100
AcDb2dVertex
 10
0.6445621779638944
 20
7.48171552851479
 30
0.0
  0
VERTEX
  5
78
330
60
100
AcDbEntity
  8
DEFAULT
100
AcDbVertex
100
AcDb2dVertex
 10
0.7067786602069943
 20
7.365061180323357
 30
0.0
  0
VERTEX
  5
79
330
60
100
AcDbEntity
  8
DEFAULT
100
AcDbVertex
100
AcDb2dVertex
 10
0.7720208362593699
 20
7.248417851546306
 30
0.0
  0
VERTEX
  5
7A
330
60
100
AcDbEntity
  8
DEFAULT
100
AcDbVertex
100
AcDb2dVertex
 10
0.8403022442530208
 20
7.131813207424238
 30
0.0
  0
VERTEX
  5
7B
330
60
100
AcDbEntity
  8
DEFAULT
100
AcDbVertex
100
AcDb2dVertex
 10
0.9116351528851961
 20
7.015275244539631
 30
0.0
  0
VERTEX
  5
7C
330
60
100
AcDbEntity
  8
DEFAULT
100
AcDbVertex
100
AcDb2dVertex
 10
0.9860305318330367
 20
6.898832273819484
 30
0.0
  0
VERTEX
  5
7D
330
60
100
AcDbEntity
  8
DEFAULT
100
AcDbVertex
100
AcDb2dVertex
 10
1.063498023166442
 20
6.782512902847209
 30
0.0
  0
VERTEX
  5
7E
330
60
100
AcDbEntity
  8
DEFAULT
100
AcDbVertex
100
AcDb2dVertex
 10
1.144045913828447
 20
6.666346017498581
 30
0.0
  0
VERTEX
  5
7F
330
60
100
AcDbEntity
  8
DEFAULT
100
AcDbVertex
100
AcDb2dVertex
 10
1.227681109251668
 20
6.550360762918342
 30
0.0
  0
VERTEX
  5
80
330
60
100
AcDbEntity
  8
DEFAULT
100
AcDbVertex
100
AcDb2dVertex
 10
1.314409108178475
 20
6.434586523856018
 30
0.0
  0
VERTEX
  5
81
330
60
100
AcDbEntity
  8
DEFAULT
100
AcDbVertex
100
AcDb2dVertex
 10
1.404233978751394
 20
6.319052904381273
 30
0.0
  0
VERTEX
  5
82
330
60
100
AcDbEntity
  8
DEFAULT
100
AcDbVertex
100
AcDb2dVertex
 10
1.593183320359986
 20
6.088826911202785
 30
0.0
  0
VERTEX
  5
83
330
60
100
AcDbEntity
  8
DEFAULT
100
AcDbVertex
100
AcDb2dVertex
 10
1.794532244864932
 20
5.859923194651539
 30
0.0
  0
VERTEX
  5
84
330
60
100
AcDbEntity
  8
DEFAULT
100
AcDbVertex
100
AcDb2dVertex
 10
2.008259679540852
 20
5.632584281260699
 30
0.0
  0
VERTEX
  5
85
330
60
100
AcDbEntity
  8
DEFAULT
100
AcDbVertex
100
AcDb2dVertex
 10
2.234319863404945
 20
5.407054069439967
 30
0.0
  0
VERTEX
  5
86
330
60
100
AcDbEntity
  8
DEFAULT
100
AcDbVertex
100
AcDb2dVertex
 10
2.4726419501777
 20
5.183577058819238
 30
0.0
  0
VERTEX
  5
87
330
60
100
AcDbEntity
  8
DEFAULT
100
AcDbVertex
100
AcDb2dVertex
 10
2.723129725051369
 20
4.962397556808487
 30
0.0
  0
VERTEX
  5
88
330
60
100
AcDbEntity
  8
DEFAULT
100
AcDbVertex
100
AcDb2dVertex
 10
2.985661440525017
 20
4.743758867223586
 30
0.0
  0
VERTEX
  5
89
330
60
100
AcDbEntity
  8
DEFAULT
100
AcDbVertex
100
AcDb2dVertex
 10
3.260089775626973
 20
4.527902466148574
 30
0.0
  0
VERTEX
  5
8A
330
60
100
AcDbEntity
  8
DEFAULT
100
AcDbVertex
100
AcDb2dVertex
 10
3.546241921823618
 20
4.315067170474979
 30
0.0
  0
VERTEX
  5
8B
330
60
100
AcDbEntity
  8
DEFAULT
100
AcDbVertex
100
AcDb2dVertex
 10
3.843919797819752
 20
4.105488304771984
 30
0.0
  0
VERTEX
  5
8C
330
60
100
AcDbEntity
  8
DEFAULT
100
AcDbVertex
100
AcDb2dVertex
 10
4.152900394304492
 20
3.899396872292764
 30
0.0
  0
VERTEX
  5
8D
330
60
100
AcDbEntity
  8
DEFAULT
100
AcDbVertex
100
AcDb2dVertex
 10
4.472936248503137
 20
3.697018736007695
 30
0.0
  0
VERTEX
  5
8E
330
60
100
AcDbEntity
  8
DEFAULT
100
AcDbVertex
100
AcDb2dVertex
 10
4.803756047176742
 20
3.498573815571646
 30
0.0
  0
VERTEX
  5
8F
330
60
100
AcDbEntity
  8
DEFAULT
100
AcDbVertex
100
AcDb2dVertex
 10
5.145065355484872
 20
3.304275306078062
 30
0.0
  0
VERTEX
  5
90
330
60
100
AcDbEntity
  8
DEFAULT
100
AcDbVertex
100
AcDb2dVertex
 10
5.496547467911639
 20
3.114328924326626
 30
0.0
  0
VERTEX
  5
91
330
60
100
AcDbEntity
  8
DEFAULT
100
AcDbVertex
100
AcDb2dVertex
 10
5.85786437626905
 20
2.928932188134525
 30
0.0
  0
VERTEX
  5
92
330
60
100
AcDbEntity
  8
DEFAULT
100
AcDbVertex
100
AcDb2dVertex
 10
6.228657848653252
 20
2.748273733955819
 30
0.0
  0
VERTEX
  5
93
330
60
100
AcDbEntity
  8
DEFAULT
100
AcDbVertex
100
AcDb2dVertex
 10
6.608550612156123
 20
2.572532677742436
 30
0.0
  0
VERTEX
  5
94
330
60
100
AcDbEntity
  8
DEFAULT
100
AcDbVertex
100
AcDb2dVertex
 10
6.997147631143292
 20
2.401878023588371
 30
0.0
  0
VERTEX
  5
95
330
60
100
AcDbEntity
  8
DEFAULT
100
AcDbVertex
100
AcDb2dVertex
 10
7.39403747201539
 20
2.236468124251568
 30
0.0
  0
VERTEX
  5
96
330
60
100
AcDbEntity
  8
DEFAULT
100
AcDbVertex
100
AcDb2dVertex
 10
7.798793744585527
 20
2.076450197152246
 30
0.0
  0
VERTEX
  5
97
330
60
100
AcDbEntity
  8
DEFAULT
100
AcDbVertex
100
AcDb2dVertex
 10
8.210976609543968
 20
1.921959898909876
 30
0.0
  0
VERTEX
  5
98
330
60
100
AcDbEntity
  8
DEFAULT
100
AcDbVertex
100
AcDb2dVertex
 10
9.055804932297148
 20
1.630044887813487
 30
0.0
  0
VERTEX
  5
99
330
60
100
AcDbEntity
  8
DEFAULT
100
AcDbVertex
100
AcDb2dVertex
 10
9.924795113616975
 20
1.361564862525685
 30
0.0
  0
VERTEX
  5
9A
330
60
100
AcDbEntity
  8
DEFAULT
100
AcDbVertex
100
AcDb2dVertex
 10
10.81410813887993
 20
1.117159931702473
 30
0.0
  0
VERTEX
  5
9B
330
60
100
AcDbEntity
  8
DEFAULT
100
AcDbVertex
100
AcDb2dVertex
 10
11.71984638930308
 20
0.8972661224324662
 30
0.0
  0
VERTEX
  5
9C
330
60
100
AcDbEntity
  8
DEFAULT
100
AcDbVertex
100
AcDb2dVertex
 10
12.63810580876255
 20
0.7021169893756971
 30
0.0
  0
VERTEX
  5
9D
330
60
100
AcDbEntity
  8
DEFAULT
100
AcDbVertex
100
AcDb2dVertex
 10
13.56502580569442
 20
0.5317490115832212
 30
0.0
  0
VERTEX
  5
9E
330
60
100
AcDbEntity
  8
DEFAULT
100
AcDbVertex
100
AcDb2dVertex
 10
14.49683570309261
 20
0.386010418129685
 30
0.0
  0
VERTEX
  5
9F
330
60
100
AcDbEntity
  8
DEFAULT
100
AcDbVertex
100
AcDb2dVertex
 10
15.42989675187108
 20
0.2645729895725494
 30
0.0
  0
VERTEX
  5
A0
330
60
100
AcDbEntity
  8
DEFAULT
100
AcDbVertex
100
AcDb2dVertex
 10
16.36073895175711
 20
0.1669463158342562
 30
0.0
  0
VERTEX
  5
A1
330
60
100
AcDbEntity
  8
DEFAULT
100
AcDbVertex
100
AcDb2dVertex
 10
17.28609216446028
 20
0.0924939533175639
 30
0.0
  0
VERTEX
  5
A2
330
60
100
AcDbEntity
  8
DEFAULT
100
AcDbVertex
100
AcDb2dVertex
 10
18.2029112420459
 20
0.0404509138712131
 30
0.0
  0
VERTEX
  5
A3
330
60
100
AcDbEntity
  8
DEFAULT
100
AcDbVertex
100
AcDb2dVertex
 10
19.10839511702684
 20
0.0099419329433022
 30
0.0
  0
VERTEX
  5
A4
330
60
100
AcDbEntity
  8
DEFAULT
100
AcDbVertex
100
AcDb2dVertex
 10
20.0
 20
0.0
 30
0.0
  0
VERTEX
  5
A5
330
60
100
AcDbEntity
  8
DEFAULT
100
AcDbVertex
100
AcDb2dVertex
 10
20.89160488297316
 20
0.0099419329433022
 30
0.0
  0
VERTEX
  5
A6
330
60
100
AcDbEntity
  8
DEFAULT
100
AcDbVertex
100
AcDb2dVertex
 10
21.79708875795409
 20
0.0404509138712131
 30
0.0
  0
VERTEX
  5
A7
330
60
100
AcDbEntity
  8
DEFAULT
100
AcDbVertex
100
AcDb2dVertex
 10
22.71390783553972
 20
0.0924939533175639
 30
0.0
  0
VERTEX
  5
A8
330
60
100
AcDbEntity
  8
DEFAULT
100
AcDbVertex
100
AcDb2dVertex
 10
23.63926104824289
 20
0.1669463158342562
 30
0.0
  0
VERTEX
  5
A9
330
60
100
AcDbEntity
  8
DEFAULT
100
AcDbVertex
100
AcDb2dVertex
 10
24.57010324812892
 20
0.2645729895725494
 30
0.0
  0
VERTEX
  5
AA
330
60
100
AcDbEntity
  8
DEFAULT
100
AcDbVertex
100
AcDb2dVertex
 10
25.50316429690739
 20
0.386010418129685
 30
0.0
  0
VERTEX
  5
AB
330
60
100
AcDbEntity
  8
DEFAULT
100
AcDbVertex
100
AcDb2dVertex
 10
26.43497419430558
 20
0.5317490115832212
 30
0.0
  0
VERTEX
  5
AC
330
60
100
AcDbEntity
  8
DEFAULT
100
AcDbVertex
100
AcDb2dVertex
 10
27.36189419123746
 20
0.7021169893756971
 30
0.0
  0
VERTEX
  5
AD
330
60
100
AcDbEntity
  8
DEFAULT
100
AcDbVertex
100
AcDb2dVertex
 10
28.28015361069692
 20
0.8972661224324662
 30
0.0
  0
VERTEX
  5
AE
330
60
100
AcDbEntity
  8
DEFAULT
100
AcDbVertex
100
AcDb2dVertex
 10
29.18589186112007
 20
1.117159931702473
 30
0.0
  0
VERTEX
  5
AF
330
60
100
AcDbEntity
  8
DEFAULT
100
AcDbVertex
100
AcDb2dVertex
 10
30.07520488638303
 20
1.361564862525685
 30
0.0
  0
VERTEX
  5
B0
330
60
100
AcDbEntity
  8
DEFAULT
100
AcDbVertex
100
AcDb2dVertex
 10
30.94419506770285
 20
1.630044887813487
 30
0.0
  0
VERTEX
  5
B1
330
60
100
AcDbEntity
  8
DEFAULT
100
AcDbVertex
100
AcDb2dVertex
 10
31.78902339045603
 20
1.921959898909876
 30
0.0
  0
VERTEX
  5
B2
330
60
100
AcDbEntity
  8
DEFAULT
100
AcDbVertex
100
AcDb2dVertex
 10
32.20120625541448
 20
2.076450197152246
 30
0.0
  0
VERTEX
  5
B3
330
60
100
AcDbEntity
  8
DEFAULT
100
AcDbVertex
100
AcDb2dVertex
 10
32.60596252798462
 20
2.236468124251568
 30
0.0
  0
VERTEX
  5
B4
330
60
100
AcDbEntity
  8
DEFAULT
100
AcDbVertex
100
AcDb2dVertex
 10
33.00285236885671
 20
2.401878023588371
 30
0.0
  0
VERTEX
  5
B5
330
60
100
AcDbEntity
  8
DEFAULT
100
AcDbVertex
100
AcDb2dVertex
 10
33.39144938784388
 20
2.572532677742436
 30
0.0
  0
VERTEX
  5
B6
330
60
100
AcDbEntity
  8
DEFAULT
100
AcDbVertex
100
AcDb2dVertex
 10
33.77134215134675
 20
2.748273733955819
 30
0.0
  0
VERTEX
  5
B7
330
60
100
AcDbEntity
  8
DEFAULT
100
AcDbVertex
100
AcDb2dVertex
 10
34.14213562373095
 20
2.928932188134525
 30
0.0
  0
VERTEX
  5
B8
330
60
100
AcDbEntity
  8
DEFAULT
100
AcDbVertex
100
AcDb2dVertex
 10
34.50345253208836
 20
3.114328924326626
 30
0.0
  0
VERTEX
  5
B9
330
60
100
AcDbEntity
  8
DEFAULT
100
AcDbVertex
100
AcDb2dVertex
 10
34.85493464451513
 20
3.304275306078062
 30
0.0
  0
VERTEX
  5
BA
330
60
100
AcDbEntity
  8
DEFAULT
100
AcDbVertex
100
AcDb2dVertex
 10
35.19624395282327
 20
3.498573815571646
 30
0.0
  0
VERTEX
  5
BB
330
60
100
AcDbEntity
  8
DEFAULT
100
AcDbVertex
100
AcDb2dVertex
 10
35.52706375149687
 20
3.697018736007695
 30
0.0
  0
VERTEX
  5
BC
330
60
100
AcDbEntity
  8
DEFAULT
100
AcDbVertex
100
AcDb2dVertex
 10
35.84709960569551
 20
3.899396872292764
 30
0.0
  0
VERTEX
  5
BD
330
60
100
AcDbEntity
  8
DEFAULT
100
AcDbVertex
100
AcDb2dVertex
 10
36.15608020218025
 20
4.105488304771984
 30
0.0
  0
VERTEX
  5
BE
330
60
100
AcDbEntity
  8
DEFAULT
100
AcDbVertex
100
AcDb2dVertex
 10
36.45375807817638
 20
4.315067170474979
 30
0.0
  0
VERTEX
  5
BF
330
60
100
AcDbEntity
  8
DEFAULT
100
AcDbVertex
100
AcDb2dVertex
 10
36.73991022437303
 20
4.527902466148574
 30
0.0
  0
VERTEX
  5
C0
330
60
100
AcDbEntity
  8
DEFAULT
100
AcDbVertex
100
AcDb2dVertex
 10
37.01433855947499
 20
4.743758867223586
 30
0.0
  0
VERTEX
  5
C1
330
60
100
AcDbEntity
  8
DEFAULT
100
AcDbVertex
100
AcDb2dVertex
 10
37.27687027494864
 20
4.962397556808487
 30
0.0
  0
VERTEX
  5
C2
330
60
100
AcDbEntity
  8
DEFAULT
100
AcDbVertex
100
AcDb2dVertex
 10
37.52735804982231
 20
5.183577058819238
 30
0.0
  0
VERTEX
  5
C3
330
60
100
AcDbEntity
  8
DEFAULT
100
AcDbVertex
100
AcDb2dVertex
 10
37.76568013659507
 20
5.407054069439967
 30
0.0
  0
VERTEX
  5
C4
330
60
100
AcDbEntity
  8
DEFAULT
100
AcDbVertex
100
AcDb2dVertex
 10
37.99174032045916
 20
5.632584281260699
 30
0.0
  0
VERTEX
  5
C5
330
60
100
AcDbEntity
  8
DEFAULT
100
AcDbVertex
100
AcDb2dVertex
 10
38.20546775513507
 20
5.859923194651539
 30
0.0
  0
VERTEX
  5
C6
330
60
100
AcDbEntity
  8
DEFAULT
100
AcDbVertex
100
AcDb2dVertex
 10
38.40681667964002
 20
6.088826911202785
 30
0.0
  0
VERTEX
  5
C7
330
60
100
AcDbEntity
  8
DEFAULT
100
AcDbVertex
100
AcDb2dVertex
 10
38.59576602124861
 20
6.319052904381273
 30
0.0
  0
VERTEX
  5
C8
330
60
100
AcDbEntity
  8
DEFAULT
100
AcDbVertex
100
AcDb2dVertex
 10
38.68559089182153
 20
6.434586523856018
 30
0.0
  0
VERTEX
  5
C9
330
60
100
AcDbEntity
  8
DEFAULT
100
AcDbVertex
100
AcDb2dVertex
 10
38.77231889074834
 20
6.550360762918342
 30
0.0
  0
VERTEX
  5
CA
330
60
100
AcDbEntity
  8
DEFAULT
100
AcDbVertex
100
AcDb2dVertex
 10
38.85595408617156
 20
6.666346017498581
 30
0.0
  0
VERTEX
  5
CB
330
60
100
AcDbEntity
  8
DEFAULT
100
AcDbVertex
100
AcDb2dVertex
 10
38.93650197683355
 20
6.782512902847209
 30
0.0
  0
VERTEX
  5
CC
330
60
100
AcDbEntity
  8
DEFAULT
100
AcDbVertex
100
AcDb2dVertex
 10
39.01396946816696
 20
6.898832273819484
 30
0.0
  0
VERTEX
  5
CD
330
60
100
AcDbEntity
  8
DEFAULT
100
AcDbVertex
100
AcDb2dVertex
 10
39.08836484711481
 20
7.015275244539631
 30
0.0
  0
VERTEX
  5
CE
330
60
100
AcDbEntity
  8
DEFAULT
100
AcDbVertex
100
AcDb2dVertex
 10
39.15969775574698
 20
7.131813207424238
 30
0.0
  0
VERTEX
  5
CF
330
60
100
AcDbEntity
  8
DEFAULT
100
AcDbVertex
100
AcDb2dVertex
 10
39.22797916374063
 20
7.248417851546306
 30
0.0
  0
VERTEX
  5
D0
330
60
100
AcDbEntity
  8
DEFAULT
100
AcDbVertex
100
AcDb2dVertex
 10
39.29322133979301
 20
7.365061180323357
 30
0.0
  0
VERTEX
  5
D1
330
60
100
AcDbEntity
  8
DEFAULT
100
AcDbVertex
100
AcDb2dVertex
 10
39.35543782203612
 20
7.48171552851479
 30
0.0
  0
VERTEX
  5
D2
330
60
100
AcDbEntity
  8
DEFAULT
100
AcDbVertex
100
AcDb2dVertex
 10
39.41464338752287
 20
7.598353578515622
 30
0.0
  0
VERTEX
  5
D3
330
60
100
AcDbEntity
  8
DEFAULT
100
AcDbVertex
100
AcDb2dVertex
 10
39.47085402085492
 20
7.714948375935539
 30
0.0
  0
VERTEX
  5
D4
330
60
100
AcDbEntity
  8
DEFAULT
100
AcDbVertex
100
AcDb2dVertex
 10
39.52408688202208
 20
7.831473344454018
 30
0.0
  0
VERTEX
  5
D5
330
60
100
AcDbEntity
  8
DEFAULT
100
AcDbVertex
100
AcDb2dVertex
 10
39.57436027352367
 20
7.947902299944094
 30
0.0
  0
VERTEX
  5
D6
330
60
100
AcDbEntity
  8
DEFAULT
100
AcDbVertex
100
AcDb2dVertex
 10
39.62169360684113
 20
8.064209463859122
 30
0.0
  0
VERTEX
  5
D7
330
60
100
AcDbEntity
  8
DEFAULT
100
AcDbVertex
100
AcDb2dVertex
 10
39.66610736833149
 20
8.180369475878553
 30
0.0
  0
VERTEX
  5
D8
330
60
100
AcDbEntity
  8
DEFAULT
100
AcDbVertex
100
AcDb2dVertex
 10
39.70762308461001
 20
8.29635740581053
 30
0.0
  0
VERTEX
  5
D9
330
60
100
AcDbEntity
  8
DEFAULT
100
AcDbVertex
100
AcDb2dVertex
 10
39.74626328748981
 20
8.412148764750645
 30
0.0
  0
VERTEX
  5
DA
330
60
100
AcDbEntity
  8
DEFAULT
100
AcDbVertex
100
AcDb2dVertex
 10
39.7820514785453
 20
8.527719515497868
 30
0.0
  0
VERTEX
  5
DB
330
60
100
AcDbEntity
  8
DEFAULT
100
AcDbVertex
100
AcDb2dVertex
 10
39.81501209336486
 20
8.643046082230141
 30
0.0
  0
VERTEX
  5
DC
330
60
100
AcDbEntity
  8
DEFAULT
100
AcDbVertex
100
AcDb2dVertex
 10
39.84517046555735
 20
8.758105359443675
 30
0.0
  0
VERTEX
  5
DD
330
60
100
AcDbEntity
  8
DEFAULT
100
AcDbVertex
100
AcDb2dVertex
 10
39.8725527905751
 20
8.87287472016132
 30
0.0
  0
VERTEX
  5
DE
330
60
100
AcDbEntity
  8
DEFAULT
100
AcDbVertex
100
AcDb2dVertex
 10
39.89718608941505
 20
8.987332023416812
 30
0.0
  0
VERTEX
  5
DF
330
60
100
AcDbEntity
  8
DEFAULT
100
AcDbVertex
100
AcDb2dVertex
 10
39.91909817225757
 20
9.101455621022952
 30
0.0
  0
VERTEX
  5
E0
330
60
100
AcDbEntity
  8
DEFAULT
100
AcDbVertex
100
AcDb2dVertex
 10
39.93831760210121
 20
9.215224363633041
 30
0.0
  0
VERTEX
  5
E1
330
60
100
AcDbEntity
  8
DEFAULT
100
AcDbVertex
100
AcDb2dVertex
 10
39.95487365844937
 20
9.328617606105954
 30
0.0
  0
VERTEX
  5
E2
330
60
100
AcDbEntity
  8
DEFAULT
100
AcDbVertex
100
AcDb2dVertex
 10
39.96879630110323
 20
9.441615212186479
 30
0.0
  0
VERTEX
  5
E3
330
60
100
AcDbEntity
  8
DEFAULT
100
AcDbVertex
100
AcDb2dVertex
 10
39.98011613411339
 20
9.554197558513419
 30
0.0
  0
VERTEX
  5
E4
330
60
100
AcDbEntity
  8
DEFAULT
100
AcDbVertex
100
AcDb2dVertex
 10
39.98886436994027
 20
9.666345537969
 30
0.0
  0
VERTEX
  5
E5
330
60
100
AcDbEntity
  8
DEFAULT
100
AcDbVertex
100
AcDb2dVertex
 10
39.99507279387132
 20
9.778040562383948
 30
0.0
  0
VERTEX
  5
E6
330
60
100
AcDbEntity
  8
DEFAULT
100
AcDbVertex
100
AcDb2dVertex
 10
39.99877372874145
 20
9.889264564613462
 30
0.0
  0
VERTEX
  5
E7
330
60
100
AcDbEntity
  8
DEFAULT
100
AcDbVertex
100
AcDb2dVertex
 10
40.0
 20
10.0
 30
0.0
  0
VERTEX
  5
E8
330
60
100
AcDbEntity
  8
DEFAULT
100
AcDbVertex
100
AcDb2dVertex
 10
39.99877372874145
 20
10.11073543538654
 30
0.0
  0
VERTEX
  5
E9
330
60
100
AcDbEntity
  8
DEFAULT
100
AcDbVertex
100
AcDb2dVertex
 10
39.99507279387132
 20
10.22195943761605
 30
0.0
  0
VERTEX
  5
EA
330
60
100
AcDbEntity
  8
DEFAULT
100
AcDbVertex
100
AcDb2dVertex
 10
39.98886436994027
 20
10.333654462031
 30
0.0
  0
VERTEX
  5
EB
330
60
100
AcDbEntity
  8
DEFAULT
100
AcDbVertex
100
AcDb2dVertex
 10
39.98011613411339
 20
10.44580244148658
 30
0.0
  0
VERTEX
  5
EC
330
60
100
AcDbEntity
  8
DEFAULT
100
AcDbVertex
100
AcDb2dVertex
 10
39.96879630110323
 20
10.55838478781352
 30
0.0
  0
VERTEX
  5
ED
330
60
100
AcDbEntity
  8
DEFAULT
100
AcDbVertex
100
AcDb2dVertex
 10
39.95487365844937
 20
10.67138239389404
 30
0.0
  0
VERTEX
  5
EE
330
60
100
AcDbEntity
  8
DEFAULT
100
AcDbVertex
100
AcDb2dVertex
 10
39.93831760210121
 20
10.78477563636696
 30
0.0
  0
VERTEX
  5
EF
330
60
100
AcDbEntity
  8
DEFAULT
100
AcDbVertex
100
AcDb2dVertex
 10
39.91909817225757
 20
10.89854437897704
 30
0.0
  0
VERTEX
  5
F0
330
60
100
AcDbEntity
  8
DEFAULT
100
AcDbVertex
100
AcDb2dVertex
 10
39.89718608941505
 20
11.01266797658319
 30
0.0
  0
VERTEX
  5
F1
330
60
100
AcDbEntity
  8
DEFAULT
100
AcDbVertex
100
AcDb2dVertex
 10
39.8725527905751
 20
11.12712527983868
 30
0.0
  0
VERTEX
  5
F2
330
60
100
AcDbEntity
  8
DEFAULT
100
AcDbVertex
100
AcDb2dVertex
 10
39.84517046555735
 20
11.24189464055632
 30
0.0
  0
VERTEX
  5
F3
330
60
100
AcDbEntity
  8
DEFAULT
100
AcDbVertex
100
AcDb2dVertex
 10
39.81501209336486
 20
11.35695391776986
 30
0.0
  0
VERTEX
  5
F4
330
60
100
AcDbEntity
  8
DEFAULT
100
AcDbVertex
100
AcDb2dVertex
 10
39.7820514785453
 20
11.47228048450213
 30
0.0
  0
VERTEX
  5
F5
330
60
100
AcDbEntity
  8
DEFAULT
100
AcDbVertex
100
AcDb2dVertex
 10
39.74626328748981
 20
11.58785123524935
 30
0.0
  0
VERTEX
  5
F6
330
60
100
AcDbEntity
  8
DEFAULT
100
AcDbVertex
100
AcDb2dVertex
 10
39.70762308461001
 20
11.70364259418947
 30
0.0
  0
VERTEX
  5
F7
330
60
100
AcDbEntity
  8
DEFAULT
100
AcDbVertex
100
AcDb2dVertex
 10
39.66610736833149
 20
11.81963052412145
 30
0.0
  0
VERTEX
  5
F8
330
60
100
AcDbEntity
  8
DEFAULT
100
AcDbVertex
100
AcDb2dVertex
 10
39.62169360684113
 20
11.93579053614088
 30
0.0
  0
VERTEX
  5
F9
330
60
100
AcDbEntity
  8
DEFAULT
100
AcDbVertex
100
AcDb2dVertex
 10
39.57436027352367
 20
12.0520977000559
 30
0.0
  0
VERTEX
  5
FA
330
60
100
AcDbEntity
  8
DEFAULT
100
AcDbVertex
100
AcDb2dVertex
 10
39.52408688202208
 20
12.16852665554598
 30
0.0
  0
VERTEX
  5
FB
330
60
100
AcDbEntity
  8
DEFAULT
100
AcDbVertex
100
AcDb2dVertex
 10
39.47085402085492
 20
12.28505162406446
 30
0.0
  0
VERTEX
  5
FC
330
60
100
AcDbEntity
  8
DEFAULT
100
AcDbVertex
100
AcDb2dVertex
 10
39.41464338752287
 20
12.40164642148438
 30
0.0
  0
VERTEX
  5
FD
330
60
100
AcDbEntity
  8
DEFAULT
100
AcDbVertex
100
AcDb2dVertex
 10
39.35543782203612
 20
12.51828447148521
 30
0.0
  0
VERTEX
  5
FE
330
60
100
AcDbEntity
  8
DEFAULT
100
AcDbVertex
100
AcDb2dVertex
 10
39.29322133979301
 20
12.63493881967664
 30
0.0
  0
VERTEX
  5
FF
330
60
100
AcDbEntity
  8
DEFAULT
100
AcDbVertex
100
AcDb2dVertex
 10
39.22797916374063
 20
12.75158214845369
 30
0.0
  0
VERTEX
  5
100
330
60
100
AcDbEntity
  8
DEFAULT
100
AcDbVertex
100
AcDb2dVertex
 10
39.15969775574698
 20
12.86818679257576
 30
0.0
  0
VERTEX
  5
101
330
60
100
AcDbEntity
  8
DEFAULT
100
AcDbVertex
100
AcDb2dVertex
 10
39.08836484711481
 20
12.98472475546037
 30
0.0
  0
VERTEX
  5
102
330
60
100
AcDbEntity
  8
DEFAULT
100
AcDbVertex
100
AcDb2dVertex
 10
39.01396946816696
 20
13.10116772618052
 30
0.0
  0
VERTEX
  5
103
330
60
100
AcDbEntity
  8
DEFAULT
100
AcDbVertex
100
AcDb2dVertex
 10
38.93650197683355
 20
13.21748709715279
 30
0.0
  0
VERTEX
  5
104
330
60
100
AcDbEntity
  8
DEFAULT
100
AcDbVertex
100
AcDb2dVertex
 10
38.85595408617156
 20
13.33365398250142
 30
0.0
  0
VERTEX
  5
105
330
60
100
AcDbEntity
  8
DEFAULT
100
AcDbVertex
100
AcDb2dVertex
 10
38.77231889074834
 20
13.44963923708166
 30
0.0
  0
VERTEX
  5
106
330
60
100
AcDbEntity
  8
DEFAULT
100
AcDbVertex
100
AcDb2dVertex
 10
38.68559089182153
 20
13.56541347614398
 30
0.0
  0
VERTEX
  5
107
330
60
100
AcDbEntity
  8
DEFAULT
100
AcDbVertex
100
AcDb2dVertex
 10
38.59576602124861
 20
13.68094709561873
 30
0.0
  0
VERTEX
  5
108
330
60
100
AcDbEntity
  8
DEFAULT
100
AcDbVertex
100
AcDb2dVertex
 10
38.40681667964002
 20
13.91117308879722
 30
0.0
  0
VERTEX
  5
109
330
60
100
AcDbEntity
  8
DEFAULT
100
AcDbVertex
100
AcDb2dVertex
 10
38.20546775513507
 20
14.14007680534846
 30
0.0
  0
VERTEX
  5
10A
330
60
100
AcDbEntity
  8
DEFAULT
100
AcDbVertex
100
AcDb2dVertex
 10
37.99174032045916
 20
14.3674157187393
 30
0.0
  0
VERTEX
  5
10B
330
60
100
AcDbEntity
  8
DEFAULT
100
AcDbVertex
100
AcDb2dVertex
 10
37.76568013659507
 20
14.59294593056003
 30
0.0
  0
VERTEX
  5
10C
330
60
100
AcDbEntity
  8
DEFAULT
100
AcDbVertex
100
AcDb2dVertex
 10
37.52735804982231
 20
14.81642294118077
 30
0.0
  0
VERTEX
  5
10D
330
60
100
AcDbEntity
  8
DEFAULT
100
AcDbVertex
100
AcDb2dVertex
 10
37.27687027494864
 20
15.03760244319151
 30
0.0
  0
VERTEX
  5
10E
330
60
100
AcDbEntity
  8
DEFAULT
100
AcDbVertex
100
AcDb2dVertex
 10
37.01433855947499
 20
15.25624113277641
 30
0.0
  0
VERTEX
  5
10F
330
60
100
AcDbEntity
  8
DEFAULT
100
AcDbVertex
100
AcDb2dVertex
 10
36.73991022437303
 20
15.47209753385143
 30
0.0
  0
VERTEX
  5
110
330
60
100
AcDbEntity
  8
DEFAULT
100
AcDbVertex
100
AcDb2dVertex
 10
36.45375807817638
 20
15.68493282952502
 30
0.0
  0
VERTEX
  5
111
330
60
100
AcDbEntity
  8
DEFAULT
100
AcDbVertex
100
AcDb2dVertex
 10
36.15608020218025
 20
15.89451169522802
 30
0.0
  0
VERTEX
  5
112
330
60
100
AcDbEntity
  8
DEFAULT
100
AcDbVertex
100
AcDb2dVertex
 10
35.84709960569551
 20
16.10060312770724
 30
0.0
  0
VERTEX
  5
113
330
60
100
AcDbEntity
  8
DEFAULT
100
AcDbVertex
100
AcDb2dVertex
 10
35.52706375149687
 20
16.30298126399231
 30
0.0
  0
VERTEX
  5
114
330
60
100
AcDbEntity
  8
DEFAULT
100
AcDbVertex
100
AcDb2dVertex
 10
35.19624395282327
 20
16.50142618442836
 30
0.0
  0
VERTEX
  5
115
330
60
100
AcDbEntity
  8
DEFAULT
100
AcDbVertex
100
AcDb2dVertex
 10
34.85493464451513
 20
16.69572469392194
 30
0.0
  0
VERTEX
  5
116
330
60
100
AcDbEntity
  8
DEFAULT
100
AcDbVertex
100
AcDb2dVertex
 10
34.50345253208836
 20
16.88567107567338
 30
0.0
  0
VERTEX
  5
117
330
60
100
AcDbEntity
  8
DEFAULT
100
AcDbVertex
100
AcDb2dVertex
 10
34.14213562373095
 20
17.07106781186548
 30
0.0
  0
VERTEX
  5
118
330
60
100
AcDbEntity
  8
DEFAULT
100
AcDbVertex
100
AcDb2dVertex
 10
33.77134215134675
 20
17.25172626604418
 30
0.0
  0
VERTEX
  5
119
330
60
100
AcDbEntity
  8
DEFAULT
100
AcDbVertex
100
AcDb2dVertex
 10
33.39144938784388
 20
17.42746732225757
 30
0.0
  0
VERTEX
  5
11A
330
60
100
AcDbEntity
  8
DEFAULT
100
AcDbVertex
100
AcDb2dVertex
 10
33.00285236885671
 20
17.59812197641163
 30
0.0
  0
VERTEX
  5
11B
330
60
100
AcDbEntity
  8
DEFAULT
100
AcDbVertex
100
AcDb2dVertex
 10
32.60596252798462
 20
17.76353187574843
 30
0.0
  0
VERTEX
  5
11C
330
60
100
AcDbEntity
  8
DEFAULT
100
AcDbVertex
100
AcDb2dVertex
 10
32.20120625541448
 20
17.92354980284776
 30
0.0
  0
VERTEX
  5
11D
330
60
100
AcDbEntity
  8
DEFAULT
100
AcDbVertex
100
AcDb2dVertex
 10
31.78902339045603
 20
18.07804010109012
 30
0.0
  0
VERTEX
  5
11E
330
60
100
AcDbEntity
  8
DEFAULT
100
AcDbVertex
100
AcDb2dVertex
 10
30.94419506770285
 20
18.36995511218651
 30
0.0
  0
VERTEX
  5
11F
330
60
100
AcDbEntity
  8
DEFAULT
100
AcDbVertex
100
AcDb2dVertex
 10
30.07520488638303
 20
18.63843513747432
 30
0.0
  0
VERTEX
  5
120
330
60
100
AcDbEntity
  8
DEFAULT
100
AcDbVertex
100
AcDb2dVertex
 10
29.18589186112007
 20
18.88284006829753
 30
0.0
  0
VERTEX
  5
121
330
60
100
AcDbEntity
  8
DEFAULT
100
AcDbVertex
100
AcDb2dVertex
 10
28.28015361069692
 20
19.10273387756754
 30
0.0
  0
VERTEX
  5
122
330
60
100
AcDbEntity
  8
DEFAULT
100
AcDbVertex
100
AcDb2dVertex
 10
27.36189419123746
 20
19.29788301062431
 30
0.0
  0
VERTEX
  5
123
330
60
100
AcDbEntity
  8
DEFAULT
100
AcDbVertex
100
AcDb2dVertex
 10
26.43497419430558
 20
19.46825098841678
 30
0.0
  0
VERTEX
  5
124
330
60
100
AcDbEntity
  8
DEFAULT
100
AcDbVertex
100
AcDb2dVertex
 10
25.50316429690739
 20
19.61398958187032
 30
0.0
  0
VERTEX
  5
125
330
60
100
AcDbEntity
  8
DEFAULT
100
AcDbVertex
100
AcDb2dVertex
 10
24.57010324812892
 20
19.73542701042746
 30
0.0
  0
VERTEX
  5
126
330
60
100
AcDbEntity
  8
DEFAULT
100
AcDbVertex
100
AcDb2dVertex
 10
23.63926104824289
 20
19.83305368416574
 30
0.0
  0
VERTEX
  5
127
330
60
100
AcDbEntity
  8
DEFAULT
100
AcDbVertex
100
AcDb2dVertex
 10
22.71390783553972
 20
19.90750604668243
 30
0.0
  0
VERTEX
  5
128
330
60
100
AcDbEntity
  8
DEFAULT
100
AcDbVertex
100
AcDb2dVertex
 10
21.79708875795409
 20
19.95954908612878
 30
0.0
  0
VERTEX
  5
129
330
60
100
AcDbEntity
  8
DEFAULT
100
AcDbVertex
100
AcDb2dVertex
 10
20.89160488297316
 20
19.9900580670567
 30
0.0
  0
VERTEX
  5
12A
330
60
100
AcDbEntity
  8
DEFAULT
100
AcDbVertex
100
AcDb2dVertex
 10
20.0
 20
20.0
 30
0.0
  0
VERTEX
  5
12B
330
60
100
AcDbEntity
  8
DEFAULT
100
AcDbVertex
100
AcDb2dVertex
 10
19.10839511702684
 20
19.9900580670567
 30
0.0
  0
VERTEX
  5
12C
330
60
100
AcDbEntity
  8
DEFAULT
100
AcDbVertex
100
AcDb2dVertex
 10
18.2029112420459
 20
19.95954908612878
 30
0.0
  0
VERTEX
  5
12D
330
60
100
AcDbEntity
  8
DEFAULT
100
AcDbVertex
100
AcDb2dVertex
 10
17.28609216446028
 20
19.90750604668243
 30
0.0
  0
VERTEX
  5
12E
330
60
100
AcDbEntity
  8
DEFAULT
100
AcDbVertex
100
AcDb2dVertex
 10
16.36073895175711
 20
19.83305368416574
 30
0.0
  0
VERTEX
  5
12F
330
60
100
AcDbEntity
  8
DEFAULT
100
AcDbVertex
100
AcDb2dVertex
 10
15.42989675187108
 20
19.73542701042746
 30
0.0
  0
VERTEX
  5
130
330
60
100
AcDbEntity
  8
DEFAULT
100
AcDbVertex
100
AcDb2dVertex
 10
14.49683570309261
 20
19.61398958187032
 30
0.0
  0
VERTEX
  5
131
330
60
100
AcDbEntity
  8
DEFAULT
100
AcDbVertex
100
AcDb2dVertex
 10
13.56502580569442
 20
19.46825098841678
 30
0.0
  0
VERTEX
  5
132
330
60
100
AcDbEntity
  8
DEFAULT
100
AcDbVertex
100
AcDb2dVertex
 10
12.63810580876255
 20
19.29788301062431
 30
0.0
  0
VERTEX
  5
133
330
60
100
AcDbEntity
  8
DEFAULT
100
AcDbVertex
100
AcDb2dVertex
 10
11.71984638930308
 20
19.10273387756754
 30
0.0
  0
VERTEX
  5
134
330
60
100
AcDbEntity
  8
DEFAULT
100
AcDbVertex
100
AcDb2dVertex
 10
10.81410813887993
 20
18.88284006829753
 30
0.0
  0
VERTEX
  5
135
330
60
100
AcDbEntity
  8
DEFAULT
100
AcDbVertex
100
AcDb2dVertex
 10
9.924795113616975
 20
18.63843513747432
 30
0.0
  0
VERTEX
  5
136
330
60
100
AcDbEntity
  8
DEFAULT
100
AcDbVertex
100
AcDb2dVertex
 10
9.055804932297148
 20
18.36995511218651
 30
0.0
  0
VERTEX
  5
137
330
60
100
AcDbEntity
  8
DEFAULT
100
AcDbVertex
100
AcDb2dVertex
 10
8.210976609543968
 20
18.07804010109012
 30
0.0
  0
VERTEX
  5
138
330
60
100
AcDbEntity
  8
DEFAULT
100
AcDbVertex
100
AcDb2dVertex
 10
7.798793744585527
 20
17.92354980284776
 30
0.0
  0
VERTEX
  5
139
330
60
100
AcDbEntity
  8
DEFAULT
100
AcDbVertex
100
AcDb2dVertex
 10
7.39403747201539
 20
17.76353187574843
 30
0.0
  0
VERTEX
  5
13A
330
60
100
AcDbEntity
  8
DEFAULT
100
AcDbVertex
100
AcDb2dVertex
 10
6.997147631143292
 20
17.59812197641163
 30
0.0
  0
VERTEX
  5
13B
330
60
100
AcDbEntity
  8
DEFAULT
100
AcDbVertex
100
AcDb2dVertex
 10
6.608550612156123
 20
17.42746732225757
 30
0.0
  0
VERTEX
  5
13C
330
60
100
AcDbEntity
  8
DEFAULT
100
AcDbVertex
100
AcDb2dVertex
 10
6.228657848653252
 20
17.25172626604418
 30
0.0
  0
VERTEX
  5
13D
330
60
100
AcDbEntity
  8
DEFAULT
100
AcDbVertex
100
AcDb2dVertex
 10
5.85786437626905
 20
17.07106781186548
 30
0.0
  0
VERTEX
  5
13E
330
60
100
AcDbEntity
  8
DEFAULT
100
AcDbVertex
100
AcDb2dVertex
 10
5.496547467911639
 20
16.88567107567338
 30
0.0
  0
VERTEX
  5
13F
330
60
100
AcDbEntity
  8
DEFAULT
100
AcDbVertex
100
AcDb2dVertex
 10
5.145065355484872
 20
16.69572469392194
 30
0.0
  0
VERTEX
  5
140
330
60
100
AcDbEntity
  8
DEFAULT
100
AcDbVertex
100
AcDb2dVertex
 10
4.803756047176742
 20
16.50142618442836
 30
0.0
  0
VERTEX
  5
141
330
60
100
AcDbEntity
  8
DEFAULT
100
AcDbVertex
100
AcDb2dVertex
 10
4.472936248503137
 20
16.30298126399231
 30
0.0
  0
VERTEX
  5
142
330
60
100
AcDbEntity
  8
DEFAULT
100
AcDbVertex
100
AcDb2dVertex
 10
4.152900394304492
 20
16.10060312770724
 30
0.0
  0
VERTEX
  5
143
330
60
100
AcDbEntity
  8
DEFAULT
100
AcDbVertex
100
AcDb2dVertex
 10
3.843919797819752
 20
15.89451169522802
 30
0.0
  0
VERTEX
  5
144
330
60
100
AcDbEntity
  8
DEFAULT
100
AcDbVertex
100
AcDb2dVertex
 10
3.546241921823618
 20
15.68493282952502
 30
0.0
  0
VERTEX
  5
145
330
60
100
AcDbEntity
  8
DEFAULT
100
AcDbVertex
100
AcDb2dVertex
 10
3.260089775626973
 20
15.47209753385143
 30
0.0
  0
VERTEX
  5
146
330
60
100
AcDbEntity
  8
DEFAULT
100
AcDbVertex
100
AcDb2dVertex
 10
2.985661440525017
 20
15.25624113277641
 30
0.0
  0
VERTEX
  5
147
330
60
100
AcDbEntity
  8
DEFAULT
100
AcDbVertex
100
AcDb2dVertex
 10
2.723129725051369
 20
15.03760244319151
 30
0.0
  0
VERTEX
  5
148
330
60
100
AcDbEntity
  8
DEFAULT
100
AcDbVertex
100
AcDb2dVertex
 10
2.4726419501777
 20
14.81642294118077
 30
0.0
  0
VERTEX
  5
149
330
60
100
AcDbEntity
  8
DEFAULT
100
AcDbVertex
100
AcDb2dVertex
 10
2.234319863404945
 20
14.59294593056003
 30
0.0
  0
VERTEX
  5
14A
330
60
100
AcDbEntity
  8
DEFAULT
100
AcDbVertex
100
AcDb2dVertex
 10
2.008259679540852
 20
14.3674157187393
 30
0.0
  0
VERTEX
  5
14B
330
60
100
AcDbEntity
  8
DEFAULT
100
AcDbVertex
100
AcDb2dVertex
 10
1.794532244864932
 20
14.14007680534846
 30
0.0
  0
VERTEX
  5
14C
330
60
100
AcDbEntity
  8
DEFAULT
100
AcDbVertex
100
AcDb2dVertex
 10
1.593183320359986
 20
13.91117308879722
 30
0.0
  0
VERTEX
  5
14D
330
60
100
AcDbEntity
  8
DEFAULT
100
AcDbVertex
100
AcDb2dVertex
 10
1.404233978751394
 20
13.68094709561873
 30
0.0
  0
VERTEX
  5
14E
330
60
100
AcDbEntity
  8
DEFAULT
100
AcDbVertex
100
AcDb2dVertex
 10
1.314409108178475
 20
13.56541347614398
 30
0.0
  0
VERTEX
  5
14F
330
60
100
AcDbEntity
  8
DEFAULT
100
AcDbVertex
100
AcDb2dVertex
 10
1.227681109251668
 20
13.44963923708166
 30
0.0
  0
VERTEX
  5
150
330
60
100
AcDbEntity
  8
DEFAULT
100
AcDbVertex
100
AcDb2dVertex
 10
1.144045913828447
 20
13.33365398250142
 30
0.0
  0
VERTEX
  5
151
330
60
100
AcDbEntity
  8
DEFAULT
100
AcDbVertex
100
AcDb2dVertex
 10
1.063498023166442
 20
13.21748709715279
 30
0.0
  0
VERTEX
  5
152
330
60
100
AcDbEntity
  8
DEFAULT
100
AcDbVertex
100
AcDb2dVertex
 10
0.9860305318330367
 20
13.10116772618052
 30
0.0
  0
VERTEX
  5
153
330
60
100
AcDbEntity
  8
DEFAULT
100
AcDbVertex
100
AcDb2dVertex
 10
0.9116351528851961
 20
12.98472475546037
 30
0.0
  0
VERTEX
  5
154
330
60
100
AcDbEntity
  8
DEFAULT
100
AcDbVertex
100
AcDb2dVertex
 10
0.8403022442530208
 20
12.86818679257576
 30
0.0
  0
VERTEX
  5
155
330
60
100
AcDbEntity
  8
DEFAULT
100
AcDbVertex
100
AcDb2dVertex
 10
0.7720208362593699
 20
12.75158214845369
 30
0.0
  0
VERTEX
  5
156
330
60
100
AcDbEntity
  8
DEFAULT
100
AcDbVertex
100
AcDb2dVertex
 10
0.7067786602069943
 20
12.63493881967664
 30
0.0
  0
VERTEX
  5
157
330
60
100
AcDbEntity
  8
DEFAULT
100
AcDbVertex
100
AcDb2dVertex
 10
0.6445621779638944
 20
12.51828447148521
 30
0.0
  0
VERTEX
  5
158
330
60
100
AcDbEntity
  8
DEFAULT
100
AcDbVertex
100
AcDb2dVertex
 10
0.5853566124771402
 20
12.40164642148438
 30
0.0
  0
VERTEX
  5
159
330
60
100
AcDbEntity
  8
DEFAULT
100
AcDbVertex
100
AcDb2dVertex
 10
0.5291459791450988
 20
12.28505162406446
 30
0.0
  0
VERTEX
  5
15A
330
60
100
AcDbEntity
  8
DEFAULT
100
AcDbVertex
100
AcDb2dVertex
 10
0.4759131179779312
 20
12.16852665554598
 30
0.0
  0
VERTEX
  5
15B
330
60
100
AcDbEntity
  8
DEFAULT
100
AcDbVertex
100
AcDb2dVertex
 10
0.4256397264763449
 20
12.0520977000559
 30
0.0
  0
VERTEX
  5
15C
330
60
100
AcDbEntity
  8
DEFAULT
100
AcDbVertex
100
AcDb2dVertex
 10
0.378306393158881
 20
11.93579053614088
 30
0.0
  0
VERTEX
  5
15D
330
60
100
AcDbEntity
  8
DEFAULT
100
AcDbVertex
100
AcDb2dVertex
 10
0.3338926316685124
 20
11.81963052412145
 30
0.0
  0
VERTEX
  5
15E
330
60
100
AcDbEntity
  8
DEFAULT
100
AcDbVertex
100
AcDb2dVertex
 10
0.2923769153899866
 20
11.70364259418947
 30
0.0
  0
VERTEX
  5
15F
330
60
100
AcDbEntity
  8
DEFAULT
100
AcDbVertex
100
AcDb2dVertex
 10
0.2537367125101764
 20
11.58785123524935
 30
0.0
  0
VERTEX
  5
160
330
60
100
AcDbEntity
  8
DEFAULT
100
AcDbVertex
100
AcDb2dVertex
 10
0.2179485214546903
 20
11.47228048450213
 30
0.0
  0
VERTEX
  5
161
330
60
100
AcDbEntity
  8
DEFAULT
100
AcDbVertex
100
AcDb2dVertex
 10
0.1849879066351279
 20
11.35695391776986
 30
0.0
  0
VERTEX
  5
162
330
60
100
AcDbEntity
  8
DEFAULT
100
AcDbVertex
100
AcDb2dVertex
 10
0.1548295344426452
 20
11.24189464055632
 30
0.0
  0
VERTEX
  5
163
330
60
100
AcDbEntity
  8
DEFAULT
100
AcDbVertex
100
AcDb2dVertex
 10
0.1274472094248969
 20
11.12712527983868
 30
0.0
  0
VERTEX
  5
164
330
60
100
AcDbEntity
  8
DEFAULT
100
AcDbVertex
100
AcDb2dVertex
 10
0.1028139105849533
 20
11.01266797658319
 30
0.0
  0
VERTEX
  5
165
330
60
100
AcDbEntity
  8
DEFAULT
100
AcDbVertex
100
AcDb2dVertex
 10
0.0809018277424262
 20
10.89854437897704
 30
0.0
  0
VERTEX
  5
166
330
60
100
AcDbEntity
  8
DEFAULT
100
AcDbVertex
100
AcDb2dVertex
 10
0.06168239789878
 20
10.78477563636696
 30
0.0
  0
VERTEX
  5
167
330
60
100
AcDbEntity
  8
DEFAULT
100
AcDbVertex
100
AcDb2dVertex
 10
0.0451263415506335
 20
10.67138239389404
 30
0.0
  0
VERTEX
  5
168
330
60
100
AcDbEntity
  8
DEFAULT
100
AcDbVertex
100
AcDb2dVertex
 10
0.031203698896776
 20
10.55838478781352
 30
0.0
  0
VERTEX
  5
169
330
60
100
AcDbEntity
  8
DEFAULT
100
AcDbVertex
100
AcDb2dVertex
 10
0.0198838658866044
 20
10.44580244148658
 30
0.0
  0
VERTEX
  5
16A
330
60
100
AcDbEntity
  8
DEFAULT
100
AcDbVertex
100
AcDb2dVertex
 10
0.0111356300597403
 20
10.333654462031
 30
0.0
  0
VERTEX
  5
16B
330
60
100
AcDbEntity
  8
DEFAULT
100
AcDbVertex
100
AcDb2dVertex
 10
0.0049272061286893
 20
10.22195943761605
 30
0.0
  0
VERTEX
  5
16C
330
60
100
AcDbEntity
  8
DEFAULT
100
AcDbVertex
100
AcDb2dVertex
 10
0.0012262712585546
 20
10.11073543538654
 30
0.0
  0
SEQEND
  5
16D
330
60
100
AcDbEntity
  8
DEFAULT
  0
ENDSEC
  0
SECTION
  2
OBJECTS
  0
DICTIONARY
  5
C
330
0
100
AcDbDictionary
  3
ACAD_GROUP
350
D
  3
ACAD_LAYOUT
350
1A
  3
ACAD_MATERIAL
350
43
  3
ACAD_MLEADERSTYLE
350
5B
  3
ACAD_MLINESTYLE
350
17
  3
ACAD_PLOTSETTINGS
350
19
  3
ACAD_SCALELIST
350
47
  3
ACAD_VISUALSTYLE
350
2A
  3
ACDBHEADERROUNDTRIPXREC
350
16E
  3
ACDBVARIABLEDICTIONARY
350
18F
  3
DWGPROPS
350
196
  0
DICTIONARY
  5
197
330
8
100
AcDbDictionary
280
     1
  3
ACAD_XREC_ROUNDTRIP
360
198
  0
DICTIONARY
  5
D
102
{ACAD_REACTORS
330
C
102
}
330
C
100
AcDbDictionary
  0
DICTIONARY
  5
1A
102
{ACAD_REACTORS
330
C
102
}
330
C
100
AcDbDictionary
  0
DICTIONARY
  5
43
102
{ACAD_REACTORS
330
C
102
}
330
C
100
AcDbDictionary
  3
BYBLOCK
350
45
  3
BYLAYER
350
44
  3
GLOBAL
350
46
  0
DICTIONARY
  5
5B
102
{ACAD_REACTORS
330
C
102
}
330
C
100
AcDbDictionary
  3
STANDARD
350
5C
  0
DICTIONARY
  5
17
102
{ACAD_REACTORS
330
C
102
}
330
C
100
AcDbDictionary
  3
STANDARD
350
18
  0
DICTIONARY
  5
19
102
{ACAD_REACTORS
330
C
102
}
330
C
100
AcDbDictionary
  0
DICTIONARY
  5
47
102
{ACAD_REACTORS
330
C
102
}
330
C
100
AcDbDictionary
  3
A0
350
48
  3
A1
350
49
  3
A2
350
4A
  3
A3
350
4B
  3
A4
350
4C
  3
A5
350
4D
  3
A6
350
4E
  3
A7
350
4F
  3
A8
350
50
  3
A9
350
51
  3
B1
350
52
  3
B2
350
53
  3
B3
350
54
  3
B4
350
55
  3
B5
350
56
  3
B6
350
57
  3
B7
350
58
  0
DICTIONARY
  5
2A
102
{ACAD_REACTORS
330
C
102
}
330
C
100
AcDbDictionary
  3
2DWIREFRAME
350
2F
  3
BASIC
350
32
  3
BRIGHTEN
350
36
  3
COLORCHANGE
350
3A
  3
CONCEPTUAL
350
34
  3
DIM
350
35
  3
EDGECOLOROFF
350
3D
  3
FACEPATTERN
350
39
  3
FLAT
350
2B
  3
FLATWITHEDGES
350
2C
  3
GOURAUD
350
2D
  3
GOURAUDWITHEDGES
350
2E
  3
HIDDEN
350
31
  3
JITTEROFF
350
3B
  3
LINEPATTERN
350
38
  3
OVERHANGOFF
350
3C
  3
REALISTIC
350
33
  3
SHADED
350
42
  3
SHADED_WITH_EDGES
350
41
  3
SHADES_OF_GRAY
350
3E
  3
SKETCHY
350
3F
  3
THICKEN
350
37
  3
WIREFRAME
350
30
  3
X-RAY
350
40
  0
DICTIONARY
  5
16E
102
{ACAD_REACTORS
330
C
102
}
330
C
100
AcDbDictionary
  3
CEPSNID
350
178
  3
CEPSNTYPE
350
177
  3
DIMSTYLEDATA
350
18E
  3
FINGERPRINTGUID
350
179
  3
HYPERLINKBASE
350
171
  3
INSUNITS
350
176
  3
LAYOUTDICT
350
173
  3
LWETCUNION
350
175
  3
PLOTSETDICT
350
174
  3
PSVPSCALE
350
17B
  3
PUCSBASE
350
17E
  3
PUCSORGBACK
350
184
  3
PUCSORGBOTTOM
350
180
  3
PUCSORGFRONT
350
183
  3
PUCSORGLEFT
350
181
  3
PUCSORGRIGHT
350
182
  3
PUCSORGTOP
350
17F
  3
PUCSORTHOREF
350
17C
  3
PUCSORTHOVIEW
350
17D
  3
STYLESHEET
350
172
  3
TSTACKALIGN
350
16F
  3
TSTACKSIZE
350
170
  3
UCSBASE
350
187
  3
UCSORGBACK
350
18D
  3
UCSORGBOTTOM
350
189
  3
UCSORGFRONT
350
18C
  3
UCSORGLEFT
350
18A
  3
UCSORGRIGHT
350
18B
  3
UCSORGTOP
350
188
  3
UCSORTHOREF
350
185
  3
UCSORTHOVIEW
350
186
  3
VERSIONGUID
350
17A
  0
DICTIONARY
  5
18F
102
{ACAD_REACTORS
330
C
102
}
330
C
100
AcDbDictionary
  3
CANNOSCALE
350
199
  3
CMLEADERSTYLE
350
191
  3
CTABLESTYLE
350
190
  3
DIMASSOC
350
194
  3
HIDETEXT
350
195
  3
MSLTSCALE
350
19A
  0
XRECORD
  5
196
102
{ACAD_REACTORS
330
C
102
}
330
C
100
AcDbXrecord
  1
DWGPROPS COOKIE
  2

  3

  4

  6

  7

  8
ClaTschenett
  9

300
=
301
=
302
=
303
=
304
=
305
=
306
=
307
=
308
=
309
=
 40
0.0
 41
2460133.501724792
 42
2460133.50181809
  1

 90
        0
  0
XRECORD
  5
198
102
{ACAD_REACTORS
330
197
102
}
330
197
100
AcDbXrecord
102
VTR_0.000_0.000_1.000_1.000_VISUALSTYLE
340
2F
102
VTR_0.000_0.000_1.000_1.000_GRIDDISPLAY
 70
     3
102
VTR_0.000_0.000_1.000_1.000_GRIDMAJOR
 70
     5
102
VTR_0.000_0.000_1.000_1.000_DEFAULTLIGHTING
280
     1
102
VTR_0.000_0.000_1.000_1.000_DEFAULTLIGHTINGTYPE
 70
     1
102
VTR_0.000_0.000_1.000_1.000_BRIGHTNESS
141
0.0
102
VTR_0.000_0.000_1.000_1.000_CONTRAST
142
0.0
  0
MATERIAL
  5
45
102
{ACAD_REACTORS
330
43
102
}
102
{ACAD_XDICTIONARY
360
19D
102
}
330
43
100
AcDbMaterial
  1
BYBLOCK
  0
MATERIAL
  5
44
102
{ACAD_REACTORS
330
43
102
}
102
{ACAD_XDICTIONARY
360
19B
102
}
330
43
100
AcDbMaterial
  1
BYLAYER
  0
MATERIAL
  5
46
102
{ACAD_REACTORS
330
43
102
}
102
{ACAD_XDICTIONARY
360
19F
102
}
330
43
100
AcDbMaterial
  1
GLOBAL
  0
ACAD_PROXY_OBJECT
  5
5C
102
{ACAD_REACTORS
330
5B
102
}
330
5B
100
AcDbProxyObject
 90
      499
 91
      505
 93
      610
310
40901902A4063FBFFFFFE056BD1B81E855B9FC0AD7A3703D0AD73F4214DD185B99185C9900AD7A3703D0AC73F90141901A02B5E8DC0F42B1CFC02B5E8DC0F42B1CFE5764000000000000300FC0
340
14
340
0
340
11
340
0
 94
        0
1001
ACAD_MLEADERVER
1070
     2
  0
MLINESTYLE
  5
18
102
{ACAD_REACTORS
330
17
102
}
330
17
100
AcDbMlineStyle
  2
Standard
 70
     0
  3

 62
   256
 51
90.0
 52
90.0
 71
     2
 49
0.5
 62
   256
  6
BYLAYER
 49
-0.5
 62
   256
  6
BYLAYER
  0
ACAD_PROXY_OBJECT
  5
48
102
{ACAD_REACTORS
330
47
102
}
330
47
100
AcDbProxyObject
 90
      499
 91
      503
 93
       41
310
903313A31580
  0
ACAD_PROXY_OBJECT
  5
49
102
{ACAD_REACTORS
330
47
102
}
330
47
100
AcDbProxyObject
 90
      499
 91
      503
 93
      257
310
90E312F31323822203D2031272D3022000000000000200FC000000000000284000
  0
ACAD_PROXY_OBJECT
  5
4A
102
{ACAD_REACTORS
330
47
102
}
330
47
100
AcDbProxyObject
 90
      499
 91
      503
 93
      249
310
90D312F363422203D2031272D3022000000000000240FC000000000000284000
  0
ACAD_PROXY_OBJECT
  5
4B
102
{ACAD_REACTORS
330
47
102
}
330
47
100
AcDbProxyObject
 90
      499
 91
      503
 93
      249
310
90D312F333222203D2031272D3022000000000000280FC000000000000284000
  0
ACAD_PROXY_OBJECT
  5
4C
102
{ACAD_REACTORS
330
47
102
}
330
47
100
AcDbProxyObject
 90
      499
 91
      503
 93
      249
310
90D312F313622203D2031272D30220000000000002C0FC000000000000284000
  0
ACAD_PROXY_OBJECT
  5
4D
102
{ACAD_REACTORS
330
47
102
}
330
47
100
AcDbProxyObject
 90
      499
 91
      503
 93
      249
310
90D332F333222203D2031272D30220000000000002E0FC000000000000284000
  0
ACAD_PROXY_OBJECT
  5
4E
102
{ACAD_REACTORS
330
47
102
}
330
47
100
AcDbProxyObject
 90
      499
 91
      503
 93
      241
310
90C312F3822203D2031272D3022000000000000300FC000000000000284000
  0
ACAD_PROXY_OBJECT
  5
4F
102
{ACAD_REACTORS
330
47
102
}
330
47
100
AcDbProxyObject
 90
      499
 91
      503
 93
      249
310
90D332F313622203D2031272D3022000000000000320FC000000000000284000
  0
ACAD_PROXY_OBJECT
  5
50
102
{ACAD_REACTORS
330
47
102
}
330
47
100
AcDbProxyObject
 90
      499
 91
      503
 93
      241
310
90C312F3422203D2031272D3022000000000000340FC000000000000284000
  0
ACAD_PROXY_OBJECT
  5
51
102
{ACAD_REACTORS
330
47
102
}
330
47
100
AcDbProxyObject
 90
      499
 91
      503
 93
      241
310
90C332F3822203D2031272D3022000000000000360FC000000000000284000
  0
ACAD_PROXY_OBJECT
  5
52
102
{ACAD_REACTORS
330
47
102
}
330
47
100
AcDbProxyObject
 90
      499
 91
      503
 93
      241
310
90C312F3222203D2031272D3022000000000000380FC000000000000284000
  0
ACAD_PROXY_OBJECT
  5
53
102
{ACAD_REACTORS
330
47
102
}
330
47
100
AcDbProxyObject
 90
      499
 91
      503
 93
      241
310
90C332F3422203D2031272D30220000000000003A0FC000000000000284000
  0
ACAD_PROXY_OBJECT
  5
54
102
{ACAD_REACTORS
330
47
102
}
330
47
100
AcDbProxyObject
 90
      499
 91
      503
 93
      161
310
90A3122203D2031272D30224000000000000284000
  0
ACAD_PROXY_OBJECT
  5
55
102
{ACAD_REACTORS
330
47
102
}
330
47
100
AcDbProxyObject
 90
      499
 91
      503
 93
      257
310
90E312D312F3222203D2031272D30220000000000003E0FC000000000000284000
  0
ACAD_PROXY_OBJECT
  5
56
102
{ACAD_REACTORS
330
47
102
}
330
47
100
AcDbProxyObject
 90
      499
 91
      503
 93
      225
310
90A3322203D2031272D302200000000000002100000000000000284000
  0
ACAD_PROXY_OBJECT
  5
57
102
{ACAD_REACTORS
330
47
102
}
330
47
100
AcDbProxyObject
 90
      499
 91
      503
 93
      225
310
90A3622203D2031272D302200000000000006100000000000000284000
  0
ACAD_PROXY_OBJECT
  5
58
102
{ACAD_REACTORS
330
47
102
}
330
47
100
AcDbProxyObject
 90
      499
 91
      503
 93
      249
310
90D31272D3022203D2031272D30220000000000000A100000000000000284000
  0
ACAD_PROXY_OBJECT
  5
2F
102
{ACAD_REACTORS
330
2A
102
}
330
2A
100
AcDbProxyObject
 90
      499
 91
      501
 93
      436
310
42CC9915DA5C99599C985B595049028333333333333E33F0000000000000F90107901411070040501600405405064090741402480A0340
1001
ACAD
1000
AcDbSavedByObjectVersion
1070
     0
  0
ACAD_PROXY_OBJECT
  5
32
102
{ACAD_REACTORS
330
2A
102
}
330
2A
100
AcDbProxyObject
 90
      499
 91
      501
 93
      388
310
4150985CDA58D07406404333333333333E33F0000000000000F90107A41107004050150841D405064090741402480A0350
1001
ACAD
1000
AcDbSavedByObjectVersion
1070
     0
  0
ACAD_PROXY_OBJECT
  5
36
102
{ACAD_REACTORS
330
2A
102
}
330
2A
100
AcDbProxyObject
 90
      499
 91
      501
 93
      428
310
42109C9A59DA1D195B90C409028333333333333E33F0000000000000F9010790141107004050150841D405064090741402480A029950
1001
ACAD
1000
AcDbSavedByObjectVersion
1070
     0
  0
ACAD_PROXY_OBJECT
  5
3A
102
{ACAD_REACTORS
330
2A
102
}
330
2A
100
AcDbProxyObject
 90
      499
 91
      501
 93
      452
310
42D0DBDB1BDC90DA185B99D95104090240C333333333333E33F0000000000000F90108901411070040501508421405064090741402480A0350
1001
ACAD
1000
AcDbSavedByObjectVersion
1070
     0
  0
ACAD_PROXY_OBJECT
  5
34
102
{ACAD_REACTORS
330
2A
102
}
330
2A
100
AcDbProxyObject
 90
      499
 91
      501
 93
      500
310
4290DBDB98D95C1D1D585B10940D028333333333333E33F0000000000000F90107902409070040501000000000018199010841D405064090740C02480A0340
1001
ACAD
1000
AcDbSavedByObjectVersion
1070
     0
  0
ACAD_PROXY_OBJECT
  5
35
102
{ACAD_REACTORS
330
2A
102
}
330
2A
100
AcDbProxyObject
 90
      499
 91
      501
 93
      412
310
40D11A5B50B409028333333333333E33F0000000000000F9010790141107004050150841D405064090741402480A02677FFFFFD0
1001
ACAD
1000
AcDbSavedByObjectVersion
1070
     0
  0
ACAD_PROXY_OBJECT
  5
3D
102
{ACAD_REACTORS
330
2A
102
}
330
2A
100
AcDbProxyObject
 90
      499
 91
      501
 93
      452
310
43115919D950DBDB1BDC93D999916409028333333333333E33F0000000000000F9010790141107004050150841D405064090741402480A0350
1001
ACAD
1000
AcDbSavedByObjectVersion
1070
     0
  0
ACAD_PROXY_OBJECT
  5
39
102
{ACAD_REACTORS
330
2A
102
}
330
2A
100
AcDbProxyObject
 90
      499
 91
      501
 93
      444
310
42D19858D95C185D1D195C9B90F409028333333333333E33F0000000000000F9010790141107004050150841D405064090741402480A0350
1001
ACAD
1000
AcDbSavedByObjectVersion
1070
     0
  0
ACAD_PROXY_OBJECT
  5
2B
102
{ACAD_REACTORS
330
2A
102
}
330
2A
100
AcDbProxyObject
 90
      499
 91
      501
 93
      380
310
41119B185D240901404333333333333E33F0000000000000F9010740A907004050150841D405064090741402480A1B50
1001
ACAD
1000
AcDbSavedByObjectVersion
1070
     0
  0
ACAD_PROXY_OBJECT
  5
2C
102
{ACAD_REACTORS
330
2A
102
}
330
2A
100
AcDbProxyObject
 90
      499
 91
      501
 93
      468
310
43519B185D15DA5D1A115919D95CD0140901404333333333333E33F0000000000000F90107409019070040501600405405064090741402480A1B50
1001
ACAD
1000
AcDbSavedByObjectVersion
1070
     0
  0
ACAD_PROXY_OBJECT
  5
2D
102
{ACAD_REACTORS
330
2A
102
}
330
2A
100
AcDbProxyObject
 90
      499
 91
      501
 93
      404
310
41D1DBDD5C985D5910240902404333333333333E33F0000000000000F9010740A9070040501641D405064090741402480A1B50
1001
ACAD
1000
AcDbSavedByObjectVersion
1070
     0
  0
ACAD_PROXY_OBJECT
  5
2E
102
{ACAD_REACTORS
330
2A
102
}
330
2A
100
AcDbProxyObject
 90
      499
 91
      501
 93
      492
310
4411DBDD5C985D5915DA5D1A115919D95CD0340902404333333333333E33F0000000000000F90107409019070040501600405405064090741402480A1B50
1001
ACAD
1000
AcDbSavedByObjectVersion
1070
     0
  0
ACAD_PROXY_OBJECT
  5
31
102
{ACAD_REACTORS
330
2A
102
}
330
2A
100
AcDbProxyObject
 90
      499
 91
      501
 93
      476
310
41921A5919195B90640502408333333333333E33F0000000000000F901079024090700405020000000000001110200405405064090740C02480A0340
1001
ACAD
1000
AcDbSavedByObjectVersion
1070
     0
  0
ACAD_PROXY_OBJECT
  5
3B
102
{ACAD_REACTORS
330
2A
102
}
330
2A
100
AcDbProxyObject
 90
      499
 91
      501
 93
      428
310
42529A5D1D195C93D999914409028333333333333E33F0000000000000F9010790141107004050150A41D405064090741402480A0350
1001
ACAD
1000
AcDbSavedByObjectVersion
1070
     0
  0
ACAD_PROXY_OBJECT
  5
38
102
{ACAD_REACTORS
330
2A
102
}
330
2A
100
AcDbProxyObject
 90
      499
 91
      501
 93
      444
310
42D31A5B995C185D1D195C9B90E409028333333333333E33F0000000000000F9010790141107004050750841D405064090741402483A0350
1001
ACAD
1000
AcDbSavedByObjectVersion
1070
     0
  0
ACAD_PROXY_OBJECT
  5
3C
102
{ACAD_REACTORS
330
2A
102
}
330
2A
100
AcDbProxyObject
 90
      499
 91
      501
 93
      444
310
42D3DD995C9A185B99D3D999915409028333333333333E33F0000000000000F9010790141107004050150941D405064090741402480A0350
1001
ACAD
1000
AcDbSavedByObjectVersion
1070
     0
  0
ACAD_PROXY_OBJECT
  5
33
102
{ACAD_REACTORS
330
2A
102
}
330
2A
100
AcDbProxyObject
 90
      499
 91
      501
 93
      428
310
425499585B1A5CDD1A58D08409038333333333333E33F0000000000000F9010740A907004050150800405405064090740C02480A1B40
1001
ACAD
1000
AcDbSavedByObjectVersion
1070
     0
  0
ACAD_PROXY_OBJECT
  5
42
102
{ACAD_REACTORS
330
2A
102
}
330
2A
100
AcDbProxyObject
 90
      499
 91
      501
 93
      420
310
4194DA1859195911B40902404333333333333E33F0000000000000F9010740A41107004050150800405405064090840C02480A0B40
1001
ACAD
1000
AcDbSavedByObjectVersion
1070
     0
  0
ACAD_PROXY_OBJECT
  5
41
102
{ACAD_REACTORS
330
2A
102
}
330
2A
100
AcDbProxyObject
 90
      499
 91
      501
 93
      516
310
4454DA18591959081DDA5D1A08195919D95CD1A40902404333333333333E33F0000000000000F901074090142907004050250800405405064090740C02480A0B40
1001
ACAD
1000
AcDbSavedByObjectVersion
1070
     0
  0
ACAD_PROXY_OBJECT
  5
3E
102
{ACAD_REACTORS
330
2A
102
}
330
2A
100
AcDbProxyObject
 90
      499
 91
      501
 93
      532
310
4394DA1859195CC81BD98811DC985E5174090240C333333333333E33F0000000000000F901079024090741D01000000000000111010841D405064090740C02480A0340
1001
ACAD
1000
AcDbSavedByObjectVersion
1070
     0
  0
ACAD_PROXY_OBJECT
  5
3F
102
{ACAD_REACTORS
330
2A
102
}
330
2A
100
AcDbProxyObject
 90
      499
 91
      501
 93
      476
310
41D4DAD95D18DA1E51840502408333333333333E33F0000000000000F901079024090741D01000000000000111010B41D405064090741802480A0340
1001
ACAD
1000
AcDbSavedByObjectVersion
1070
     0
  0
ACAD_PROXY_OBJECT
  5
37
102
{ACAD_REACTORS
330
2A
102
}
330
2A
100
AcDbProxyObject
 90
      499
 91
      501
 93
      412
310
41D51A1A58DAD95B90D409028333333333333E33F0000000000000F9010790141107004050150C41D405064090741402480A0350
1001
ACAD
1000
AcDbSavedByObjectVersion
1070
     0
  0
ACAD_PROXY_OBJECT
  5
30
102
{ACAD_REACTORS
330
2A
102
}
330
2A
100
AcDbProxyObject
 90
      499
 91
      501
 93
      420
310
4255DA5C99599C985B595059028333333333333E33F0000000000000F90107901411070040501600405405064090740C02480A0340
1001
ACAD
1000
AcDbSavedByObjectVersion
1070
     0
  0
ACAD_PROXY_OBJECT
  5
40
102
{ACAD_REACTORS
330
2A
102
}
330
2A
100
AcDbProxyObject
 90
      499
 91
      501
 93
      404
310
41560B54985E51940902404000000000000E03F0000000000000F9010740501907004050150841D405064090740C02480A1B40
1001
ACAD
1000
AcDbSavedByObjectVersion
1070
     0
  0
XRECORD
  5
178
102
{ACAD_REACTORS
330
16E
102
}
330
16E
100
AcDbXrecord
340
0
  0
XRECORD
  5
177
102
{ACAD_REACTORS
330
16E
102
}
330
16E
100
AcDbXrecord
 90
        0
  0
XRECORD
  5
18E
102
{ACAD_REACTORS
330
16E
102
}
330
16E
100
AcDbXrecord
1000
DSTYLE
1002
{
1070
   171
 70
     2
1070
   143
 40
25.4
1070
   274
 70
     2
1070
    41
 40
0.18
1070
   141
 40
0.09
1070
   271
 70
     4
1070
    43
 40
0.38
1070
   278
 70
    46
1070
    44
 40
0.18
1070
    42
 40
0.0625
1070
   147
 40
0.09
1070
    77
 70
     0
1070
   272
 70
     4
1070
    73
 70
     1
1070
   279
 70
     2
1070
   172
 70
     0
1070
    74
 70
     1
1070
   283
 70
     1
1070
   340
340
11
1070
   140
 40
0.18
1070
   284
 70
     0
1070
    78
 70
     0
1002
}
  0
XRECORD
  5
179
102
{ACAD_REACTORS
330
16E
102
}
330
16E
100
AcDbXrecord
  1
{276cbb3e-ba46-4a15-8a04-7ebeeeb5009d}
  0
XRECORD
  5
171
102
{ACAD_REACTORS
330
16E
102
}
330
16E
100
AcDbXrecord
  1

  0
XRECORD
  5
176
102
{ACAD_REACTORS
330
16E
102
}
330
16E
100
AcDbXrecord
 90
        4
  0
XRECORD
  5
173
102
{ACAD_REACTORS
330
16E
102
}
330
16E
100
AcDbXrecord
340
1A
  0
XRECORD
  5
175
102
{ACAD_REACTORS
330
16E
102
}
330
16E
100
AcDbXrecord
 90
    10781
  0
XRECORD
  5
174
102
{ACAD_REACTORS
330
16E
102
}
330
16E
100
AcDbXrecord
340
19
  0
XRECORD
  5
17B
102
{ACAD_REACTORS
330
16E
102
}
330
16E
100
AcDbXrecord
 40
0.0
  0
XRECORD
  5
17E
102
{ACAD_REACTORS
330
16E
102
}
330
16E
100
AcDbXrecord
340
0
  0
XRECORD
  5
184
102
{ACAD_REACTORS
330
16E
102
}
330
16E
100
AcDbXrecord
 10
0.0
 20
0.0
 30
0.0
  0
XRECORD
  5
180
102
{ACAD_REACTORS
330
16E
102
}
330
16E
100
AcDbXrecord
 10
0.0
 20
0.0
 30
0.0
  0
XRECORD
  5
183
102
{ACAD_REACTORS
330
16E
102
}
330
16E
100
AcDbXrecord
 10
0.0
 20
0.0
 30
0.0
  0
XRECORD
  5
181
102
{ACAD_REACTORS
330
16E
102
}
330
16E
100
AcDbXrecord
 10
0.0
 20
0.0
 30
0.0
  0
XRECORD
  5
182
102
{ACAD_REACTORS
330
16E
102
}
330
16E
100
AcDbXrecord
 10
0.0
 20
0.0
 30
0.0
  0
XRECORD
  5
17F
102
{ACAD_REACTORS
330
16E
102
}
330
16E
100
AcDbXrecord
 10
0.0
 20
0.0
 30
0.0
  0
XRECORD
  5
17C
102
{ACAD_REACTORS
330
16E
102
}
330
16E
100
AcDbXrecord
340
0
  0
XRECORD
  5
17D
102
{ACAD_REACTORS
330
16E
102
}
330
16E
100
AcDbXrecord
 70
     0
  0
XRECORD
  5
172
102
{ACAD_REACTORS
330
16E
102
}
330
16E
100
AcDbXrecord
  1

  0
XRECORD
  5
16F
102
{ACAD_REACTORS
330
16E
102
}
330
16E
100
AcDbXrecord
 90
        1
  0
XRECORD
  5
170
102
{ACAD_REACTORS
330
16E
102
}
330
16E
100
AcDbXrecord
 90
       70
  0
XRECORD
  5
187
102
{ACAD_REACTORS
330
16E
102
}
330
16E
100
AcDbXrecord
340
0
  0
XRECORD
  5
18D
102
{ACAD_REACTORS
330
16E
102
}
330
16E
100
AcDbXrecord
 10
0.0
 20
0.0
 30
0.0
  0
XRECORD
  5
189
102
{ACAD_REACTORS
330
16E
102
}
330
16E
100
AcDbXrecord
 10
0.0
 20
0.0
 30
0.0
  0
XRECORD
  5
18C
102
{ACAD_REACTORS
330
16E
102
}
330
16E
100
AcDbXrecord
 10
0.0
 20
0.0
 30
0.0
  0
XRECORD
  5
18A
102
{ACAD_REACTORS
330
16E
102
}
330
16E
100
AcDbXrecord
 10
0.0
 20
0.0
 30
0.0
  0
XRECORD
  5
18B
102
{ACAD_REACTORS
330
16E
102
}
330
16E
100
AcDbXrecord
 10
0.0
 20
0.0
 30
0.0
  0
XRECORD
  5
188
102
{ACAD_REACTORS
330
16E
102
}
330
16E
100
AcDbXrecord
 10
0.0
 20
0.0
 30
0.0
  0
XRECORD
  5
185
102
{ACAD_REACTORS
330
16E
102
}
330
16E
100
AcDbXrecord
340
0
  0
XRECORD
  5
186
102
{ACAD_REACTORS
330
16E
102
}
330
16E
100
AcDbXrecord
 70
     0
  0
XRECORD
  5
17A
102
{ACAD_REACTORS
330
16E
102
}
330
16E
100
AcDbXrecord
  1
{FAEB1C32-E019-11D5-929B-00C0DF256EC4}
  0
DICTIONARYVAR
  5
199
102
{ACAD_REACTORS
330
18F
102
}
330
18F
100
DictionaryVariables
280
     0
  1
1:1
  0
DICTIONARYVAR
  5
191
102
{ACAD_REACTORS
330
18F
102
}
330
18F
100
DictionaryVariables
280
     0
  1
Standard
  0
DICTIONARYVAR
  5
190
102
{ACAD_REACTORS
330
18F
102
}
330
18F
100
DictionaryVariables
280
     0
  1
Standard
  0
DICTIONARYVAR
  5
194
102
{ACAD_REACTORS
330
18F
102
}
330
18F
100
DictionaryVariables
280
     0
  1
2
  0
DICTIONARYVAR
  5
195
102
{ACAD_REACTORS
330
18F
102
}
330
18F
100
DictionaryVariables
280
     0
  1
1
  0
DICTIONARYVAR
  5
19A
102
{ACAD_REACTORS
330
18F
102
}
330
18F
100
DictionaryVariables
280
     0
  1
1
  0
DICTIONARY
  5
19D
330
45
100
AcDbDictionary
280
     1
  3
ACAD_XREC_ROUNDTRIP
360
19E
  0
DICTIONARY
  5
19B
330
44
100
AcDbDictionary
280
     1
  3
ACAD_XREC_ROUNDTRIP
360
19C
  0
DICTIONARY
  5
19F
330
46
100
AcDbDictionary
280
     1
  3
ACAD_XREC_ROUNDTRIP
360
1A0
  0
XRECORD
  5
19E
102
{ACAD_REACTORS
330
19D
102
}
330
19D
100
AcDbXrecord
102
MATERIAL
148
0.0
149
0.0
149
0.0
 93
        0
 94
      127
282
     0
 72
     1
 77
     1
171
     1
175
     1
179
     1
273
     0
  0
XRECORD
  5
19C
102
{ACAD_REACTORS
330
19B
102
}
330
19B
100
AcDbXrecord
102
MATERIAL
148
0.0
149
0.0
149
0.0
 93
        0
 94
      127
282
     0
 72
     1
 77
     1
171
     1
175
     1
179
     1
273
     0
  0
XRECORD
  5
1A0
102
{ACAD_REACTORS
330
19F
102
}
330
19F
100
AcDbXrecord
102
MATERIAL
148
0.0
149
0.0
149
0.0
 93
        0
 94
      127
282
     0
 72
     1
 77
     1
171
     1
175
     1
179
     1
273
     0
  0
ENDSEC
  0
EOF
