  0
SECTION
  2
HEADER
  9
$ACADVER
  1
AC1014
  9
$ACADMAINTVER
 70
     9
  9
$DWGCODEPAGE
  3
ANSI_1252
  9
$INSBASE
 10
0.0
 20
0.0
 30
0.0
  9
$EXTMIN
 10
0.0
 20
0.0
 30
0.0
  9
$EXTMAX
 10
100.0
 20
100.0
 30
0.0
  9
$LIMMIN
 10
0.0
 20
0.0
  9
$LIMMAX
 10
12.0
 20
9.0
  9
$ORTHOMODE
 70
     0
  9
$REGENMODE
 70
     1
  9
$FILLMODE
 70
     1
  9
$QTEXTMODE
 70
     0
  9
$MIRRTEXT
 70
     1
  9
$DRAGMODE
 70
     2
  9
$LTSCALE
 40
1.0
  9
$OSMODE
 70
    37
  9
$ATTMODE
 70
     1
  9
$TEXTSIZE
 40
0.2
  9
$TRACEWID
 40
0.05
  9
$TEXTSTYLE
  7
STANDARD
  9
$CLAYER
  8
DEFAULT
  9
$CELTYPE
  6
BYLAYER
  9
$CECOLOR
 62
   256
  9
$CELTSCALE
 40
1.0
  9
$DELOBJ
 70
     1
  9
$DISPSILH
 70
     0
  9
$DIMSCALE
 40
1.0
  9
$DIMASZ
 40
0.18
  9
$DIMEXO
 40
0.0625
  9
$DIMDLI
 40
0.38
  9
$DIMRND
 40
0.0
  9
$DIMDLE
 40
0.0
  9
$DIMEXE
 40
0.18
  9
$DIMTP
 40
0.0
  9
$DIMTM
 40
0.0
  9
$DIMTXT
 40
0.18
  9
$DIMCEN
 40
0.09
  9
$DIMTSZ
 40
0.0
  9
$DIMTOL
 70
     0
  9
$DIMLIM
 70
     0
  9
$DIMTIH
 70
     1
  9
$DIMTOH
 70
     1
  9
$DIMSE1
 70
     0
  9
$DIMSE2
 70
     0
  9
$DIMTAD
 70
     0
  9
$DIMZIN
 70
     0
  9
$DIMBLK
  1

  9
$DIMASO
 70
     1
  9
$DIMSHO
 70
     1
  9
$DIMPOST
  1

  9
$DIMAPOST
  1

  9
$DIMALT
 70
     0
  9
$DIMALTD
 70
     2
  9
$DIMALTF
 40
25.4
  9
$DIMLFAC
 40
1.0
  9
$DIMTOFL
 70
     0
  9
$DIMTVP
 40
0.0
  9
$DIMTIX
 70
     0
  9
$DIMSOXD
 70
     0
  9
$DIMSAH
 70
     0
  9
$DIMBLK1
  1

  9
$DIMBLK2
  1

  9
$DIMSTYLE
  2
STANDARD_ACAD
  9
$DIMCLRD
 70
     0
  9
$DIMCLRE
 70
     0
  9
$DIMCLRT
 70
     0
  9
$DIMTFAC
 40
1.0
  9
$DIMGAP
 40
0.09
  9
$DIMJUST
 70
     0
  9
$DIMSD1
 70
     0
  9
$DIMSD2
 70
     0
  9
$DIMTOLJ
 70
     1
  9
$DIMTZIN
 70
     0
  9
$DIMALTZ
 70
     0
  9
$DIMALTTZ
 70
     0
  9
$DIMFIT
 70
     5
  9
$DIMUPT
 70
     0
  9
$DIMUNIT
 70
     2
  9
$DIMDEC
 70
     4
  9
$DIMTDEC
 70
     4
  9
$DIMALTU
 70
     2
  9
$DIMALTTD
 70
     2
  9
$DIMTXSTY
  7
STANDARD
  9
$DIMAUNIT
 70
     0
  9
$LUNITS
 70
     2
  9
$LUPREC
 70
     3
  9
$SKETCHINC
 40
0.1
  9
$FILLETRAD
 40
0.0
  9
$AUNITS
 70
     0
  9
$AUPREC
 70
     0
  9
$MENU
  1
.
  9
$ELEVATION
 40
0.0
  9
$PELEVATION
 40
0.0
  9
$THICKNESS
 40
0.0
  9
$LIMCHECK
 70
     0
  9
$CHAMFERA
 40
0.0
  9
$CHAMFERB
 40
0.0
  9
$CHAMFERC
 40
0.0
  9
$CHAMFERD
 40
0.0
  9
$SKPOLY
 70
     0
  9
$TDCREATE
 40
2460133.557581193
  9
$TDUPDATE
 40
2460133.557600718
  9
$TDINDWG
 40
0.0000000116
  9
$TDUSRTIMER
 40
0.0000000116
  9
$USRTIMER
 70
     1
  9
$ANGBASE
 50
0.0
  9
$ANGDIR
 70
     0
  9
$PDMODE
 70
     0
  9
$PDSIZE
 40
0.0
  9
$PLINEWID
 40
0.0
  9
$COORDS
 70
     1
  9
$SPLFRAME
 70
     0
  9
$SPLINETYPE
 70
     6
  9
$SPLINESEGS
 70
     8
  9
$ATTDIA
 70
     0
  9
$ATTREQ
 70
     1
  9
$HANDLING
 70
     1
  9
$HANDSEED
  5
17A
  9
$SURFTAB1
 70
     6
  9
$SURFTAB2
 70
     6
  9
$SURFTYPE
 70
     6
  9
$SURFU
 70
     6
  9
$SURFV
 70
     6
  9
$UCSNAME
  2

  9
$UCSORG
 10
0.0
 20
0.0
 30
0.0
  9
$UCSXDIR
 10
1.0
 20
0.0
 30
0.0
  9
$UCSYDIR
 10
0.0
 20
1.0
 30
0.0
  9
$PUCSNAME
  2

  9
$PUCSORG
 10
0.0
 20
0.0
 30
0.0
  9
$PUCSXDIR
 10
1.0
 20
0.0
 30
0.0
  9
$PUCSYDIR
 10
0.0
 20
1.0
 30
0.0
  9
$USERI1
 70
     0
  9
$USERI2
 70
     0
  9
$USERI3
 70
     0
  9
$USERI4
 70
     0
  9
$USERI5
 70
     0
  9
$USERR1
 40
0.0
  9
$USERR2
 40
0.0
  9
$USERR3
 40
0.0
  9
$USERR4
 40
0.0
  9
$USERR5
 40
0.0
  9
$WORLDVIEW
 70
     1
  9
$SHADEDGE
 70
     3
  9
$SHADEDIF
 70
    70
  9
$TILEMODE
 70
     1
  9
$MAXACTVP
 70
    64
  9
$PINSBASE
 10
0.0
 20
0.0
 30
0.0
  9
$PLIMCHECK
 70
     0
  9
$PEXTMIN
 10
1.000000000000000E+20
 20
1.000000000000000E+20
 30
1.000000000000000E+20
  9
$PEXTMAX
 10
-1.000000000000000E+20
 20
-1.000000000000000E+20
 30
-1.000000000000000E+20
  9
$PLIMMIN
 10
0.0
 20
0.0
  9
$PLIMMAX
 10
12.0
 20
9.0
  9
$UNITMODE
 70
     0
  9
$VISRETAIN
 70
     1
  9
$PLINEGEN
 70
     0
  9
$PSLTSCALE
 70
     1
  9
$TREEDEPTH
 70
  3020
  9
$PICKSTYLE
 70
     1
  9
$CMLSTYLE
  2
STANDARD
  9
$CMLJUST
 70
     0
  9
$CMLSCALE
 40
1.0
  9
$PROXYGRAPHICS
 70
     1
  9
$MEASUREMENT
 70
     1
  0
ENDSEC
  0
SECTION
  2
CLASSES
  0
CLASS
  1
ACDBDICTIONARYWDFLT
  2
AcDbDictionaryWithDefault
  3
ObjectDBX Classes
 90
        0
280
     0
281
     0
  0
CLASS
  1
VISUALSTYLE
  2
AcDbVisualStyle
  3
ObjectDBX Classes
 90
     4095
280
     0
281
     0
  0
CLASS
  1
MATERIAL
  2
AcDbMaterial
  3
ObjectDBX Classes
 90
     1153
280
     0
281
     0
  0
CLASS
  1
SCALE
  2
AcDbScale
  3
ObjectDBX Classes
 90
     1153
280
     0
281
     0
  0
CLASS
  1
TABLESTYLE
  2
AcDbTableStyle
  3
ObjectDBX Classes
 90
     4095
280
     0
281
     0
  0
CLASS
  1
MLEADERSTYLE
  2
AcDbMLeaderStyle
  3
ACDB_MLEADERSTYLE_CLASS
 90
     4095
280
     0
281
     0
  0
CLASS
  1
SUN
  2
AcDbSun
  3
SCENEOE
 90
     1153
280
     0
281
     0
  0
CLASS
  1
DICTIONARYVAR
  2
AcDbDictionaryVar
  3
ObjectDBX Classes
 90
        0
280
     0
281
     0
  0
CLASS
  1
XRECORD
  2
AcDbXrecord
  3
ObjectDBX Classes
 90
        0
280
     0
281
     0
  0
CLASS
  1
LWPOLYLINE
  2
AcDbPolyline
  3
ObjectDBX Classes
 90
        0
280
     0
281
     1
  0
CLASS
  1
HATCH
  2
AcDbHatch
  3
ObjectDBX Classes
 90
        0
280
     0
281
     1
  0
CLASS
  1
ACDBPLACEHOLDER
  2
AcDbPlaceHolder
  3
ObjectDBX Classes
 90
        0
280
     0
281
     0
  0
CLASS
  1
LAYOUT
  2
AcDbLayout
  3
ObjectDBX Classes
 90
        0
280
     0
281
     0
  0
ENDSEC
  0
SECTION
  2
TABLES
  0
TABLE
  2
VPORT
  5
8
102
{ACAD_XDICTIONARY
360
16F
102
}
330
0
100
AcDbSymbolTable
 70
     1
  0
VPORT
  5
29
330
8
100
AcDbSymbolTableRecord
100
AcDbViewportTableRecord
  2
*ACTIVE
 70
     0
 10
0.0
 20
0.0
 11
1.0
 21
1.0
 12
10.42990654205607
 22
4.5
 13
0.0
 23
0.0
 14
0.5
 24
0.5
 15
0.5
 25
0.5
 16
0.0
 26
0.0
 36
1.0
 17
0.0
 27
0.0
 37
0.0
 40
9.0
 41
1.972972972850329
 42
50.0
 43
0.0
 44
0.0
 50
0.0
 51
0.0
 71
     0
 72
   100
 73
     1
 74
     3
 75
     0
 76
     0
 77
     0
 78
     0
  0
ENDTAB
  0
TABLE
  2
LTYPE
  5
5
330
0
100
AcDbSymbolTable
 70
     1
  0
LTYPE
  5
14
330
5
100
AcDbSymbolTableRecord
100
AcDbLinetypeTableRecord
  2
BYBLOCK
 70
     0
  3

 72
    65
 73
     0
 40
0.0
  0
LTYPE
  5
15
330
5
100
AcDbSymbolTableRecord
100
AcDbLinetypeTableRecord
  2
BYLAYER
 70
     0
  3

 72
    65
 73
     0
 40
0.0
  0
LTYPE
  5
16
330
5
100
AcDbSymbolTableRecord
100
AcDbLinetypeTableRecord
  2
CONTINUOUS
 70
     0
  3
Solid line
 72
    65
 73
     0
 40
0.0
  0
ENDTAB
  0
TABLE
  2
LAYER
  5
2
330
0
100
AcDbSymbolTable
 70
     2
  0
LAYER
  5
10
330
2
100
AcDbSymbolTableRecord
100
AcDbLayerTableRecord
  2
0
 70
     0
 62
     7
  6
CONTINUOUS
  0
LAYER
  5
5F
330
2
100
AcDbSymbolTableRecord
100
AcDbLayerTableRecord
  2
DEFAULT
 70
     0
 62
    18
  6
CONTINUOUS
  0
ENDTAB
  0
TABLE
  2
STYLE
  5
3
330
0
100
AcDbSymbolTable
 70
     1
  0
STYLE
  5
11
330
3
100
AcDbSymbolTableRecord
100
AcDbTextStyleTableRecord
  2
STANDARD
 70
     0
 40
0.0
 41
1.0
 50
0.0
 71
     0
 42
0.2
  3
txt
  4

  0
ENDTAB
  0
TABLE
  2
VIEW
  5
6
330
0
100
AcDbSymbolTable
 70
     0
  0
ENDTAB
  0
TABLE
  2
UCS
  5
7
330
0
100
AcDbSymbolTable
 70
     0
  0
ENDTAB
  0
TABLE
  2
APPID
  5
9
330
0
100
AcDbSymbolTable
 70
     3
  0
APPID
  5
12
330
9
100
AcDbSymbolTableRecord
100
AcDbRegAppTableRecord
  2
ACAD
 70
     0
  0
APPID
  5
5E
330
9
100
AcDbSymbolTableRecord
100
AcDbRegAppTableRecord
  2
RHINO
 70
     0
  0
APPID
  5
179
330
9
100
AcDbSymbolTableRecord
100
AcDbRegAppTableRecord
  2
ACAD_MLEADERVER
 70
     0
  0
ENDTAB
  0
TABLE
  2
DIMSTYLE
  5
A
330
0
100
AcDbSymbolTable
 70
     1
  0
DIMSTYLE
105
27
330
A
100
AcDbSymbolTableRecord
100
AcDbDimStyleTableRecord
  2
STANDARD_ACAD
 70
     0
  3

  4

  5

  6

  7

 40
1.0
 41
0.18
 42
0.0625
 43
0.38
 44
0.18
 45
0.0
 46
0.0
 47
0.0
 48
0.0
140
0.18
141
0.09
142
0.0
143
25.4
144
1.0
145
0.0
146
1.0
147
0.09
 71
     0
 72
     0
 73
     1
 74
     1
 75
     0
 76
     0
 77
     0
 78
     0
170
     0
171
     2
172
     0
173
     0
174
     0
175
     0
176
     0
177
     0
178
     0
270
     2
271
     4
272
     4
273
     2
274
     2
340
11
275
     0
280
     0
281
     0
282
     0
283
     1
284
     0
285
     0
286
     0
287
     3
288
     0
  0
ENDTAB
  0
TABLE
  2
BLOCK_RECORD
  5
1
330
0
100
AcDbSymbolTable
 70
     0
  0
BLOCK_RECORD
  5
1F
330
1
100
AcDbSymbolTableRecord
100
AcDbBlockTableRecord
  2
*MODEL_SPACE
  0
BLOCK_RECORD
  5
1B
330
1
100
AcDbSymbolTableRecord
100
AcDbBlockTableRecord
  2
*PAPER_SPACE
  0
ENDTAB
  0
ENDSEC
  0
SECTION
  2
BLOCKS
  0
BLOCK
  5
20
330
1F
100
AcDbEntity
  8
0
100
AcDbBlockBegin
  2
*MODEL_SPACE
 70
     0
 10
0.0
 20
0.0
 30
0.0
  3
*MODEL_SPACE
  1

  0
ENDBLK
  5
21
330
1F
100
AcDbEntity
  8
0
100
AcDbBlockEnd
  0
BLOCK
  5
1C
330
1B
100
AcDbEntity
 67
     1
  8
0
100
AcDbBlockBegin
  2
*PAPER_SPACE
 70
     0
 10
0.0
 20
0.0
 30
0.0
  3
*PAPER_SPACE
  1

  0
ENDBLK
  5
1D
330
1B
100
AcDbEntity
 67
     1
  8
0
100
AcDbBlockEnd
  0
ENDSEC
  0
SECTION
  2
ENTITIES
  0
POLYLINE
  5
60
330
1F
100
AcDbEntity
  8
DEFAULT
100
AcDb2dPolyline
 66
     1
 10
0.0
 20
0.0
 30
0.0
  0
VERTEX
  5
61
330
60
100
AcDbEntity
  8
DEFAULT
100
AcDbVertex
100
AcDb2dVertex
 10
0.0
 20
0.0
 30
0.0
  0
VERTEX
  5
62
330
60
100
AcDbEntity
  8
DEFAULT
100
AcDbVertex
100
AcDb2dVertex
 10
2.218395707635362
 20
4.137979494575658
 30
0.0
  0
VERTEX
  5
63
330
60
100
AcDbEntity
  8
DEFAULT
100
AcDbVertex
100
AcDb2dVertex
 10
4.357818017664251
 20
7.969157177413534
 30
0.0
  0
VERTEX
  5
64
330
60
100
AcDbEntity
  8
DEFAULT
100
AcDbVertex
100
AcDb2dVertex
 10
5.398644666591732
 20
9.77315974673338
 30
0.0
  0
VERTEX
  5
65
330
60
100
AcDbEntity
  8
DEFAULT
100
AcDbVertex
100
AcDb2dVertex
 10
6.42060458773615
 20
11.50461915188187
 30
0.0
  0
VERTEX
  5
66
330
60
100
AcDbEntity
  8
DEFAULT
100
AcDbVertex
100
AcDb2dVertex
 10
7.423989988303691
 20
13.16492115578004
 30
0.0
  0
VERTEX
  5
67
330
60
100
AcDbEntity
  8
DEFAULT
100
AcDbVertex
100
AcDb2dVertex
 10
8.40909307550054
 20
14.75545152134891
 30
0.0
  0
VERTEX
  5
68
330
60
100
AcDbEntity
  8
DEFAULT
100
AcDbVertex
100
AcDb2dVertex
 10
9.376206056532883
 20
16.27759601150953
 30
0.0
  0
VERTEX
  5
69
330
60
100
AcDbEntity
  8
DEFAULT
100
AcDbVertex
100
AcDb2dVertex
 10
10.3256211386069
 20
17.73274038918291
 30
0.0
  0
VERTEX
  5
6A
330
60
100
AcDbEntity
  8
DEFAULT
100
AcDbVertex
100
AcDb2dVertex
 10
11.25763052892879
 20
19.12227041729009
 30
0.0
  0
VERTEX
  5
6B
330
60
100
AcDbEntity
  8
DEFAULT
100
AcDbVertex
100
AcDb2dVertex
 10
12.17252643470472
 20
20.4475718587521
 30
0.0
  0
VERTEX
  5
6C
330
60
100
AcDbEntity
  8
DEFAULT
100
AcDbVertex
100
AcDb2dVertex
 10
13.07060106314088
 20
21.71003047648997
 30
0.0
  0
VERTEX
  5
6D
330
60
100
AcDbEntity
  8
DEFAULT
100
AcDbVertex
100
AcDb2dVertex
 10
13.95214662144346
 20
22.91103203342473
 30
0.0
  0
VERTEX
  5
6E
330
60
100
AcDbEntity
  8
DEFAULT
100
AcDbVertex
100
AcDb2dVertex
 10
14.81745531681865
 20
24.05196229247741
 30
0.0
  0
VERTEX
  5
6F
330
60
100
AcDbEntity
  8
DEFAULT
100
AcDbVertex
100
AcDb2dVertex
 10
15.66681935647263
 20
25.13420701656905
 30
0.0
  0
VERTEX
  5
70
330
60
100
AcDbEntity
  8
DEFAULT
100
AcDbVertex
100
AcDb2dVertex
 10
16.50053094761158
 20
26.15915196862067
 30
0.0
  0
VERTEX
  5
71
330
60
100
AcDbEntity
  8
DEFAULT
100
AcDbVertex
100
AcDb2dVertex
 10
17.31888229744169
 20
27.1281829115533
 30
0.0
  0
VERTEX
  5
72
330
60
100
AcDbEntity
  8
DEFAULT
100
AcDbVertex
100
AcDb2dVertex
 10
18.12216561316914
 20
28.04268560828797
 30
0.0
  0
VERTEX
  5
73
330
60
100
AcDbEntity
  8
DEFAULT
100
AcDbVertex
100
AcDb2dVertex
 10
18.91067310200013
 20
28.90404582174572
 30
0.0
  0
VERTEX
  5
74
330
60
100
AcDbEntity
  8
DEFAULT
100
AcDbVertex
100
AcDb2dVertex
 10
19.68469697114082
 20
29.71364931484757
 30
0.0
  0
VERTEX
  5
75
330
60
100
AcDbEntity
  8
DEFAULT
100
AcDbVertex
100
AcDb2dVertex
 10
20.44452942779743
 20
30.47288185051455
 30
0.0
  0
VERTEX
  5
76
330
60
100
AcDbEntity
  8
DEFAULT
100
AcDbVertex
100
AcDb2dVertex
 10
21.19046267917611
 20
31.18312919166771
 30
0.0
  0
VERTEX
  5
77
330
60
100
AcDbEntity
  8
DEFAULT
100
AcDbVertex
100
AcDb2dVertex
 10
21.92278893248307
 20
31.84577710122806
 30
0.0
  0
VERTEX
  5
78
330
60
100
AcDbEntity
  8
DEFAULT
100
AcDbVertex
100
AcDb2dVertex
 10
22.64180039492447
 20
32.46221134211663
 30
0.0
  0
VERTEX
  5
79
330
60
100
AcDbEntity
  8
DEFAULT
100
AcDbVertex
100
AcDb2dVertex
 10
23.34778927370652
 20
33.03381767725446
 30
0.0
  0
VERTEX
  5
7A
330
60
100
AcDbEntity
  8
DEFAULT
100
AcDbVertex
100
AcDb2dVertex
 10
24.0410477760354
 20
33.56198186956259
 30
0.0
  0
VERTEX
  5
7B
330
60
100
AcDbEntity
  8
DEFAULT
100
AcDbVertex
100
AcDb2dVertex
 10
24.72186810911729
 20
34.04808968196203
 30
0.0
  0
VERTEX
  5
7C
330
60
100
AcDbEntity
  8
DEFAULT
100
AcDbVertex
100
AcDb2dVertex
 10
25.39054248015837
 20
34.49352687737382
 30
0.0
  0
VERTEX
  5
7D
330
60
100
AcDbEntity
  8
DEFAULT
100
AcDbVertex
100
AcDb2dVertex
 10
26.04736309636484
 20
34.89967921871899
 30
0.0
  0
VERTEX
  5
7E
330
60
100
AcDbEntity
  8
DEFAULT
100
AcDbVertex
100
AcDb2dVertex
 10
26.37141956115703
 20
35.08845662002942
 30
0.0
  0
VERTEX
  5
7F
330
60
100
AcDbEntity
  8
DEFAULT
100
AcDbVertex
100
AcDb2dVertex
 10
26.69262216494287
 20
35.26793246891857
 30
0.0
  0
VERTEX
  5
80
330
60
100
AcDbEntity
  8
DEFAULT
100
AcDbVertex
100
AcDb2dVertex
 10
27.01100743362316
 20
35.43827998575159
 30
0.0
  0
VERTEX
  5
81
330
60
100
AcDbEntity
  8
DEFAULT
100
AcDbVertex
100
AcDb2dVertex
 10
27.32661189309865
 20
35.5996723908936
 30
0.0
  0
VERTEX
  5
82
330
60
100
AcDbEntity
  8
DEFAULT
100
AcDbVertex
100
AcDb2dVertex
 10
27.63947206927013
 20
35.75228290470973
 30
0.0
  0
VERTEX
  5
83
330
60
100
AcDbEntity
  8
DEFAULT
100
AcDbVertex
100
AcDb2dVertex
 10
27.94962448803837
 20
35.8962847475651
 30
0.0
  0
VERTEX
  5
84
330
60
100
AcDbEntity
  8
DEFAULT
100
AcDbVertex
100
AcDb2dVertex
 10
28.25710567530414
 20
36.03185113982485
 30
0.0
  0
VERTEX
  5
85
330
60
100
AcDbEntity
  8
DEFAULT
100
AcDbVertex
100
AcDb2dVertex
 10
28.56195215696821
 20
36.1591553018541
 30
0.0
  0
VERTEX
  5
86
330
60
100
AcDbEntity
  8
DEFAULT
100
AcDbVertex
100
AcDb2dVertex
 10
28.86420045893136
 20
36.27837045401797
 30
0.0
  0
VERTEX
  5
87
330
60
100
AcDbEntity
  8
DEFAULT
100
AcDbVertex
100
AcDb2dVertex
 10
29.16388710709436
 20
36.38966981668162
 30
0.0
  0
VERTEX
  5
88
330
60
100
AcDbEntity
  8
DEFAULT
100
AcDbVertex
100
AcDb2dVertex
 10
29.46104862735798
 20
36.49322661021016
 30
0.0
  0
VERTEX
  5
89
330
60
100
AcDbEntity
  8
DEFAULT
100
AcDbVertex
100
AcDb2dVertex
 10
29.755721545623
 20
36.58921405496871
 30
0.0
  0
VERTEX
  5
8A
330
60
100
AcDbEntity
  8
DEFAULT
100
AcDbVertex
100
AcDb2dVertex
 10
30.04794238779019
 20
36.67780537132242
 30
0.0
  0
VERTEX
  5
8B
330
60
100
AcDbEntity
  8
DEFAULT
100
AcDbVertex
100
AcDb2dVertex
 10
30.33774767976032
 20
36.75917377963641
 30
0.0
  0
VERTEX
  5
8C
330
60
100
AcDbEntity
  8
DEFAULT
100
AcDbVertex
100
AcDb2dVertex
 10
30.62517394743417
 20
36.8334925002758
 30
0.0
  0
VERTEX
  5
8D
330
60
100
AcDbEntity
  8
DEFAULT
100
AcDbVertex
100
AcDb2dVertex
 10
30.9102577167125
 20
36.90093475360572
 30
0.0
  0
VERTEX
  5
8E
330
60
100
AcDbEntity
  8
DEFAULT
100
AcDbVertex
100
AcDb2dVertex
 10
31.1930355134961
 20
36.96167375999131
 30
0.0
  0
VERTEX
  5
8F
330
60
100
AcDbEntity
  8
DEFAULT
100
AcDbVertex
100
AcDb2dVertex
 10
31.47354386368573
 20
37.01588273979769
 30
0.0
  0
VERTEX
  5
90
330
60
100
AcDbEntity
  8
DEFAULT
100
AcDbVertex
100
AcDb2dVertex
 10
31.75181929318216
 20
37.06373491338999
 30
0.0
  0
VERTEX
  5
91
330
60
100
AcDbEntity
  8
DEFAULT
100
AcDbVertex
100
AcDb2dVertex
 10
32.02789832788618
 20
37.10540350113334
 30
0.0
  0
VERTEX
  5
92
330
60
100
AcDbEntity
  8
DEFAULT
100
AcDbVertex
100
AcDb2dVertex
 10
32.30181749369855
 20
37.14106172339287
 30
0.0
  0
VERTEX
  5
93
330
60
100
AcDbEntity
  8
DEFAULT
100
AcDbVertex
100
AcDb2dVertex
 10
32.57361331652005
 20
37.17088280053371
 30
0.0
  0
VERTEX
  5
94
330
60
100
AcDbEntity
  8
DEFAULT
100
AcDbVertex
100
AcDb2dVertex
 10
32.84332232225145
 20
37.19503995292099
 30
0.0
  0
VERTEX
  5
95
330
60
100
AcDbEntity
  8
DEFAULT
100
AcDbVertex
100
AcDb2dVertex
 10
33.11098103679354
 20
37.21370640091983
 30
0.0
  0
VERTEX
  5
96
330
60
100
AcDbEntity
  8
DEFAULT
100
AcDbVertex
100
AcDb2dVertex
 10
33.37662598604707
 20
37.22705536489538
 30
0.0
  0
VERTEX
  5
97
330
60
100
AcDbEntity
  8
DEFAULT
100
AcDbVertex
100
AcDb2dVertex
 10
33.64029369591282
 20
37.23526006521274
 30
0.0
  0
VERTEX
  5
98
330
60
100
AcDbEntity
  8
DEFAULT
100
AcDbVertex
100
AcDb2dVertex
 10
33.90202069229156
 20
37.23849372223705
 30
0.0
  0
VERTEX
  5
99
330
60
100
AcDbEntity
  8
DEFAULT
100
AcDbVertex
100
AcDb2dVertex
 10
34.16184350108406
 20
37.23692955633344
 30
0.0
  0
VERTEX
  5
9A
330
60
100
AcDbEntity
  8
DEFAULT
100
AcDbVertex
100
AcDb2dVertex
 10
34.4197986481911
 20
37.23074078786704
 30
0.0
  0
VERTEX
  5
9B
330
60
100
AcDbEntity
  8
DEFAULT
100
AcDbVertex
100
AcDb2dVertex
 10
34.67592265951346
 20
37.22010063720298
 30
0.0
  0
VERTEX
  5
9C
330
60
100
AcDbEntity
  8
DEFAULT
100
AcDbVertex
100
AcDb2dVertex
 10
35.18282337840721
 20
37.18615907074239
 30
0.0
  0
VERTEX
  5
9D
330
60
100
AcDbEntity
  8
DEFAULT
100
AcDbVertex
100
AcDb2dVertex
 10
35.68283786497148
 20
37.1364906198727
 30
0.0
  0
VERTEX
  5
9E
330
60
100
AcDbEntity
  8
DEFAULT
100
AcDbVertex
100
AcDb2dVertex
 10
36.17625832641247
 20
37.07248104751494
 30
0.0
  0
VERTEX
  5
9F
330
60
100
AcDbEntity
  8
DEFAULT
100
AcDbVertex
100
AcDb2dVertex
 10
36.66337696993635
 20
36.99551611659014
 30
0.0
  0
VERTEX
  5
A0
330
60
100
AcDbEntity
  8
DEFAULT
100
AcDbVertex
100
AcDb2dVertex
 10
37.14448600274932
 20
36.90698159001934
 30
0.0
  0
VERTEX
  5
A1
330
60
100
AcDbEntity
  8
DEFAULT
100
AcDbVertex
100
AcDb2dVertex
 10
37.61987763205757
 20
36.80826323072355
 30
0.0
  0
VERTEX
  5
A2
330
60
100
AcDbEntity
  8
DEFAULT
100
AcDbVertex
100
AcDb2dVertex
 10
38.08984406506726
 20
36.70074680162382
 30
0.0
  0
VERTEX
  5
A3
330
60
100
AcDbEntity
  8
DEFAULT
100
AcDbVertex
100
AcDb2dVertex
 10
39.01467017101575
 20
36.46486278569664
 30
0.0
  0
VERTEX
  5
A4
330
60
100
AcDbEntity
  8
DEFAULT
100
AcDbVertex
100
AcDb2dVertex
 10
42.55540818410495
 20
35.44655651403616
 30
0.0
  0
VERTEX
  5
A5
330
60
100
AcDbEntity
  8
DEFAULT
100
AcDbVertex
100
AcDb2dVertex
 10
43.41263937294846
 20
35.22871791097432
 30
0.0
  0
VERTEX
  5
A6
330
60
100
AcDbEntity
  8
DEFAULT
100
AcDbVertex
100
AcDb2dVertex
 10
43.83860340942749
 20
35.13268383119983
 30
0.0
  0
VERTEX
  5
A7
330
60
100
AcDbEntity
  8
DEFAULT
100
AcDbVertex
100
AcDb2dVertex
 10
44.26283894802005
 20
35.04576934829241
 30
0.0
  0
VERTEX
  5
A8
330
60
100
AcDbEntity
  8
DEFAULT
100
AcDbVertex
100
AcDb2dVertex
 10
44.68524399345776
 20
34.96787721094969
 30
0.0
  0
VERTEX
  5
A9
330
60
100
AcDbEntity
  8
DEFAULT
100
AcDbVertex
100
AcDb2dVertex
 10
45.10571655047231
 20
34.89891016786929
 30
0.0
  0
VERTEX
  5
AA
330
60
100
AcDbEntity
  8
DEFAULT
100
AcDbVertex
100
AcDb2dVertex
 10
45.52415462379533
 20
34.83877096774883
 30
0.0
  0
VERTEX
  5
AB
330
60
100
AcDbEntity
  8
DEFAULT
100
AcDbVertex
100
AcDb2dVertex
 10
45.94045621815849
 20
34.78736235928595
 30
0.0
  0
VERTEX
  5
AC
330
60
100
AcDbEntity
  8
DEFAULT
100
AcDbVertex
100
AcDb2dVertex
 10
46.35451933829343
 20
34.74458709117826
 30
0.0
  0
VERTEX
  5
AD
330
60
100
AcDbEntity
  8
DEFAULT
100
AcDbVertex
100
AcDb2dVertex
 10
46.76624198893181
 20
34.71034791212338
 30
0.0
  0
VERTEX
  5
AE
330
60
100
AcDbEntity
  8
DEFAULT
100
AcDbVertex
100
AcDb2dVertex
 10
47.17552217480529
 20
34.68454757081895
 30
0.0
  0
VERTEX
  5
AF
330
60
100
AcDbEntity
  8
DEFAULT
100
AcDbVertex
100
AcDb2dVertex
 10
47.58225790064552
 20
34.66708881596257
 30
0.0
  0
VERTEX
  5
B0
330
60
100
AcDbEntity
  8
DEFAULT
100
AcDbVertex
100
AcDb2dVertex
 10
47.98634717118415
 20
34.65787439625189
 30
0.0
  0
VERTEX
  5
B1
330
60
100
AcDbEntity
  8
DEFAULT
100
AcDbVertex
100
AcDb2dVertex
 10
48.38768799115284
 20
34.65680706038452
 30
0.0
  0
VERTEX
  5
B2
330
60
100
AcDbEntity
  8
DEFAULT
100
AcDbVertex
100
AcDb2dVertex
 10
48.78617836528325
 20
34.6637895570581
 30
0.0
  0
VERTEX
  5
B3
330
60
100
AcDbEntity
  8
DEFAULT
100
AcDbVertex
100
AcDb2dVertex
 10
49.18171629830702
 20
34.67872463497022
 30
0.0
  0
VERTEX
  5
B4
330
60
100
AcDbEntity
  8
DEFAULT
100
AcDbVertex
100
AcDb2dVertex
 10
49.57419979495582
 20
34.70151504281854
 30
0.0
  0
VERTEX
  5
B5
330
60
100
AcDbEntity
  8
DEFAULT
100
AcDbVertex
100
AcDb2dVertex
 10
49.96352685996128
 20
34.73206352930065
 30
0.0
  0
VERTEX
  5
B6
330
60
100
AcDbEntity
  8
DEFAULT
100
AcDbVertex
100
AcDb2dVertex
 10
50.34959549805508
 20
34.77027284311421
 30
0.0
  0
VERTEX
  5
B7
330
60
100
AcDbEntity
  8
DEFAULT
100
AcDbVertex
100
AcDb2dVertex
 10
50.73230371396886
 20
34.81604573295681
 30
0.0
  0
VERTEX
  5
B8
330
60
100
AcDbEntity
  8
DEFAULT
100
AcDbVertex
100
AcDb2dVertex
 10
51.11154951243428
 20
34.86928494752609
 30
0.0
  0
VERTEX
  5
B9
330
60
100
AcDbEntity
  8
DEFAULT
100
AcDbVertex
100
AcDb2dVertex
 10
51.48723089818299
 20
34.92989323551969
 30
0.0
  0
VERTEX
  5
BA
330
60
100
AcDbEntity
  8
DEFAULT
100
AcDbVertex
100
AcDb2dVertex
 10
51.85924587594666
 20
34.9977733456352
 30
0.0
  0
VERTEX
  5
BB
330
60
100
AcDbEntity
  8
DEFAULT
100
AcDbVertex
100
AcDb2dVertex
 10
52.22749245045691
 20
35.07282802657026
 30
0.0
  0
VERTEX
  5
BC
330
60
100
AcDbEntity
  8
DEFAULT
100
AcDbVertex
100
AcDb2dVertex
 10
52.59186862644543
 20
35.1549600270225
 30
0.0
  0
VERTEX
  5
BD
330
60
100
AcDbEntity
  8
DEFAULT
100
AcDbVertex
100
AcDb2dVertex
 10
52.95227240864385
 20
35.24407209568954
 30
0.0
  0
VERTEX
  5
BE
330
60
100
AcDbEntity
  8
DEFAULT
100
AcDbVertex
100
AcDb2dVertex
 10
53.30860180178384
 20
35.340066981269
 30
0.0
  0
VERTEX
  5
BF
330
60
100
AcDbEntity
  8
DEFAULT
100
AcDbVertex
100
AcDb2dVertex
 10
53.66075481059704
 20
35.44284743245851
 30
0.0
  0
VERTEX
  5
C0
330
60
100
AcDbEntity
  8
DEFAULT
100
AcDbVertex
100
AcDb2dVertex
 10
54.00862943981512
 20
35.55231619795568
 30
0.0
  0
VERTEX
  5
C1
330
60
100
AcDbEntity
  8
DEFAULT
100
AcDbVertex
100
AcDb2dVertex
 10
54.35212369416972
 20
35.66837602645815
 30
0.0
  0
VERTEX
  5
C2
330
60
100
AcDbEntity
  8
DEFAULT
100
AcDbVertex
100
AcDb2dVertex
 10
54.6911355783925
 20
35.79092966666353
 30
0.0
  0
VERTEX
  5
C3
330
60
100
AcDbEntity
  8
DEFAULT
100
AcDbVertex
100
AcDb2dVertex
 10
55.02556309721513
 20
35.91987986726946
 30
0.0
  0
VERTEX
  5
C4
330
60
100
AcDbEntity
  8
DEFAULT
100
AcDbVertex
100
AcDb2dVertex
 10
55.35530425536923
 20
36.05512937697355
 30
0.0
  0
VERTEX
  5
C5
330
60
100
AcDbEntity
  8
DEFAULT
100
AcDbVertex
100
AcDb2dVertex
 10
55.68025705758648
 20
36.19658094447344
 30
0.0
  0
VERTEX
  5
C6
330
60
100
AcDbEntity
  8
DEFAULT
100
AcDbVertex
100
AcDb2dVertex
 10
56.00031950859853
 20
36.34413731846674
 30
0.0
  0
VERTEX
  5
C7
330
60
100
AcDbEntity
  8
DEFAULT
100
AcDbVertex
100
AcDb2dVertex
 10
56.31538961313703
 20
36.49770124765107
 30
0.0
  0
VERTEX
  5
C8
330
60
100
AcDbEntity
  8
DEFAULT
100
AcDbVertex
100
AcDb2dVertex
 10
56.62536537593364
 20
36.65717548072406
 30
0.0
  0
VERTEX
  5
C9
330
60
100
AcDbEntity
  8
DEFAULT
100
AcDbVertex
100
AcDb2dVertex
 10
56.93014480172
 20
36.82246276638333
 30
0.0
  0
VERTEX
  5
CA
330
60
100
AcDbEntity
  8
DEFAULT
100
AcDbVertex
100
AcDb2dVertex
 10
57.22962589522778
 20
36.99346585332651
 30
0.0
  0
VERTEX
  5
CB
330
60
100
AcDbEntity
  8
DEFAULT
100
AcDbVertex
100
AcDb2dVertex
 10
57.52370666118864
 20
37.17008749025123
 30
0.0
  0
VERTEX
  5
CC
330
60
100
AcDbEntity
  8
DEFAULT
100
AcDbVertex
100
AcDb2dVertex
 10
57.81228510433421
 20
37.3522304258551
 30
0.0
  0
VERTEX
  5
CD
330
60
100
AcDbEntity
  8
DEFAULT
100
AcDbVertex
100
AcDb2dVertex
 10
58.09525922939616
 20
37.53979740883574
 30
0.0
  0
VERTEX
  5
CE
330
60
100
AcDbEntity
  8
DEFAULT
100
AcDbVertex
100
AcDb2dVertex
 10
58.37252704110614
 20
37.73269118789079
 30
0.0
  0
VERTEX
  5
CF
330
60
100
AcDbEntity
  8
DEFAULT
100
AcDbVertex
100
AcDb2dVertex
 10
58.6439865441958
 20
37.93081451171787
 30
0.0
  0
VERTEX
  5
D0
330
60
100
AcDbEntity
  8
DEFAULT
100
AcDbVertex
100
AcDb2dVertex
 10
58.9095357433968
 20
38.1340701290146
 30
0.0
  0
VERTEX
  5
D1
330
60
100
AcDbEntity
  8
DEFAULT
100
AcDbVertex
100
AcDb2dVertex
 10
59.16907264344081
 20
38.3423607884786
 30
0.0
  0
VERTEX
  5
D2
330
60
100
AcDbEntity
  8
DEFAULT
100
AcDbVertex
100
AcDb2dVertex
 10
59.42249524905945
 20
38.5555892388075
 30
0.0
  0
VERTEX
  5
D3
330
60
100
AcDbEntity
  8
DEFAULT
100
AcDbVertex
100
AcDb2dVertex
 10
59.66970156498441
 20
38.77365822869892
 30
0.0
  0
VERTEX
  5
D4
330
60
100
AcDbEntity
  8
DEFAULT
100
AcDbVertex
100
AcDb2dVertex
 10
59.91058959594731
 20
38.99647050685049
 30
0.0
  0
VERTEX
  5
D5
330
60
100
AcDbEntity
  8
DEFAULT
100
AcDbVertex
100
AcDb2dVertex
 10
60.14505734667983
 20
39.22392882195982
 30
0.0
  0
VERTEX
  5
D6
330
60
100
AcDbEntity
  8
DEFAULT
100
AcDbVertex
100
AcDb2dVertex
 10
60.37300282191361
 20
39.45593592272456
 30
0.0
  0
VERTEX
  5
D7
330
60
100
AcDbEntity
  8
DEFAULT
100
AcDbVertex
100
AcDb2dVertex
 10
60.59432402638031
 20
39.69239455784231
 30
0.0
  0
VERTEX
  5
D8
330
60
100
AcDbEntity
  8
DEFAULT
100
AcDbVertex
100
AcDb2dVertex
 10
60.8089189648116
 20
39.93320747601069
 30
0.0
  0
VERTEX
  5
D9
330
60
100
AcDbEntity
  8
DEFAULT
100
AcDbVertex
100
AcDb2dVertex
 10
61.01668564193911
 20
40.17827742592735
 30
0.0
  0
VERTEX
  5
DA
330
60
100
AcDbEntity
  8
DEFAULT
100
AcDbVertex
100
AcDb2dVertex
 10
61.2175220624945
 20
40.42750715628989
 30
0.0
  0
VERTEX
  5
DB
330
60
100
AcDbEntity
  8
DEFAULT
100
AcDbVertex
100
AcDb2dVertex
 10
61.41132623120942
 20
40.68079941579595
 30
0.0
  0
VERTEX
  5
DC
330
60
100
AcDbEntity
  8
DEFAULT
100
AcDbVertex
100
AcDb2dVertex
 10
61.59799615281553
 20
40.93805695314314
 30
0.0
  0
VERTEX
  5
DD
330
60
100
AcDbEntity
  8
DEFAULT
100
AcDbVertex
100
AcDb2dVertex
 10
61.77742983204449
 20
41.19918251702909
 30
0.0
  0
VERTEX
  5
DE
330
60
100
AcDbEntity
  8
DEFAULT
100
AcDbVertex
100
AcDb2dVertex
 10
61.94952527362794
 20
41.46407885615143
 30
0.0
  0
VERTEX
  5
DF
330
60
100
AcDbEntity
  8
DEFAULT
100
AcDbVertex
100
AcDb2dVertex
 10
62.11418048229756
 20
41.73264871920777
 30
0.0
  0
VERTEX
  5
E0
330
60
100
AcDbEntity
  8
DEFAULT
100
AcDbVertex
100
AcDb2dVertex
 10
62.27129346278498
 20
42.00479485489575
 30
0.0
  0
VERTEX
  5
E1
330
60
100
AcDbEntity
  8
DEFAULT
100
AcDbVertex
100
AcDb2dVertex
 10
62.42076221982187
 20
42.28042001191298
 30
0.0
  0
VERTEX
  5
E2
330
60
100
AcDbEntity
  8
DEFAULT
100
AcDbVertex
100
AcDb2dVertex
 10
62.56248475813987
 20
42.55942693895709
 30
0.0
  0
VERTEX
  5
E3
330
60
100
AcDbEntity
  8
DEFAULT
100
AcDbVertex
100
AcDb2dVertex
 10
62.69635908247064
 20
42.84171838472571
 30
0.0
  0
VERTEX
  5
E4
330
60
100
AcDbEntity
  8
DEFAULT
100
AcDbVertex
100
AcDb2dVertex
 10
62.82228319754583
 20
43.12719709791645
 30
0.0
  0
VERTEX
  5
E5
330
60
100
AcDbEntity
  8
DEFAULT
100
AcDbVertex
100
AcDb2dVertex
 10
62.9401551080971
 20
43.41576582722693
 30
0.0
  0
VERTEX
  5
E6
330
60
100
AcDbEntity
  8
DEFAULT
100
AcDbVertex
100
AcDb2dVertex
 10
63.04991286018792
 20
43.70733020161985
 30
0.0
  0
VERTEX
  5
E7
330
60
100
AcDbEntity
  8
DEFAULT
100
AcDbVertex
100
AcDb2dVertex
 10
63.15165466520902
 20
44.00180737111808
 30
0.0
  0
VERTEX
  5
E8
330
60
100
AcDbEntity
  8
DEFAULT
100
AcDbVertex
100
AcDb2dVertex
 10
63.24551877588293
 20
44.29911736600958
 30
0.0
  0
VERTEX
  5
E9
330
60
100
AcDbEntity
  8
DEFAULT
100
AcDbVertex
100
AcDb2dVertex
 10
63.3316434449322
 20
44.59918021658227
 30
0.0
  0
VERTEX
  5
EA
330
60
100
AcDbEntity
  8
DEFAULT
100
AcDbVertex
100
AcDb2dVertex
 10
63.41016692507938
 20
44.9019159531241
 30
0.0
  0
VERTEX
  5
EB
330
60
100
AcDbEntity
  8
DEFAULT
100
AcDbVertex
100
AcDb2dVertex
 10
63.48122746904699
 20
45.20724460592302
 30
0.0
  0
VERTEX
  5
EC
330
60
100
AcDbEntity
  8
DEFAULT
100
AcDbVertex
100
AcDb2dVertex
 10
63.54496332955759
 20
45.51508620526695
 30
0.0
  0
VERTEX
  5
ED
330
60
100
AcDbEntity
  8
DEFAULT
100
AcDbVertex
100
AcDb2dVertex
 10
63.60151275933372
 20
45.82536078144386
 30
0.0
  0
VERTEX
  5
EE
330
60
100
AcDbEntity
  8
DEFAULT
100
AcDbVertex
100
AcDb2dVertex
 10
63.6510140110979
 20
46.13798836474166
 30
0.0
  0
VERTEX
  5
EF
330
60
100
AcDbEntity
  8
DEFAULT
100
AcDbVertex
100
AcDb2dVertex
 10
63.69360533757271
 20
46.45288898544832
 30
0.0
  0
VERTEX
  5
F0
330
60
100
AcDbEntity
  8
DEFAULT
100
AcDbVertex
100
AcDb2dVertex
 10
63.72942499148066
 20
46.76998267385177
 30
0.0
  0
VERTEX
  5
F1
330
60
100
AcDbEntity
  8
DEFAULT
100
AcDbVertex
100
AcDb2dVertex
 10
63.7586112255443
 20
47.08918946023995
 30
0.0
  0
VERTEX
  5
F2
330
60
100
AcDbEntity
  8
DEFAULT
100
AcDbVertex
100
AcDb2dVertex
 10
63.78130229248617
 20
47.4104293749008
 30
0.0
  0
VERTEX
  5
F3
330
60
100
AcDbEntity
  8
DEFAULT
100
AcDbVertex
100
AcDb2dVertex
 10
63.79763644502883
 20
47.73362244812227
 30
0.0
  0
VERTEX
  5
F4
330
60
100
AcDbEntity
  8
DEFAULT
100
AcDbVertex
100
AcDb2dVertex
 10
63.8077519358948
 20
48.05868871019229
 30
0.0
  0
VERTEX
  5
F5
330
60
100
AcDbEntity
  8
DEFAULT
100
AcDbVertex
100
AcDb2dVertex
 10
63.81178701780663
 20
48.38554819139881
 30
0.0
  0
VERTEX
  5
F6
330
60
100
AcDbEntity
  8
DEFAULT
100
AcDbVertex
100
AcDb2dVertex
 10
63.80987994348686
 20
48.71412092202977
 30
0.0
  0
VERTEX
  5
F7
330
60
100
AcDbEntity
  8
DEFAULT
100
AcDbVertex
100
AcDb2dVertex
 10
63.80216896565803
 20
49.04432693237311
 30
0.0
  0
VERTEX
  5
F8
330
60
100
AcDbEntity
  8
DEFAULT
100
AcDbVertex
100
AcDb2dVertex
 10
63.76988831036338
 20
49.7093189133487
 30
0.0
  0
VERTEX
  5
F9
330
60
100
AcDbEntity
  8
DEFAULT
100
AcDbVertex
100
AcDb2dVertex
 10
63.71605107370301
 20
50.37988437662911
 30
0.0
  0
VERTEX
  5
FA
330
60
100
AcDbEntity
  8
DEFAULT
100
AcDbVertex
100
AcDb2dVertex
 10
63.64176327745724
 20
51.05538356451786
 30
0.0
  0
VERTEX
  5
FB
330
60
100
AcDbEntity
  8
DEFAULT
100
AcDbVertex
100
AcDb2dVertex
 10
63.54813094340641
 20
51.73517671931851
 30
0.0
  0
VERTEX
  5
FC
330
60
100
AcDbEntity
  8
DEFAULT
100
AcDbVertex
100
AcDb2dVertex
 10
63.43626009333086
 20
52.41862408333457
 30
0.0
  0
VERTEX
  5
FD
330
60
100
AcDbEntity
  8
DEFAULT
100
AcDbVertex
100
AcDb2dVertex
 10
63.30725674901091
 20
53.10508589886958
 30
0.0
  0
VERTEX
  5
FE
330
60
100
AcDbEntity
  8
DEFAULT
100
AcDbVertex
100
AcDb2dVertex
 10
63.16222693222691
 20
53.79392240822708
 30
0.0
  0
VERTEX
  5
FF
330
60
100
AcDbEntity
  8
DEFAULT
100
AcDbVertex
100
AcDb2dVertex
 10
63.00227666475919
 20
54.48449385371059
 30
0.0
  0
VERTEX
  5
100
330
60
100
AcDbEntity
  8
DEFAULT
100
AcDbVertex
100
AcDb2dVertex
 10
62.82851196838809
 20
55.17616047762365
 30
0.0
  0
VERTEX
  5
101
330
60
100
AcDbEntity
  8
DEFAULT
100
AcDbVertex
100
AcDb2dVertex
 10
62.44396337605704
 20
56.56022022995252
 30
0.0
  0
VERTEX
  5
102
330
60
100
AcDbEntity
  8
DEFAULT
100
AcDbVertex
100
AcDb2dVertex
 10
62.01742932947645
 20
57.94098360364197
 30
0.0
  0
VERTEX
  5
103
330
60
100
AcDbEntity
  8
DEFAULT
100
AcDbVertex
100
AcDb2dVertex
 10
61.55775800288899
 20
59.31333253712026
 30
0.0
  0
VERTEX
  5
104
330
60
100
AcDbEntity
  8
DEFAULT
100
AcDbVertex
100
AcDb2dVertex
 10
61.07379757053733
 20
60.67214896881563
 30
0.0
  0
VERTEX
  5
105
330
60
100
AcDbEntity
  8
DEFAULT
100
AcDbVertex
100
AcDb2dVertex
 10
60.57439620666415
 20
62.01231483715635
 30
0.0
  0
VERTEX
  5
106
330
60
100
AcDbEntity
  8
DEFAULT
100
AcDbVertex
100
AcDb2dVertex
 10
58.59630878258904
 20
67.09047287799993
 30
0.0
  0
VERTEX
  5
107
330
60
100
AcDbEntity
  8
DEFAULT
100
AcDbVertex
100
AcDb2dVertex
 10
57.72493711329841
 20
69.42592822843184
 30
0.0
  0
VERTEX
  5
108
330
60
100
AcDbEntity
  8
DEFAULT
100
AcDbVertex
100
AcDb2dVertex
 10
57.34204755363787
 20
70.54074035180437
 30
0.0
  0
VERTEX
  5
109
330
60
100
AcDbEntity
  8
DEFAULT
100
AcDbVertex
100
AcDb2dVertex
 10
57.00311693807021
 20
71.619812790981
 30
0.0
  0
VERTEX
  5
10A
330
60
100
AcDbEntity
  8
DEFAULT
100
AcDbVertex
100
AcDb2dVertex
 10
56.85218969387661
 20
72.14583819548798
 30
0.0
  0
VERTEX
  5
10B
330
60
100
AcDbEntity
  8
DEFAULT
100
AcDbVertex
100
AcDb2dVertex
 10
56.71471633717271
 20
72.66279855873654
 30
0.0
  0
VERTEX
  5
10C
330
60
100
AcDbEntity
  8
DEFAULT
100
AcDbVertex
100
AcDb2dVertex
 10
56.59151825178067
 20
73.17065050732351
 30
0.0
  0
VERTEX
  5
10D
330
60
100
AcDbEntity
  8
DEFAULT
100
AcDbVertex
100
AcDb2dVertex
 10
56.48341682152265
 20
73.66935066784578
 30
0.0
  0
VERTEX
  5
10E
330
60
100
AcDbEntity
  8
DEFAULT
100
AcDbVertex
100
AcDb2dVertex
 10
56.39123343022082
 20
74.15885566690017
 30
0.0
  0
VERTEX
  5
10F
330
60
100
AcDbEntity
  8
DEFAULT
100
AcDbVertex
100
AcDb2dVertex
 10
56.31578946169732
 20
74.63912213108352
 30
0.0
  0
VERTEX
  5
110
330
60
100
AcDbEntity
  8
DEFAULT
100
AcDbVertex
100
AcDb2dVertex
 10
56.28460144342187
 20
74.87577735841006
 30
0.0
  0
VERTEX
  5
111
330
60
100
AcDbEntity
  8
DEFAULT
100
AcDbVertex
100
AcDb2dVertex
 10
56.25790629977432
 20
75.1101066869927
 30
0.0
  0
VERTEX
  5
112
330
60
100
AcDbEntity
  8
DEFAULT
100
AcDbVertex
100
AcDb2dVertex
 10
56.23580670373244
 20
75.34210469515598
 30
0.0
  0
VERTEX
  5
113
330
60
100
AcDbEntity
  8
DEFAULT
100
AcDbVertex
100
AcDb2dVertex
 10
56.21840532827398
 20
75.57176596122454
 30
0.0
  0
VERTEX
  5
114
330
60
100
AcDbEntity
  8
DEFAULT
100
AcDbVertex
100
AcDb2dVertex
 10
56.20580484637673
 20
75.799085063523
 30
0.0
  0
VERTEX
  5
115
330
60
100
AcDbEntity
  8
DEFAULT
100
AcDbVertex
100
AcDb2dVertex
 10
56.19810793101846
 20
76.02405658037593
 30
0.0
  0
VERTEX
  5
116
330
60
100
AcDbEntity
  8
DEFAULT
100
AcDbVertex
100
AcDb2dVertex
 10
56.19541725517693
 20
76.24667509010794
 30
0.0
  0
VERTEX
  5
117
330
60
100
AcDbEntity
  8
DEFAULT
100
AcDbVertex
100
AcDb2dVertex
 10
56.19783549182992
 20
76.46693517104367
 30
0.0
  0
VERTEX
  5
118
330
60
100
AcDbEntity
  8
DEFAULT
100
AcDbVertex
100
AcDb2dVertex
 10
56.20546531395519
 20
76.68483140150771
 30
0.0
  0
VERTEX
  5
119
330
60
100
AcDbEntity
  8
DEFAULT
100
AcDbVertex
100
AcDb2dVertex
 10
56.21840939453052
 20
76.90035835982465
 30
0.0
  0
VERTEX
  5
11A
330
60
100
AcDbEntity
  8
DEFAULT
100
AcDbVertex
100
AcDb2dVertex
 10
56.23677040653368
 20
77.11351062431912
 30
0.0
  0
VERTEX
  5
11B
330
60
100
AcDbEntity
  8
DEFAULT
100
AcDbVertex
100
AcDb2dVertex
 10
56.26065102294243
 20
77.3242827733157
 30
0.0
  0
VERTEX
  5
11C
330
60
100
AcDbEntity
  8
DEFAULT
100
AcDbVertex
100
AcDb2dVertex
 10
56.29015391673454
 20
77.53266938513902
 30
0.0
  0
VERTEX
  5
11D
330
60
100
AcDbEntity
  8
DEFAULT
100
AcDbVertex
100
AcDb2dVertex
 10
56.32538176088779
 20
77.73866503811367
 30
0.0
  0
VERTEX
  5
11E
330
60
100
AcDbEntity
  8
DEFAULT
100
AcDbVertex
100
AcDb2dVertex
 10
56.36643722837994
 20
77.94226431056427
 30
0.0
  0
VERTEX
  5
11F
330
60
100
AcDbEntity
  8
DEFAULT
100
AcDbVertex
100
AcDb2dVertex
 10
56.41342299218876
 20
78.14346178081541
 30
0.0
  0
VERTEX
  5
120
330
60
100
AcDbEntity
  8
DEFAULT
100
AcDbVertex
100
AcDb2dVertex
 10
56.46644172529204
 20
78.34225202719172
 30
0.0
  0
VERTEX
  5
121
330
60
100
AcDbEntity
  8
DEFAULT
100
AcDbVertex
100
AcDb2dVertex
 10
56.52559610066753
 20
78.53862962801779
 30
0.0
  0
VERTEX
  5
122
330
60
100
AcDbEntity
  8
DEFAULT
100
AcDbVertex
100
AcDb2dVertex
 10
56.59098879129299
 20
78.73258916161821
 30
0.0
  0
VERTEX
  5
123
330
60
100
AcDbEntity
  8
DEFAULT
100
AcDbVertex
100
AcDb2dVertex
 10
56.66272247014622
 20
78.9241252063176
 30
0.0
  0
VERTEX
  5
124
330
60
100
AcDbEntity
  8
DEFAULT
100
AcDbVertex
100
AcDb2dVertex
 10
56.74089981020498
 20
79.11323234044059
 30
0.0
  0
VERTEX
  5
125
330
60
100
AcDbEntity
  8
DEFAULT
100
AcDbVertex
100
AcDb2dVertex
 10
56.82562348444702
 20
79.29990514231176
 30
0.0
  0
VERTEX
  5
126
330
60
100
AcDbEntity
  8
DEFAULT
100
AcDbVertex
100
AcDb2dVertex
 10
56.91699616585013
 20
79.4841381902557
 30
0.0
  0
VERTEX
  5
127
330
60
100
AcDbEntity
  8
DEFAULT
100
AcDbVertex
100
AcDb2dVertex
 10
57.01512052739207
 20
79.66592606259707
 30
0.0
  0
VERTEX
  5
128
330
60
100
AcDbEntity
  8
DEFAULT
100
AcDbVertex
100
AcDb2dVertex
 10
57.12009924205061
 20
79.84526333766044
 30
0.0
  0
VERTEX
  5
129
330
60
100
AcDbEntity
  8
DEFAULT
100
AcDbVertex
100
AcDb2dVertex
 10
57.23203498280354
 20
80.0221445937704
 30
0.0
  0
VERTEX
  5
12A
330
60
100
AcDbEntity
  8
DEFAULT
100
AcDbVertex
100
AcDb2dVertex
 10
57.35103042262861
 20
80.19656440925161
 30
0.0
  0
VERTEX
  5
12B
330
60
100
AcDbEntity
  8
DEFAULT
100
AcDbVertex
100
AcDb2dVertex
 10
57.47718823450359
 20
80.36851736242863
 30
0.0
  0
VERTEX
  5
12C
330
60
100
AcDbEntity
  8
DEFAULT
100
AcDbVertex
100
AcDb2dVertex
 10
57.6106677498172
 20
80.53805145899078
 30
0.0
  0
VERTEX
  5
12D
330
60
100
AcDbEntity
  8
DEFAULT
100
AcDbVertex
100
AcDb2dVertex
 10
57.75185493360194
 20
80.70542841408619
 30
0.0
  0
VERTEX
  5
12E
330
60
100
AcDbEntity
  8
DEFAULT
100
AcDbVertex
100
AcDb2dVertex
 10
57.90119240930125
 20
80.8709633702277
 30
0.0
  0
VERTEX
  5
12F
330
60
100
AcDbEntity
  8
DEFAULT
100
AcDbVertex
100
AcDb2dVertex
 10
58.05912280035858
 20
81.03497146992811
 30
0.0
  0
VERTEX
  5
130
330
60
100
AcDbEntity
  8
DEFAULT
100
AcDbVertex
100
AcDb2dVertex
 10
58.22608873021736
 20
81.19776785570028
 30
0.0
  0
VERTEX
  5
131
330
60
100
AcDbEntity
  8
DEFAULT
100
AcDbVertex
100
AcDb2dVertex
 10
58.40253282232105
 20
81.35966767005704
 30
0.0
  0
VERTEX
  5
132
330
60
100
AcDbEntity
  8
DEFAULT
100
AcDbVertex
100
AcDb2dVertex
 10
58.58889770011308
 20
81.52098605551119
 30
0.0
  0
VERTEX
  5
133
330
60
100
AcDbEntity
  8
DEFAULT
100
AcDbVertex
100
AcDb2dVertex
 10
58.78562598703691
 20
81.68203815457558
 30
0.0
  0
VERTEX
  5
134
330
60
100
AcDbEntity
  8
DEFAULT
100
AcDbVertex
100
AcDb2dVertex
 10
58.99316030653596
 20
81.84313910976304
 30
0.0
  0
VERTEX
  5
135
330
60
100
AcDbEntity
  8
DEFAULT
100
AcDbVertex
100
AcDb2dVertex
 10
59.2119432820537
 20
82.00460406358641
 30
0.0
  0
VERTEX
  5
136
330
60
100
AcDbEntity
  8
DEFAULT
100
AcDbVertex
100
AcDb2dVertex
 10
59.44241753703355
 20
82.1667481585585
 30
0.0
  0
VERTEX
  5
137
330
60
100
AcDbEntity
  8
DEFAULT
100
AcDbVertex
100
AcDb2dVertex
 10
59.68502569491896
 20
82.32988653719214
 30
0.0
  0
VERTEX
  5
138
330
60
100
AcDbEntity
  8
DEFAULT
100
AcDbVertex
100
AcDb2dVertex
 10
59.94021037915338
 20
82.49433434200017
 30
0.0
  0
VERTEX
  5
139
330
60
100
AcDbEntity
  8
DEFAULT
100
AcDbVertex
100
AcDb2dVertex
 10
60.20841421318025
 20
82.66040671549543
 30
0.0
  0
VERTEX
  5
13A
330
60
100
AcDbEntity
  8
DEFAULT
100
AcDbVertex
100
AcDb2dVertex
 10
60.78564982438512
 20
82.9986857385989
 30
0.0
  0
VERTEX
  5
13B
330
60
100
AcDbEntity
  8
DEFAULT
100
AcDbVertex
100
AcDb2dVertex
 10
61.42027351608111
 20
83.34724474660518
 30
0.0
  0
VERTEX
  5
13C
330
60
100
AcDbEntity
  8
DEFAULT
100
AcDbVertex
100
AcDb2dVertex
 10
62.11582627581577
 20
83.70860487961697
 30
0.0
  0
VERTEX
  5
13D
330
60
100
AcDbEntity
  8
DEFAULT
100
AcDbVertex
100
AcDb2dVertex
 10
63.7038829495913
 20
84.47981308106748
 30
0.0
  0
VERTEX
  5
13E
330
60
100
AcDbEntity
  8
DEFAULT
100
AcDbVertex
100
AcDb2dVertex
 10
65.5781477460921
 20
85.3324794637715
 30
0.0
  0
VERTEX
  5
13F
330
60
100
AcDbEntity
  8
DEFAULT
100
AcDbVertex
100
AcDb2dVertex
 10
67.76694856569856
 20
86.2867731485502
 30
0.0
  0
VERTEX
  5
140
330
60
100
AcDbEntity
  8
DEFAULT
100
AcDbVertex
100
AcDb2dVertex
 10
73.20146987574995
 20
88.58091890761594
 30
0.0
  0
VERTEX
  5
141
330
60
100
AcDbEntity
  8
DEFAULT
100
AcDbVertex
100
AcDb2dVertex
 10
80.23407008278862
 20
91.52360332483357
 30
0.0
  0
VERTEX
  5
142
330
60
100
AcDbEntity
  8
DEFAULT
100
AcDbVertex
100
AcDb2dVertex
 10
89.09137238985761
 20
95.27617936677198
 30
0.0
  0
VERTEX
  5
143
330
60
100
AcDbEntity
  8
DEFAULT
100
AcDbVertex
100
AcDb2dVertex
 10
94.27510658185443
 20
97.50659954906425
 30
0.0
  0
VERTEX
  5
144
330
60
100
AcDbEntity
  8
DEFAULT
100
AcDbVertex
100
AcDb2dVertex
 10
100.0
 20
100.0
 30
0.0
  0
SEQEND
  5
145
330
60
100
AcDbEntity
  8
DEFAULT
  0
ENDSEC
  0
SECTION
  2
OBJECTS
  0
DICTIONARY
  5
C
330
0
100
AcDbDictionary
  3
ACAD_GROUP
350
D
  3
ACAD_LAYOUT
350
1A
  3
ACAD_MATERIAL
350
43
  3
ACAD_MLEADERSTYLE
350
5B
  3
ACAD_MLINESTYLE
350
17
  3
ACAD_PLOTSETTINGS
350
19
  3
ACAD_SCALELIST
350
47
  3
ACAD_VISUALSTYLE
350
2A
  3
ACDBHEADERROUNDTRIPXREC
350
146
  3
ACDBVARIABLEDICTIONARY
350
167
  3
DWGPROPS
350
16E
  0
DICTIONARY
  5
16F
330
8
100
AcDbDictionary
280
     1
  3
ACAD_XREC_ROUNDTRIP
360
170
  0
DICTIONARY
  5
D
102
{ACAD_REACTORS
330
C
102
}
330
C
100
AcDbDictionary
  0
DICTIONARY
  5
1A
102
{ACAD_REACTORS
330
C
102
}
330
C
100
AcDbDictionary
  0
DICTIONARY
  5
43
102
{ACAD_REACTORS
330
C
102
}
330
C
100
AcDbDictionary
  3
BYBLOCK
350
45
  3
BYLAYER
350
44
  3
GLOBAL
350
46
  0
DICTIONARY
  5
5B
102
{ACAD_REACTORS
330
C
102
}
330
C
100
AcDbDictionary
  3
STANDARD
350
5C
  0
DICTIONARY
  5
17
102
{ACAD_REACTORS
330
C
102
}
330
C
100
AcDbDictionary
  3
STANDARD
350
18
  0
DICTIONARY
  5
19
102
{ACAD_REACTORS
330
C
102
}
330
C
100
AcDbDictionary
  0
DICTIONARY
  5
47
102
{ACAD_REACTORS
330
C
102
}
330
C
100
AcDbDictionary
  3
A0
350
48
  3
A1
350
49
  3
A2
350
4A
  3
A3
350
4B
  3
A4
350
4C
  3
A5
350
4D
  3
A6
350
4E
  3
A7
350
4F
  3
A8
350
50
  3
A9
350
51
  3
B1
350
52
  3
B2
350
53
  3
B3
350
54
  3
B4
350
55
  3
B5
350
56
  3
B6
350
57
  3
B7
350
58
  0
DICTIONARY
  5
2A
102
{ACAD_REACTORS
330
C
102
}
330
C
100
AcDbDictionary
  3
2DWIREFRAME
350
2F
  3
BASIC
350
32
  3
BRIGHTEN
350
36
  3
COLORCHANGE
350
3A
  3
CONCEPTUAL
350
34
  3
DIM
350
35
  3
EDGECOLOROFF
350
3D
  3
FACEPATTERN
350
39
  3
FLAT
350
2B
  3
FLATWITHEDGES
350
2C
  3
GOURAUD
350
2D
  3
GOURAUDWITHEDGES
350
2E
  3
HIDDEN
350
31
  3
JITTEROFF
350
3B
  3
LINEPATTERN
350
38
  3
OVERHANGOFF
350
3C
  3
REALISTIC
350
33
  3
SHADED
350
42
  3
SHADED_WITH_EDGES
350
41
  3
SHADES_OF_GRAY
350
3E
  3
SKETCHY
350
3F
  3
THICKEN
350
37
  3
WIREFRAME
350
30
  3
X-RAY
350
40
  0
DICTIONARY
  5
146
102
{ACAD_REACTORS
330
C
102
}
330
C
100
AcDbDictionary
  3
CEPSNID
350
150
  3
CEPSNTYPE
350
14F
  3
DIMSTYLEDATA
350
166
  3
FINGERPRINTGUID
350
151
  3
HYPERLINKBASE
350
149
  3
INSUNITS
350
14E
  3
LAYOUTDICT
350
14B
  3
LWETCUNION
350
14D
  3
PLOTSETDICT
350
14C
  3
PSVPSCALE
350
153
  3
PUCSBASE
350
156
  3
PUCSORGBACK
350
15C
  3
PUCSORGBOTTOM
350
158
  3
PUCSORGFRONT
350
15B
  3
PUCSORGLEFT
350
159
  3
PUCSORGRIGHT
350
15A
  3
PUCSORGTOP
350
157
  3
PUCSORTHOREF
350
154
  3
PUCSORTHOVIEW
350
155
  3
STYLESHEET
350
14A
  3
TSTACKALIGN
350
147
  3
TSTACKSIZE
350
148
  3
UCSBASE
350
15F
  3
UCSORGBACK
350
165
  3
UCSORGBOTTOM
350
161
  3
UCSORGFRONT
350
164
  3
UCSORGLEFT
350
162
  3
UCSORGRIGHT
350
163
  3
UCSORGTOP
350
160
  3
UCSORTHOREF
350
15D
  3
UCSORTHOVIEW
350
15E
  3
VERSIONGUID
350
152
  0
DICTIONARY
  5
167
102
{ACAD_REACTORS
330
C
102
}
330
C
100
AcDbDictionary
  3
CANNOSCALE
350
171
  3
CMLEADERSTYLE
350
169
  3
CTABLESTYLE
350
168
  3
DIMASSOC
350
16C
  3
HIDETEXT
350
16D
  3
MSLTSCALE
350
172
  0
XRECORD
  5
16E
102
{ACAD_REACTORS
330
C
102
}
330
C
100
AcDbXrecord
  1
DWGPROPS COOKIE
  2

  3

  4

  6

  7

  8
ClaTschenett
  9

300
=
301
=
302
=
303
=
304
=
305
=
306
=
307
=
308
=
309
=
 40
0.0
 41
2460133.474247859
 42
2460133.474267384
  1

 90
        0
  0
XRECORD
  5
170
102
{ACAD_REACTORS
330
16F
102
}
330
16F
100
AcDbXrecord
102
VTR_0.000_0.000_1.000_1.000_VISUALSTYLE
340
2F
102
VTR_0.000_0.000_1.000_1.000_GRIDDISPLAY
 70
     3
102
VTR_0.000_0.000_1.000_1.000_GRIDMAJOR
 70
     5
102
VTR_0.000_0.000_1.000_1.000_DEFAULTLIGHTING
280
     1
102
VTR_0.000_0.000_1.000_1.000_DEFAULTLIGHTINGTYPE
 70
     1
102
VTR_0.000_0.000_1.000_1.000_BRIGHTNESS
141
0.0
102
VTR_0.000_0.000_1.000_1.000_CONTRAST
142
0.0
  0
MATERIAL
  5
45
102
{ACAD_REACTORS
330
43
102
}
102
{ACAD_XDICTIONARY
360
175
102
}
330
43
100
AcDbMaterial
  1
BYBLOCK
  0
MATERIAL
  5
44
102
{ACAD_REACTORS
330
43
102
}
102
{ACAD_XDICTIONARY
360
173
102
}
330
43
100
AcDbMaterial
  1
BYLAYER
  0
MATERIAL
  5
46
102
{ACAD_REACTORS
330
43
102
}
102
{ACAD_XDICTIONARY
360
177
102
}
330
43
100
AcDbMaterial
  1
GLOBAL
  0
ACAD_PROXY_OBJECT
  5
5C
102
{ACAD_REACTORS
330
5B
102
}
330
5B
100
AcDbProxyObject
 90
      499
 91
      505
 93
      610
310
40901902A4063FBFFFFFE056BD1B81E855B9FC0AD7A3703D0AD73F4214DD185B99185C9900AD7A3703D0AC73F90141901A02B5E8DC0F42B1CFC02B5E8DC0F42B1CFE5764000000000000300FC0
340
14
340
0
340
11
340
0
 94
        0
1001
ACAD_MLEADERVER
1070
     2
  0
MLINESTYLE
  5
18
102
{ACAD_REACTORS
330
17
102
}
330
17
100
AcDbMlineStyle
  2
Standard
 70
     0
  3

 62
   256
 51
90.0
 52
90.0
 71
     2
 49
0.5
 62
   256
  6
BYLAYER
 49
-0.5
 62
   256
  6
BYLAYER
  0
ACAD_PROXY_OBJECT
  5
48
102
{ACAD_REACTORS
330
47
102
}
330
47
100
AcDbProxyObject
 90
      499
 91
      503
 93
       41
310
903313A31580
  0
ACAD_PROXY_OBJECT
  5
49
102
{ACAD_REACTORS
330
47
102
}
330
47
100
AcDbProxyObject
 90
      499
 91
      503
 93
      257
310
90E312F31323822203D2031272D3022000000000000200FC000000000000284000
  0
ACAD_PROXY_OBJECT
  5
4A
102
{ACAD_REACTORS
330
47
102
}
330
47
100
AcDbProxyObject
 90
      499
 91
      503
 93
      249
310
90D312F363422203D2031272D3022000000000000240FC000000000000284000
  0
ACAD_PROXY_OBJECT
  5
4B
102
{ACAD_REACTORS
330
47
102
}
330
47
100
AcDbProxyObject
 90
      499
 91
      503
 93
      249
310
90D312F333222203D2031272D3022000000000000280FC000000000000284000
  0
ACAD_PROXY_OBJECT
  5
4C
102
{ACAD_REACTORS
330
47
102
}
330
47
100
AcDbProxyObject
 90
      499
 91
      503
 93
      249
310
90D312F313622203D2031272D30220000000000002C0FC000000000000284000
  0
ACAD_PROXY_OBJECT
  5
4D
102
{ACAD_REACTORS
330
47
102
}
330
47
100
AcDbProxyObject
 90
      499
 91
      503
 93
      249
310
90D332F333222203D2031272D30220000000000002E0FC000000000000284000
  0
ACAD_PROXY_OBJECT
  5
4E
102
{ACAD_REACTORS
330
47
102
}
330
47
100
AcDbProxyObject
 90
      499
 91
      503
 93
      241
310
90C312F3822203D2031272D3022000000000000300FC000000000000284000
  0
ACAD_PROXY_OBJECT
  5
4F
102
{ACAD_REACTORS
330
47
102
}
330
47
100
AcDbProxyObject
 90
      499
 91
      503
 93
      249
310
90D332F313622203D2031272D3022000000000000320FC000000000000284000
  0
ACAD_PROXY_OBJECT
  5
50
102
{ACAD_REACTORS
330
47
102
}
330
47
100
AcDbProxyObject
 90
      499
 91
      503
 93
      241
310
90C312F3422203D2031272D3022000000000000340FC000000000000284000
  0
ACAD_PROXY_OBJECT
  5
51
102
{ACAD_REACTORS
330
47
102
}
330
47
100
AcDbProxyObject
 90
      499
 91
      503
 93
      241
310
90C332F3822203D2031272D3022000000000000360FC000000000000284000
  0
ACAD_PROXY_OBJECT
  5
52
102
{ACAD_REACTORS
330
47
102
}
330
47
100
AcDbProxyObject
 90
      499
 91
      503
 93
      241
310
90C312F3222203D2031272D3022000000000000380FC000000000000284000
  0
ACAD_PROXY_OBJECT
  5
53
102
{ACAD_REACTORS
330
47
102
}
330
47
100
AcDbProxyObject
 90
      499
 91
      503
 93
      241
310
90C332F3422203D2031272D30220000000000003A0FC000000000000284000
  0
ACAD_PROXY_OBJECT
  5
54
102
{ACAD_REACTORS
330
47
102
}
330
47
100
AcDbProxyObject
 90
      499
 91
      503
 93
      161
310
90A3122203D2031272D30224000000000000284000
  0
ACAD_PROXY_OBJECT
  5
55
102
{ACAD_REACTORS
330
47
102
}
330
47
100
AcDbProxyObject
 90
      499
 91
      503
 93
      257
310
90E312D312F3222203D2031272D30220000000000003E0FC000000000000284000
  0
ACAD_PROXY_OBJECT
  5
56
102
{ACAD_REACTORS
330
47
102
}
330
47
100
AcDbProxyObject
 90
      499
 91
      503
 93
      225
310
90A3322203D2031272D302200000000000002100000000000000284000
  0
ACAD_PROXY_OBJECT
  5
57
102
{ACAD_REACTORS
330
47
102
}
330
47
100
AcDbProxyObject
 90
      499
 91
      503
 93
      225
310
90A3622203D2031272D302200000000000006100000000000000284000
  0
ACAD_PROXY_OBJECT
  5
58
102
{ACAD_REACTORS
330
47
102
}
330
47
100
AcDbProxyObject
 90
      499
 91
      503
 93
      249
310
90D31272D3022203D2031272D30220000000000000A100000000000000284000
  0
ACAD_PROXY_OBJECT
  5
2F
102
{ACAD_REACTORS
330
2A
102
}
330
2A
100
AcDbProxyObject
 90
      499
 91
      501
 93
      436
310
42CC9915DA5C99599C985B595049028333333333333E33F0000000000000F90107901411070040501600405405064090741402480A0340
1001
ACAD
1000
AcDbSavedByObjectVersion
1070
     0
  0
ACAD_PROXY_OBJECT
  5
32
102
{ACAD_REACTORS
330
2A
102
}
330
2A
100
AcDbProxyObject
 90
      499
 91
      501
 93
      388
310
4150985CDA58D07406404333333333333E33F0000000000000F90107A41107004050150841D405064090741402480A0350
1001
ACAD
1000
AcDbSavedByObjectVersion
1070
     0
  0
ACAD_PROXY_OBJECT
  5
36
102
{ACAD_REACTORS
330
2A
102
}
330
2A
100
AcDbProxyObject
 90
      499
 91
      501
 93
      428
310
42109C9A59DA1D195B90C409028333333333333E33F0000000000000F9010790141107004050150841D405064090741402480A029950
1001
ACAD
1000
AcDbSavedByObjectVersion
1070
     0
  0
ACAD_PROXY_OBJECT
  5
3A
102
{ACAD_REACTORS
330
2A
102
}
330
2A
100
AcDbProxyObject
 90
      499
 91
      501
 93
      452
310
42D0DBDB1BDC90DA185B99D95104090240C333333333333E33F0000000000000F90108901411070040501508421405064090741402480A0350
1001
ACAD
1000
AcDbSavedByObjectVersion
1070
     0
  0
ACAD_PROXY_OBJECT
  5
34
102
{ACAD_REACTORS
330
2A
102
}
330
2A
100
AcDbProxyObject
 90
      499
 91
      501
 93
      500
310
4290DBDB98D95C1D1D585B10940D028333333333333E33F0000000000000F90107902409070040501000000000018199010841D405064090740C02480A0340
1001
ACAD
1000
AcDbSavedByObjectVersion
1070
     0
  0
ACAD_PROXY_OBJECT
  5
35
102
{ACAD_REACTORS
330
2A
102
}
330
2A
100
AcDbProxyObject
 90
      499
 91
      501
 93
      412
310
40D11A5B50B409028333333333333E33F0000000000000F9010790141107004050150841D405064090741402480A02677FFFFFD0
1001
ACAD
1000
AcDbSavedByObjectVersion
1070
     0
  0
ACAD_PROXY_OBJECT
  5
3D
102
{ACAD_REACTORS
330
2A
102
}
330
2A
100
AcDbProxyObject
 90
      499
 91
      501
 93
      452
310
43115919D950DBDB1BDC93D999916409028333333333333E33F0000000000000F9010790141107004050150841D405064090741402480A0350
1001
ACAD
1000
AcDbSavedByObjectVersion
1070
     0
  0
ACAD_PROXY_OBJECT
  5
39
102
{ACAD_REACTORS
330
2A
102
}
330
2A
100
AcDbProxyObject
 90
      499
 91
      501
 93
      444
310
42D19858D95C185D1D195C9B90F409028333333333333E33F0000000000000F9010790141107004050150841D405064090741402480A0350
1001
ACAD
1000
AcDbSavedByObjectVersion
1070
     0
  0
ACAD_PROXY_OBJECT
  5
2B
102
{ACAD_REACTORS
330
2A
102
}
330
2A
100
AcDbProxyObject
 90
      499
 91
      501
 93
      380
310
41119B185D240901404333333333333E33F0000000000000F9010740A907004050150841D405064090741402480A1B50
1001
ACAD
1000
AcDbSavedByObjectVersion
1070
     0
  0
ACAD_PROXY_OBJECT
  5
2C
102
{ACAD_REACTORS
330
2A
102
}
330
2A
100
AcDbProxyObject
 90
      499
 91
      501
 93
      468
310
43519B185D15DA5D1A115919D95CD0140901404333333333333E33F0000000000000F90107409019070040501600405405064090741402480A1B50
1001
ACAD
1000
AcDbSavedByObjectVersion
1070
     0
  0
ACAD_PROXY_OBJECT
  5
2D
102
{ACAD_REACTORS
330
2A
102
}
330
2A
100
AcDbProxyObject
 90
      499
 91
      501
 93
      404
310
41D1DBDD5C985D5910240902404333333333333E33F0000000000000F9010740A9070040501641D405064090741402480A1B50
1001
ACAD
1000
AcDbSavedByObjectVersion
1070
     0
  0
ACAD_PROXY_OBJECT
  5
2E
102
{ACAD_REACTORS
330
2A
102
}
330
2A
100
AcDbProxyObject
 90
      499
 91
      501
 93
      492
310
4411DBDD5C985D5915DA5D1A115919D95CD0340902404333333333333E33F0000000000000F90107409019070040501600405405064090741402480A1B50
1001
ACAD
1000
AcDbSavedByObjectVersion
1070
     0
  0
ACAD_PROXY_OBJECT
  5
31
102
{ACAD_REACTORS
330
2A
102
}
330
2A
100
AcDbProxyObject
 90
      499
 91
      501
 93
      476
310
41921A5919195B90640502408333333333333E33F0000000000000F901079024090700405020000000000001110200405405064090740C02480A0340
1001
ACAD
1000
AcDbSavedByObjectVersion
1070
     0
  0
ACAD_PROXY_OBJECT
  5
3B
102
{ACAD_REACTORS
330
2A
102
}
330
2A
100
AcDbProxyObject
 90
      499
 91
      501
 93
      428
310
42529A5D1D195C93D999914409028333333333333E33F0000000000000F9010790141107004050150A41D405064090741402480A0350
1001
ACAD
1000
AcDbSavedByObjectVersion
1070
     0
  0
ACAD_PROXY_OBJECT
  5
38
102
{ACAD_REACTORS
330
2A
102
}
330
2A
100
AcDbProxyObject
 90
      499
 91
      501
 93
      444
310
42D31A5B995C185D1D195C9B90E409028333333333333E33F0000000000000F9010790141107004050750841D405064090741402483A0350
1001
ACAD
1000
AcDbSavedByObjectVersion
1070
     0
  0
ACAD_PROXY_OBJECT
  5
3C
102
{ACAD_REACTORS
330
2A
102
}
330
2A
100
AcDbProxyObject
 90
      499
 91
      501
 93
      444
310
42D3DD995C9A185B99D3D999915409028333333333333E33F0000000000000F9010790141107004050150941D405064090741402480A0350
1001
ACAD
1000
AcDbSavedByObjectVersion
1070
     0
  0
ACAD_PROXY_OBJECT
  5
33
102
{ACAD_REACTORS
330
2A
102
}
330
2A
100
AcDbProxyObject
 90
      499
 91
      501
 93
      428
310
425499585B1A5CDD1A58D08409038333333333333E33F0000000000000F9010740A907004050150800405405064090740C02480A1B40
1001
ACAD
1000
AcDbSavedByObjectVersion
1070
     0
  0
ACAD_PROXY_OBJECT
  5
42
102
{ACAD_REACTORS
330
2A
102
}
330
2A
100
AcDbProxyObject
 90
      499
 91
      501
 93
      420
310
4194DA1859195911B40902404333333333333E33F0000000000000F9010740A41107004050150800405405064090840C02480A0B40
1001
ACAD
1000
AcDbSavedByObjectVersion
1070
     0
  0
ACAD_PROXY_OBJECT
  5
41
102
{ACAD_REACTORS
330
2A
102
}
330
2A
100
AcDbProxyObject
 90
      499
 91
      501
 93
      516
310
4454DA18591959081DDA5D1A08195919D95CD1A40902404333333333333E33F0000000000000F901074090142907004050250800405405064090740C02480A0B40
1001
ACAD
1000
AcDbSavedByObjectVersion
1070
     0
  0
ACAD_PROXY_OBJECT
  5
3E
102
{ACAD_REACTORS
330
2A
102
}
330
2A
100
AcDbProxyObject
 90
      499
 91
      501
 93
      532
310
4394DA1859195CC81BD98811DC985E5174090240C333333333333E33F0000000000000F901079024090741D01000000000000111010841D405064090740C02480A0340
1001
ACAD
1000
AcDbSavedByObjectVersion
1070
     0
  0
ACAD_PROXY_OBJECT
  5
3F
102
{ACAD_REACTORS
330
2A
102
}
330
2A
100
AcDbProxyObject
 90
      499
 91
      501
 93
      476
310
41D4DAD95D18DA1E51840502408333333333333E33F0000000000000F901079024090741D01000000000000111010B41D405064090741802480A0340
1001
ACAD
1000
AcDbSavedByObjectVersion
1070
     0
  0
ACAD_PROXY_OBJECT
  5
37
102
{ACAD_REACTORS
330
2A
102
}
330
2A
100
AcDbProxyObject
 90
      499
 91
      501
 93
      412
310
41D51A1A58DAD95B90D409028333333333333E33F0000000000000F9010790141107004050150C41D405064090741402480A0350
1001
ACAD
1000
AcDbSavedByObjectVersion
1070
     0
  0
ACAD_PROXY_OBJECT
  5
30
102
{ACAD_REACTORS
330
2A
102
}
330
2A
100
AcDbProxyObject
 90
      499
 91
      501
 93
      420
310
4255DA5C99599C985B595059028333333333333E33F0000000000000F90107901411070040501600405405064090740C02480A0340
1001
ACAD
1000
AcDbSavedByObjectVersion
1070
     0
  0
ACAD_PROXY_OBJECT
  5
40
102
{ACAD_REACTORS
330
2A
102
}
330
2A
100
AcDbProxyObject
 90
      499
 91
      501
 93
      404
310
41560B54985E51940902404000000000000E03F0000000000000F9010740501907004050150841D405064090740C02480A1B40
1001
ACAD
1000
AcDbSavedByObjectVersion
1070
     0
  0
XRECORD
  5
150
102
{ACAD_REACTORS
330
146
102
}
330
146
100
AcDbXrecord
340
0
  0
XRECORD
  5
14F
102
{ACAD_REACTORS
330
146
102
}
330
146
100
AcDbXrecord
 90
        0
  0
XRECORD
  5
166
102
{ACAD_REACTORS
330
146
102
}
330
146
100
AcDbXrecord
1000
DSTYLE
1002
{
1070
   171
 70
     2
1070
   143
 40
25.4
1070
   274
 70
     2
1070
    41
 40
0.18
1070
   141
 40
0.09
1070
   271
 70
     4
1070
    43
 40
0.38
1070
   278
 70
    46
1070
    44
 40
0.18
1070
    42
 40
0.0625
1070
   147
 40
0.09
1070
    77
 70
     0
1070
   272
 70
     4
1070
    73
 70
     1
1070
   279
 70
     2
1070
   172
 70
     0
1070
    74
 70
     1
1070
   283
 70
     1
1070
   340
340
11
1070
   140
 40
0.18
1070
   284
 70
     0
1070
    78
 70
     0
1002
}
  0
XRECORD
  5
151
102
{ACAD_REACTORS
330
146
102
}
330
146
100
AcDbXrecord
  1
{d9ef04fd-41f4-40c6-bd25-3043b153047e}
  0
XRECORD
  5
149
102
{ACAD_REACTORS
330
146
102
}
330
146
100
AcDbXrecord
  1

  0
XRECORD
  5
14E
102
{ACAD_REACTORS
330
146
102
}
330
146
100
AcDbXrecord
 90
        4
  0
XRECORD
  5
14B
102
{ACAD_REACTORS
330
146
102
}
330
146
100
AcDbXrecord
340
1A
  0
XRECORD
  5
14D
102
{ACAD_REACTORS
330
146
102
}
330
146
100
AcDbXrecord
 90
    10781
  0
XRECORD
  5
14C
102
{ACAD_REACTORS
330
146
102
}
330
146
100
AcDbXrecord
340
19
  0
XRECORD
  5
153
102
{ACAD_REACTORS
330
146
102
}
330
146
100
AcDbXrecord
 40
0.0
  0
XRECORD
  5
156
102
{ACAD_REACTORS
330
146
102
}
330
146
100
AcDbXrecord
340
0
  0
XRECORD
  5
15C
102
{ACAD_REACTORS
330
146
102
}
330
146
100
AcDbXrecord
 10
0.0
 20
0.0
 30
0.0
  0
XRECORD
  5
158
102
{ACAD_REACTORS
330
146
102
}
330
146
100
AcDbXrecord
 10
0.0
 20
0.0
 30
0.0
  0
XRECORD
  5
15B
102
{ACAD_REACTORS
330
146
102
}
330
146
100
AcDbXrecord
 10
0.0
 20
0.0
 30
0.0
  0
XRECORD
  5
159
102
{ACAD_REACTORS
330
146
102
}
330
146
100
AcDbXrecord
 10
0.0
 20
0.0
 30
0.0
  0
XRECORD
  5
15A
102
{ACAD_REACTORS
330
146
102
}
330
146
100
AcDbXrecord
 10
0.0
 20
0.0
 30
0.0
  0
XRECORD
  5
157
102
{ACAD_REACTORS
330
146
102
}
330
146
100
AcDbXrecord
 10
0.0
 20
0.0
 30
0.0
  0
XRECORD
  5
154
102
{ACAD_REACTORS
330
146
102
}
330
146
100
AcDbXrecord
340
0
  0
XRECORD
  5
155
102
{ACAD_REACTORS
330
146
102
}
330
146
100
AcDbXrecord
 70
     0
  0
XRECORD
  5
14A
102
{ACAD_REACTORS
330
146
102
}
330
146
100
AcDbXrecord
  1

  0
XRECORD
  5
147
102
{ACAD_REACTORS
330
146
102
}
330
146
100
AcDbXrecord
 90
        1
  0
XRECORD
  5
148
102
{ACAD_REACTORS
330
146
102
}
330
146
100
AcDbXrecord
 90
       70
  0
XRECORD
  5
15F
102
{ACAD_REACTORS
330
146
102
}
330
146
100
AcDbXrecord
340
0
  0
XRECORD
  5
165
102
{ACAD_REACTORS
330
146
102
}
330
146
100
AcDbXrecord
 10
0.0
 20
0.0
 30
0.0
  0
XRECORD
  5
161
102
{ACAD_REACTORS
330
146
102
}
330
146
100
AcDbXrecord
 10
0.0
 20
0.0
 30
0.0
  0
XRECORD
  5
164
102
{ACAD_REACTORS
330
146
102
}
330
146
100
AcDbXrecord
 10
0.0
 20
0.0
 30
0.0
  0
XRECORD
  5
162
102
{ACAD_REACTORS
330
146
102
}
330
146
100
AcDbXrecord
 10
0.0
 20
0.0
 30
0.0
  0
XRECORD
  5
163
102
{ACAD_REACTORS
330
146
102
}
330
146
100
AcDbXrecord
 10
0.0
 20
0.0
 30
0.0
  0
XRECORD
  5
160
102
{ACAD_REACTORS
330
146
102
}
330
146
100
AcDbXrecord
 10
0.0
 20
0.0
 30
0.0
  0
XRECORD
  5
15D
102
{ACAD_REACTORS
330
146
102
}
330
146
100
AcDbXrecord
340
0
  0
XRECORD
  5
15E
102
{ACAD_REACTORS
330
146
102
}
330
146
100
AcDbXrecord
 70
     0
  0
XRECORD
  5
152
102
{ACAD_REACTORS
330
146
102
}
330
146
100
AcDbXrecord
  1
{FAEB1C32-E019-11D5-929B-00C0DF256EC4}
  0
DICTIONARYVAR
  5
171
102
{ACAD_REACTORS
330
167
102
}
330
167
100
DictionaryVariables
280
     0
  1
1:1
  0
DICTIONARYVAR
  5
169
102
{ACAD_REACTORS
330
167
102
}
330
167
100
DictionaryVariables
280
     0
  1
Standard
  0
DICTIONARYVAR
  5
168
102
{ACAD_REACTORS
330
167
102
}
330
167
100
DictionaryVariables
280
     0
  1
Standard
  0
DICTIONARYVAR
  5
16C
102
{ACAD_REACTORS
330
167
102
}
330
167
100
DictionaryVariables
280
     0
  1
2
  0
DICTIONARYVAR
  5
16D
102
{ACAD_REACTORS
330
167
102
}
330
167
100
DictionaryVariables
280
     0
  1
1
  0
DICTIONARYVAR
  5
172
102
{ACAD_REACTORS
330
167
102
}
330
167
100
DictionaryVariables
280
     0
  1
1
  0
DICTIONARY
  5
175
330
45
100
AcDbDictionary
280
     1
  3
ACAD_XREC_ROUNDTRIP
360
176
  0
DICTIONARY
  5
173
330
44
100
AcDbDictionary
280
     1
  3
ACAD_XREC_ROUNDTRIP
360
174
  0
DICTIONARY
  5
177
330
46
100
AcDbDictionary
280
     1
  3
ACAD_XREC_ROUNDTRIP
360
178
  0
XRECORD
  5
176
102
{ACAD_REACTORS
330
175
102
}
330
175
100
AcDbXrecord
102
MATERIAL
148
0.0
149
0.0
149
0.0
 93
        0
 94
      127
282
     0
 72
     1
 77
     1
171
     1
175
     1
179
     1
273
     0
  0
XRECORD
  5
174
102
{ACAD_REACTORS
330
173
102
}
330
173
100
AcDbXrecord
102
MATERIAL
148
0.0
149
0.0
149
0.0
 93
        0
 94
      127
282
     0
 72
     1
 77
     1
171
     1
175
     1
179
     1
273
     0
  0
XRECORD
  5
178
102
{ACAD_REACTORS
330
177
102
}
330
177
100
AcDbXrecord
102
MATERIAL
148
0.0
149
0.0
149
0.0
 93
        0
 94
      127
282
     0
 72
     1
 77
     1
171
     1
175
     1
179
     1
273
     0
  0
ENDSEC
  0
EOF
